G04 #@! TF.FileFunction,Copper,L2,Bot,Signal*
%FSLAX46Y46*%
G04 Gerber Fmt 4.6, Leading zero omitted, Abs format (unit mm)*
G04 Created by KiCad (PCBNEW 4.0.6) date 2018 June 04, Monday 22:32:25*
%MOMM*%
%LPD*%
G01*
G04 APERTURE LIST*
%ADD10C,0.150000*%
%ADD11C,1.600000*%
%ADD12R,2.032000X1.727200*%
%ADD13O,2.032000X1.727200*%
%ADD14C,1.400000*%
%ADD15O,1.400000X1.400000*%
%ADD16R,1.600000X1.600000*%
%ADD17O,1.600000X1.600000*%
%ADD18O,1.524000X2.540000*%
%ADD19R,2.000000X2.000000*%
%ADD20C,2.000000*%
%ADD21C,0.800000*%
%ADD22C,0.500000*%
%ADD23C,0.200000*%
%ADD24C,0.254000*%
G04 APERTURE END LIST*
D10*
D11*
X161290000Y-92710000D03*
X163790000Y-92710000D03*
X175514000Y-97028000D03*
X175514000Y-99528000D03*
D12*
X139700000Y-120650000D03*
D13*
X139700000Y-118110000D03*
X139700000Y-115570000D03*
X139700000Y-113030000D03*
X139700000Y-110490000D03*
D12*
X135890000Y-96520000D03*
D13*
X135890000Y-99060000D03*
X135890000Y-101600000D03*
X135890000Y-104140000D03*
D14*
X147320000Y-111760000D03*
D15*
X147320000Y-119380000D03*
D14*
X161290000Y-88900000D03*
D15*
X161290000Y-81280000D03*
D14*
X166370000Y-111760000D03*
D15*
X166370000Y-119380000D03*
D14*
X158750000Y-119380000D03*
D15*
X158750000Y-111760000D03*
D14*
X162560000Y-111760000D03*
D15*
X162560000Y-119380000D03*
D14*
X151130000Y-119380000D03*
D15*
X151130000Y-111760000D03*
D14*
X154940000Y-119380000D03*
D15*
X154940000Y-111760000D03*
D14*
X170180000Y-119380000D03*
D15*
X170180000Y-111760000D03*
D14*
X146050000Y-102870000D03*
D15*
X146050000Y-95250000D03*
D14*
X189230000Y-88900000D03*
D15*
X189230000Y-81280000D03*
D14*
X157480000Y-81280000D03*
D15*
X157480000Y-88900000D03*
D14*
X185420000Y-88900000D03*
D15*
X185420000Y-81280000D03*
D14*
X149860000Y-95250000D03*
D15*
X157480000Y-95250000D03*
D14*
X149860000Y-99060000D03*
D15*
X157480000Y-99060000D03*
D14*
X172974000Y-91948000D03*
D15*
X180594000Y-91948000D03*
D14*
X193040000Y-88900000D03*
D15*
X193040000Y-81280000D03*
D14*
X149860000Y-102870000D03*
D15*
X157480000Y-102870000D03*
D14*
X157480000Y-106680000D03*
D15*
X149860000Y-106680000D03*
D16*
X175260000Y-104140000D03*
D17*
X175260000Y-106680000D03*
X175260000Y-109220000D03*
X175260000Y-111760000D03*
X175260000Y-114300000D03*
X175260000Y-116840000D03*
X175260000Y-119380000D03*
D16*
X180340000Y-104140000D03*
D17*
X180340000Y-106680000D03*
X180340000Y-109220000D03*
X180340000Y-111760000D03*
X180340000Y-114300000D03*
X180340000Y-116840000D03*
X180340000Y-119380000D03*
D18*
X196030000Y-123581000D03*
X193490000Y-123581000D03*
X190950000Y-123581000D03*
X183330000Y-123581000D03*
X185870000Y-123581000D03*
X188410000Y-123581000D03*
X178250000Y-123581000D03*
X175710000Y-123581000D03*
X173170000Y-123581000D03*
X168090000Y-123581000D03*
X165550000Y-123581000D03*
X196030000Y-75321000D03*
X193490000Y-75321000D03*
X190950000Y-75321000D03*
X188410000Y-75321000D03*
X185870000Y-75321000D03*
X183330000Y-75321000D03*
X180790000Y-75321000D03*
X178250000Y-75321000D03*
X174186000Y-75321000D03*
X171646000Y-75321000D03*
X169106000Y-75321000D03*
X166566000Y-75321000D03*
X164026000Y-75321000D03*
X161486000Y-75321000D03*
X158946000Y-75321000D03*
X156406000Y-75321000D03*
X170630000Y-123581000D03*
D16*
X185420000Y-96520000D03*
D17*
X193040000Y-119380000D03*
X185420000Y-99060000D03*
X193040000Y-116840000D03*
X185420000Y-101600000D03*
X193040000Y-114300000D03*
X185420000Y-104140000D03*
X193040000Y-111760000D03*
X185420000Y-106680000D03*
X193040000Y-109220000D03*
X185420000Y-109220000D03*
X193040000Y-106680000D03*
X185420000Y-111760000D03*
X193040000Y-104140000D03*
X185420000Y-114300000D03*
X193040000Y-101600000D03*
X185420000Y-116840000D03*
X193040000Y-99060000D03*
X185420000Y-119380000D03*
X193040000Y-96520000D03*
D16*
X162560000Y-105410000D03*
D17*
X170180000Y-97790000D03*
X165100000Y-105410000D03*
X167640000Y-97790000D03*
X167640000Y-105410000D03*
X165100000Y-97790000D03*
X170180000Y-105410000D03*
X162560000Y-97790000D03*
D16*
X165100000Y-88900000D03*
D17*
X180340000Y-81280000D03*
X167640000Y-88900000D03*
X177800000Y-81280000D03*
X170180000Y-88900000D03*
X175260000Y-81280000D03*
X172720000Y-88900000D03*
X172720000Y-81280000D03*
X175260000Y-88900000D03*
X170180000Y-81280000D03*
X177800000Y-88900000D03*
X167640000Y-81280000D03*
X180340000Y-88900000D03*
X165100000Y-81280000D03*
D19*
X143510000Y-83820000D03*
D20*
X151110000Y-83820000D03*
D21*
X187452000Y-91694000D03*
X180340000Y-98806000D03*
X153924000Y-91948000D03*
X171704000Y-83058000D03*
X175514000Y-85598000D03*
X179324000Y-85598000D03*
X188889600Y-90685400D03*
D22*
X180340000Y-104140000D02*
X180340000Y-98806000D01*
X180340000Y-88900000D02*
X180340000Y-86614000D01*
X154686000Y-92710000D02*
X161290000Y-92710000D01*
X153924000Y-91948000D02*
X154686000Y-92710000D01*
X172974000Y-83058000D02*
X171704000Y-83058000D01*
X175514000Y-85598000D02*
X172974000Y-83058000D01*
X180340000Y-86614000D02*
X179324000Y-85598000D01*
X170180000Y-121410700D02*
X170630000Y-121860700D01*
X170180000Y-119380000D02*
X170180000Y-121410700D01*
X170630000Y-123581000D02*
X170630000Y-121860700D01*
X147217200Y-101702800D02*
X146050000Y-102870000D01*
X148692800Y-101702800D02*
X147217200Y-101702800D01*
X148692800Y-96417200D02*
X148692800Y-101702800D01*
X149860000Y-95250000D02*
X148692800Y-96417200D01*
X148692800Y-101702800D02*
X149860000Y-102870000D01*
X162560000Y-97790000D02*
X161309700Y-97790000D01*
X157666700Y-100965000D02*
X153869000Y-104762700D01*
X158134700Y-100965000D02*
X157666700Y-100965000D01*
X161309700Y-97790000D02*
X158134700Y-100965000D01*
X168486200Y-119380000D02*
X153869000Y-104762700D01*
X170180000Y-119380000D02*
X168486200Y-119380000D01*
X151976200Y-102870000D02*
X149860000Y-102870000D01*
X153869000Y-104762700D02*
X151976200Y-102870000D01*
X157480000Y-86727400D02*
X157480000Y-81280000D01*
X163462600Y-92710000D02*
X157480000Y-86727400D01*
X163790000Y-92710000D02*
X163462600Y-92710000D01*
D23*
X175168200Y-96682200D02*
X175514000Y-97028000D01*
X169710600Y-96682200D02*
X175168200Y-96682200D01*
X168740300Y-97652500D02*
X169710600Y-96682200D01*
X168740300Y-97790000D02*
X168740300Y-97652500D01*
X167640000Y-97790000D02*
X168740300Y-97790000D01*
D22*
X137385800Y-118335800D02*
X139700000Y-120650000D01*
X137385800Y-103095800D02*
X137385800Y-118335800D01*
X135890000Y-101600000D02*
X137385800Y-103095800D01*
X147320000Y-119380000D02*
X147895200Y-119380000D01*
X153670100Y-112910300D02*
X147895200Y-118685200D01*
X156449400Y-112910300D02*
X153670100Y-112910300D01*
X157599700Y-111760000D02*
X156449400Y-112910300D01*
X147895200Y-119380000D02*
X147895200Y-118685200D01*
X147895200Y-118685200D02*
X139700000Y-110490000D01*
X158750000Y-111760000D02*
X157599700Y-111760000D01*
D23*
X146050000Y-88880000D02*
X146050000Y-95250000D01*
X151110000Y-83820000D02*
X146050000Y-88880000D01*
X166370000Y-107780300D02*
X166370000Y-111760000D01*
X167640000Y-106510300D02*
X166370000Y-107780300D01*
X167640000Y-105960100D02*
X167640000Y-106510300D01*
X167640000Y-105960100D02*
X167640000Y-105410000D01*
X162390400Y-87799600D02*
X161290000Y-88900000D01*
X166101600Y-87799600D02*
X162390400Y-87799600D01*
X166539700Y-88237700D02*
X166101600Y-87799600D01*
X166539700Y-103209400D02*
X166539700Y-88237700D01*
X167640000Y-104309700D02*
X166539700Y-103209400D01*
X167640000Y-105410000D02*
X167640000Y-104309700D01*
X168810000Y-87799700D02*
X162290300Y-81280000D01*
X170657100Y-87799700D02*
X168810000Y-87799700D01*
X171619700Y-88762300D02*
X170657100Y-87799700D01*
X171619700Y-88900000D02*
X171619700Y-88762300D01*
X172720000Y-88900000D02*
X171619700Y-88900000D01*
X161290000Y-81280000D02*
X162290300Y-81280000D01*
X163660300Y-103209400D02*
X162560000Y-104309700D01*
X163660300Y-95848200D02*
X163660300Y-103209400D01*
X165100000Y-94408500D02*
X163660300Y-95848200D01*
X165100000Y-88900000D02*
X165100000Y-94408500D01*
X162560000Y-105410000D02*
X162560000Y-104309700D01*
X152669700Y-99060000D02*
X149860000Y-99060000D01*
X156479700Y-95250000D02*
X152669700Y-99060000D01*
X157480000Y-95250000D02*
X156479700Y-95250000D01*
X165100000Y-105410000D02*
X163999700Y-105410000D01*
X163498500Y-106512900D02*
X158504300Y-106512900D01*
X163999700Y-106011700D02*
X163498500Y-106512900D01*
X163999700Y-105410000D02*
X163999700Y-106011700D01*
X158337200Y-106680000D02*
X158504300Y-106512900D01*
X157480000Y-106680000D02*
X158337200Y-106680000D01*
X158504300Y-104894600D02*
X157480000Y-103870300D01*
X158504300Y-106512900D02*
X158504300Y-104894600D01*
X157480000Y-102870000D02*
X157480000Y-103870300D01*
X176360300Y-109448000D02*
X176360300Y-109220000D01*
X179775500Y-112863200D02*
X176360300Y-109448000D01*
X190836500Y-112863200D02*
X179775500Y-112863200D01*
X191939700Y-111760000D02*
X190836500Y-112863200D01*
X193040000Y-111760000D02*
X191939700Y-111760000D01*
X175260000Y-109220000D02*
X176360300Y-109220000D01*
X176360300Y-111988000D02*
X176360300Y-111760000D01*
X179773200Y-115400900D02*
X176360300Y-111988000D01*
X190838800Y-115400900D02*
X179773200Y-115400900D01*
X191939700Y-114300000D02*
X190838800Y-115400900D01*
X193040000Y-114300000D02*
X191939700Y-114300000D01*
X175260000Y-111760000D02*
X176360300Y-111760000D01*
X188319300Y-119380000D02*
X190950000Y-122010700D01*
X185420000Y-119380000D02*
X188319300Y-119380000D01*
X190950000Y-123581000D02*
X190950000Y-122010700D01*
X167868000Y-82380300D02*
X167640000Y-82380300D01*
X173990000Y-88502300D02*
X167868000Y-82380300D01*
X173990000Y-91549100D02*
X173990000Y-88502300D01*
X176632900Y-94192000D02*
X173990000Y-91549100D01*
X176632900Y-100481700D02*
X176632900Y-94192000D01*
X174159600Y-102955000D02*
X176632900Y-100481700D01*
X174159600Y-112226800D02*
X174159600Y-102955000D01*
X174962800Y-113030000D02*
X174159600Y-112226800D01*
X175587600Y-113030000D02*
X174962800Y-113030000D01*
X178376700Y-115819100D02*
X175587600Y-113030000D01*
X178376700Y-116478200D02*
X178376700Y-115819100D01*
X180008500Y-118110000D02*
X178376700Y-116478200D01*
X181969300Y-118110000D02*
X180008500Y-118110000D01*
X185870000Y-122010700D02*
X181969300Y-118110000D01*
X185870000Y-123581000D02*
X185870000Y-122010700D01*
X167640000Y-81280000D02*
X167640000Y-82380300D01*
X186436300Y-122010700D02*
X188410000Y-122010700D01*
X184311000Y-119885400D02*
X186436300Y-122010700D01*
X184311000Y-118911800D02*
X184311000Y-119885400D01*
X185282500Y-117940300D02*
X184311000Y-118911800D01*
X185420000Y-117940300D02*
X185282500Y-117940300D01*
X185420000Y-116840000D02*
X185420000Y-117940300D01*
X188410000Y-123581000D02*
X188410000Y-122010700D01*
X188168700Y-79672600D02*
X190950000Y-76891300D01*
X188168700Y-89964500D02*
X188168700Y-79672600D01*
X188889600Y-90685400D02*
X188168700Y-89964500D01*
X190950000Y-75321000D02*
X190950000Y-76891300D01*
X186520300Y-78781000D02*
X188410000Y-76891300D01*
X186520300Y-97461100D02*
X186520300Y-78781000D01*
X186021700Y-97959700D02*
X186520300Y-97461100D01*
X185420000Y-97959700D02*
X186021700Y-97959700D01*
X185420000Y-99060000D02*
X185420000Y-97959700D01*
X188410000Y-75321000D02*
X188410000Y-76891300D01*
X184319700Y-78441600D02*
X185870000Y-76891300D01*
X184319700Y-99537100D02*
X184319700Y-78441600D01*
X185282300Y-100499700D02*
X184319700Y-99537100D01*
X185420000Y-100499700D02*
X185282300Y-100499700D01*
X185420000Y-101600000D02*
X185420000Y-100499700D01*
X185870000Y-75321000D02*
X185870000Y-76891300D01*
X183919300Y-77480600D02*
X183330000Y-76891300D01*
X183919300Y-101676500D02*
X183919300Y-77480600D01*
X185282500Y-103039700D02*
X183919300Y-101676500D01*
X185420000Y-103039700D02*
X185282500Y-103039700D01*
X185420000Y-104140000D02*
X185420000Y-103039700D01*
X183330000Y-75321000D02*
X183330000Y-76891300D01*
X183500200Y-79601500D02*
X180790000Y-76891300D01*
X183500200Y-103797400D02*
X183500200Y-79601500D01*
X185282500Y-105579700D02*
X183500200Y-103797400D01*
X185420000Y-105579700D02*
X185282500Y-105579700D01*
X185420000Y-106680000D02*
X185420000Y-105579700D01*
X180790000Y-75321000D02*
X180790000Y-76891300D01*
X183099800Y-81741100D02*
X178250000Y-76891300D01*
X183099800Y-105937000D02*
X183099800Y-81741100D01*
X185282500Y-108119700D02*
X183099800Y-105937000D01*
X185420000Y-108119700D02*
X185282500Y-108119700D01*
X185420000Y-109220000D02*
X185420000Y-108119700D01*
X178250000Y-75321000D02*
X178250000Y-76891300D01*
X185420000Y-111760000D02*
X185420000Y-110659700D01*
X174186000Y-75321000D02*
X174186000Y-76891300D01*
X176530000Y-79235300D02*
X174186000Y-76891300D01*
X176530000Y-90529600D02*
X176530000Y-79235300D01*
X182614400Y-96614000D02*
X176530000Y-90529600D01*
X182614400Y-107991600D02*
X182614400Y-96614000D01*
X185282500Y-110659700D02*
X182614400Y-107991600D01*
X185420000Y-110659700D02*
X185282500Y-110659700D01*
D24*
G36*
X146512700Y-73435758D02*
X145886955Y-74060411D01*
X145547887Y-74876978D01*
X145547115Y-75761143D01*
X145884758Y-76578300D01*
X146509411Y-77204045D01*
X147325978Y-77543113D01*
X148210143Y-77543885D01*
X149027300Y-77206242D01*
X149653045Y-76581589D01*
X149992113Y-75765022D01*
X149992885Y-74880857D01*
X149655242Y-74063700D01*
X149030589Y-73437955D01*
X148768196Y-73329000D01*
X196820264Y-73329000D01*
X197943000Y-74451736D01*
X197943000Y-84836000D01*
X197995143Y-85098138D01*
X198143632Y-85320368D01*
X198247000Y-85423736D01*
X198247000Y-85598000D01*
X198257006Y-85647410D01*
X198284197Y-85687803D01*
X200737000Y-88140606D01*
X200737000Y-89985605D01*
X200455242Y-89303700D01*
X199830589Y-88677955D01*
X199014022Y-88338887D01*
X198129857Y-88338115D01*
X197312700Y-88675758D01*
X196686955Y-89300411D01*
X196347887Y-90116978D01*
X196347115Y-91001143D01*
X196684758Y-91818300D01*
X197309411Y-92444045D01*
X198125978Y-92783113D01*
X199010143Y-92783885D01*
X199827300Y-92446242D01*
X200453045Y-91821589D01*
X200737000Y-91137749D01*
X200737000Y-117925605D01*
X200455242Y-117243700D01*
X199830589Y-116617955D01*
X199014022Y-116278887D01*
X198129857Y-116278115D01*
X197312700Y-116615758D01*
X196686955Y-117240411D01*
X196347887Y-118056978D01*
X196347115Y-118941143D01*
X196684758Y-119758300D01*
X197309411Y-120384045D01*
X198125978Y-120723113D01*
X199010143Y-120723885D01*
X199827300Y-120386242D01*
X200453045Y-119761589D01*
X200737000Y-119077749D01*
X200737000Y-120874264D01*
X198651632Y-122959632D01*
X198503143Y-123181862D01*
X198451647Y-123440747D01*
X198284197Y-123608197D01*
X198256334Y-123650211D01*
X198247000Y-123698000D01*
X198247000Y-125553000D01*
X147547330Y-125553000D01*
X147757300Y-125466242D01*
X148383045Y-124841589D01*
X148722113Y-124025022D01*
X148722885Y-123140857D01*
X148385242Y-122323700D01*
X147760589Y-121697955D01*
X146944022Y-121358887D01*
X146059857Y-121358115D01*
X145242700Y-121695758D01*
X144616955Y-122320411D01*
X144277887Y-123136978D01*
X144277115Y-124021143D01*
X144614758Y-124838300D01*
X145239411Y-125464045D01*
X145453639Y-125553000D01*
X133019000Y-125553000D01*
X133019000Y-99060000D01*
X134206655Y-99060000D01*
X134320729Y-99633489D01*
X134645585Y-100119670D01*
X134960366Y-100330000D01*
X134645585Y-100540330D01*
X134320729Y-101026511D01*
X134206655Y-101600000D01*
X134320729Y-102173489D01*
X134645585Y-102659670D01*
X134960366Y-102870000D01*
X134645585Y-103080330D01*
X134320729Y-103566511D01*
X134206655Y-104140000D01*
X134320729Y-104713489D01*
X134645585Y-105199670D01*
X135131766Y-105524526D01*
X135705255Y-105638600D01*
X136074745Y-105638600D01*
X136500800Y-105553852D01*
X136500800Y-118335795D01*
X136500799Y-118335800D01*
X136527300Y-118469026D01*
X136568167Y-118674475D01*
X136621444Y-118754210D01*
X136760010Y-118961590D01*
X138036560Y-120238139D01*
X138036560Y-121513600D01*
X138080838Y-121748917D01*
X138219910Y-121965041D01*
X138432110Y-122110031D01*
X138684000Y-122161040D01*
X140716000Y-122161040D01*
X140951317Y-122116762D01*
X141167441Y-121977690D01*
X141312431Y-121765490D01*
X141363440Y-121513600D01*
X141363440Y-119786400D01*
X141319162Y-119551083D01*
X141180090Y-119334959D01*
X140967890Y-119189969D01*
X140873073Y-119170768D01*
X141050732Y-119012036D01*
X141304709Y-118484791D01*
X141307358Y-118469026D01*
X141186217Y-118237000D01*
X139827000Y-118237000D01*
X139827000Y-118257000D01*
X139573000Y-118257000D01*
X139573000Y-118237000D01*
X139553000Y-118237000D01*
X139553000Y-117983000D01*
X139573000Y-117983000D01*
X139573000Y-117963000D01*
X139827000Y-117963000D01*
X139827000Y-117983000D01*
X141186217Y-117983000D01*
X141307358Y-117750974D01*
X141304709Y-117735209D01*
X141050732Y-117207964D01*
X140634931Y-116836461D01*
X140944415Y-116629670D01*
X141269271Y-116143489D01*
X141383345Y-115570000D01*
X141269271Y-114996511D01*
X140944415Y-114510330D01*
X140634931Y-114303539D01*
X141050732Y-113932036D01*
X141304709Y-113404791D01*
X141307358Y-113389026D01*
X141263562Y-113305142D01*
X146372915Y-118414494D01*
X146086621Y-118842964D01*
X145985000Y-119353846D01*
X145985000Y-119406154D01*
X146086621Y-119917036D01*
X146376012Y-120350142D01*
X146809118Y-120639533D01*
X147320000Y-120741154D01*
X147830882Y-120639533D01*
X148263988Y-120350142D01*
X148472368Y-120038278D01*
X148520990Y-120005790D01*
X148712833Y-119718675D01*
X148727610Y-119644383D01*
X149794769Y-119644383D01*
X149997582Y-120135229D01*
X150372796Y-120511098D01*
X150863287Y-120714768D01*
X151394383Y-120715231D01*
X151885229Y-120512418D01*
X152261098Y-120137204D01*
X152464768Y-119646713D01*
X152464770Y-119644383D01*
X153604769Y-119644383D01*
X153807582Y-120135229D01*
X154182796Y-120511098D01*
X154673287Y-120714768D01*
X155204383Y-120715231D01*
X155695229Y-120512418D01*
X156071098Y-120137204D01*
X156274768Y-119646713D01*
X156274770Y-119644383D01*
X157414769Y-119644383D01*
X157617582Y-120135229D01*
X157992796Y-120511098D01*
X158483287Y-120714768D01*
X159014383Y-120715231D01*
X159505229Y-120512418D01*
X159881098Y-120137204D01*
X160084768Y-119646713D01*
X160085023Y-119353846D01*
X161225000Y-119353846D01*
X161225000Y-119406154D01*
X161326621Y-119917036D01*
X161616012Y-120350142D01*
X162049118Y-120639533D01*
X162560000Y-120741154D01*
X163070882Y-120639533D01*
X163503988Y-120350142D01*
X163793379Y-119917036D01*
X163833898Y-119713331D01*
X165077273Y-119713331D01*
X165303236Y-120182663D01*
X165691604Y-120529797D01*
X166036671Y-120672716D01*
X166243000Y-120549374D01*
X166243000Y-119507000D01*
X165199794Y-119507000D01*
X165077273Y-119713331D01*
X163833898Y-119713331D01*
X163895000Y-119406154D01*
X163895000Y-119353846D01*
X163793379Y-118842964D01*
X163503988Y-118409858D01*
X163070882Y-118120467D01*
X162560000Y-118018846D01*
X162049118Y-118120467D01*
X161616012Y-118409858D01*
X161326621Y-118842964D01*
X161225000Y-119353846D01*
X160085023Y-119353846D01*
X160085231Y-119115617D01*
X159882418Y-118624771D01*
X159507204Y-118248902D01*
X159016713Y-118045232D01*
X158485617Y-118044769D01*
X157994771Y-118247582D01*
X157618902Y-118622796D01*
X157415232Y-119113287D01*
X157414769Y-119644383D01*
X156274770Y-119644383D01*
X156275231Y-119115617D01*
X156072418Y-118624771D01*
X155697204Y-118248902D01*
X155206713Y-118045232D01*
X154675617Y-118044769D01*
X154184771Y-118247582D01*
X153808902Y-118622796D01*
X153605232Y-119113287D01*
X153604769Y-119644383D01*
X152464770Y-119644383D01*
X152465231Y-119115617D01*
X152262418Y-118624771D01*
X151887204Y-118248902D01*
X151396713Y-118045232D01*
X150865617Y-118044769D01*
X150374771Y-118247582D01*
X149998902Y-118622796D01*
X149795232Y-119113287D01*
X149794769Y-119644383D01*
X148727610Y-119644383D01*
X148780200Y-119380000D01*
X148780200Y-119051780D01*
X154036679Y-113795300D01*
X156449395Y-113795300D01*
X156449400Y-113795301D01*
X156731884Y-113739110D01*
X156788075Y-113727933D01*
X157075190Y-113536090D01*
X157075191Y-113536089D01*
X157851046Y-112760233D01*
X158239118Y-113019533D01*
X158750000Y-113121154D01*
X159260882Y-113019533D01*
X159693988Y-112730142D01*
X159983379Y-112297036D01*
X160011307Y-112156632D01*
X165969669Y-118115035D01*
X165691604Y-118230203D01*
X165303236Y-118577337D01*
X165077273Y-119046669D01*
X165199794Y-119253000D01*
X166243000Y-119253000D01*
X166243000Y-119233000D01*
X166497000Y-119233000D01*
X166497000Y-119253000D01*
X166517000Y-119253000D01*
X166517000Y-119507000D01*
X166497000Y-119507000D01*
X166497000Y-120549374D01*
X166703329Y-120672716D01*
X167048396Y-120529797D01*
X167436764Y-120182663D01*
X167631927Y-119777304D01*
X167860408Y-120005787D01*
X167860410Y-120005790D01*
X168099237Y-120165369D01*
X168147523Y-120197632D01*
X168147524Y-120197632D01*
X168147525Y-120197633D01*
X168240269Y-120216081D01*
X168486197Y-120265001D01*
X168486202Y-120265000D01*
X169177127Y-120265000D01*
X169295000Y-120383079D01*
X169295000Y-121410695D01*
X169294999Y-121410700D01*
X169319725Y-121535001D01*
X169362367Y-121749375D01*
X169423776Y-121841280D01*
X169554210Y-122036490D01*
X169611490Y-122093770D01*
X169360000Y-122470150D01*
X169077828Y-122047851D01*
X168624609Y-121745019D01*
X168090000Y-121638679D01*
X167555391Y-121745019D01*
X167102172Y-122047851D01*
X166820000Y-122470150D01*
X166537828Y-122047851D01*
X166084609Y-121745019D01*
X165550000Y-121638679D01*
X165015391Y-121745019D01*
X164562172Y-122047851D01*
X164259340Y-122501070D01*
X164153000Y-123035679D01*
X164153000Y-124126321D01*
X164259340Y-124660930D01*
X164562172Y-125114149D01*
X165015391Y-125416981D01*
X165550000Y-125523321D01*
X166084609Y-125416981D01*
X166537828Y-125114149D01*
X166820000Y-124691850D01*
X167102172Y-125114149D01*
X167555391Y-125416981D01*
X168090000Y-125523321D01*
X168624609Y-125416981D01*
X169077828Y-125114149D01*
X169360000Y-124691850D01*
X169642172Y-125114149D01*
X170095391Y-125416981D01*
X170630000Y-125523321D01*
X171164609Y-125416981D01*
X171617828Y-125114149D01*
X171909330Y-124677887D01*
X171927941Y-124740941D01*
X172271974Y-125166630D01*
X172752723Y-125428260D01*
X172826930Y-125443220D01*
X173043000Y-125320720D01*
X173043000Y-123708000D01*
X173297000Y-123708000D01*
X173297000Y-125320720D01*
X173513070Y-125443220D01*
X173587277Y-125428260D01*
X174068026Y-125166630D01*
X174412059Y-124740941D01*
X174440000Y-124646277D01*
X174467941Y-124740941D01*
X174811974Y-125166630D01*
X175292723Y-125428260D01*
X175366930Y-125443220D01*
X175583000Y-125320720D01*
X175583000Y-123708000D01*
X173297000Y-123708000D01*
X173043000Y-123708000D01*
X173023000Y-123708000D01*
X173023000Y-123454000D01*
X173043000Y-123454000D01*
X173043000Y-121841280D01*
X173297000Y-121841280D01*
X173297000Y-123454000D01*
X175583000Y-123454000D01*
X175583000Y-121841280D01*
X175837000Y-121841280D01*
X175837000Y-123454000D01*
X175857000Y-123454000D01*
X175857000Y-123708000D01*
X175837000Y-123708000D01*
X175837000Y-125320720D01*
X176053070Y-125443220D01*
X176127277Y-125428260D01*
X176608026Y-125166630D01*
X176952059Y-124740941D01*
X176970670Y-124677887D01*
X177262172Y-125114149D01*
X177715391Y-125416981D01*
X178250000Y-125523321D01*
X178784609Y-125416981D01*
X179237828Y-125114149D01*
X179540660Y-124660930D01*
X179647000Y-124126321D01*
X179647000Y-123035679D01*
X179540660Y-122501070D01*
X179237828Y-122047851D01*
X178784609Y-121745019D01*
X178250000Y-121638679D01*
X177715391Y-121745019D01*
X177262172Y-122047851D01*
X176970670Y-122484113D01*
X176952059Y-122421059D01*
X176608026Y-121995370D01*
X176127277Y-121733740D01*
X176053070Y-121718780D01*
X175837000Y-121841280D01*
X175583000Y-121841280D01*
X175366930Y-121718780D01*
X175292723Y-121733740D01*
X174811974Y-121995370D01*
X174467941Y-122421059D01*
X174440000Y-122515723D01*
X174412059Y-122421059D01*
X174068026Y-121995370D01*
X173587277Y-121733740D01*
X173513070Y-121718780D01*
X173297000Y-121841280D01*
X173043000Y-121841280D01*
X172826930Y-121718780D01*
X172752723Y-121733740D01*
X172271974Y-121995370D01*
X171927941Y-122421059D01*
X171909330Y-122484113D01*
X171617828Y-122047851D01*
X171515000Y-121979143D01*
X171515000Y-121860705D01*
X171515001Y-121860700D01*
X171447633Y-121522025D01*
X171442004Y-121513600D01*
X171255790Y-121234910D01*
X171255787Y-121234908D01*
X171065000Y-121044121D01*
X171065000Y-120382873D01*
X171311098Y-120137204D01*
X171514768Y-119646713D01*
X171515231Y-119115617D01*
X171312418Y-118624771D01*
X170937204Y-118248902D01*
X170446713Y-118045232D01*
X169915617Y-118044769D01*
X169424771Y-118247582D01*
X169176921Y-118495000D01*
X168852781Y-118495000D01*
X163269239Y-112911420D01*
X163315229Y-112892418D01*
X163691098Y-112517204D01*
X163894768Y-112026713D01*
X163895231Y-111495617D01*
X163692418Y-111004771D01*
X163317204Y-110628902D01*
X162826713Y-110425232D01*
X162295617Y-110424769D01*
X161804771Y-110627582D01*
X161428902Y-111002796D01*
X161408870Y-111051038D01*
X158189264Y-107831410D01*
X158235229Y-107812418D01*
X158611098Y-107437204D01*
X158653180Y-107335860D01*
X158784821Y-107247900D01*
X163498500Y-107247900D01*
X163779772Y-107191951D01*
X164018223Y-107032623D01*
X164392663Y-106658184D01*
X164550849Y-106763880D01*
X165100000Y-106873113D01*
X165649151Y-106763880D01*
X166114698Y-106452811D01*
X166370000Y-106070725D01*
X166625302Y-106452811D01*
X166644928Y-106465925D01*
X165850277Y-107260577D01*
X165690949Y-107499028D01*
X165635000Y-107780300D01*
X165635000Y-110619224D01*
X165614771Y-110627582D01*
X165238902Y-111002796D01*
X165035232Y-111493287D01*
X165034769Y-112024383D01*
X165237582Y-112515229D01*
X165612796Y-112891098D01*
X166103287Y-113094768D01*
X166634383Y-113095231D01*
X167125229Y-112892418D01*
X167501098Y-112517204D01*
X167704768Y-112026713D01*
X167705023Y-111733846D01*
X168845000Y-111733846D01*
X168845000Y-111786154D01*
X168946621Y-112297036D01*
X169236012Y-112730142D01*
X169669118Y-113019533D01*
X170180000Y-113121154D01*
X170690882Y-113019533D01*
X171123988Y-112730142D01*
X171413379Y-112297036D01*
X171515000Y-111786154D01*
X171515000Y-111733846D01*
X171413379Y-111222964D01*
X171123988Y-110789858D01*
X170690882Y-110500467D01*
X170180000Y-110398846D01*
X169669118Y-110500467D01*
X169236012Y-110789858D01*
X168946621Y-111222964D01*
X168845000Y-111733846D01*
X167705023Y-111733846D01*
X167705231Y-111495617D01*
X167502418Y-111004771D01*
X167127204Y-110628902D01*
X167105000Y-110619682D01*
X167105000Y-108084746D01*
X168159723Y-107030024D01*
X168319051Y-106791572D01*
X168335652Y-106708113D01*
X168345315Y-106659534D01*
X168654698Y-106452811D01*
X168924986Y-106048297D01*
X169027611Y-106265134D01*
X169442577Y-106641041D01*
X169830961Y-106801904D01*
X170053000Y-106679915D01*
X170053000Y-105537000D01*
X170307000Y-105537000D01*
X170307000Y-106679915D01*
X170529039Y-106801904D01*
X170917423Y-106641041D01*
X171332389Y-106265134D01*
X171571914Y-105759041D01*
X171450629Y-105537000D01*
X170307000Y-105537000D01*
X170053000Y-105537000D01*
X170033000Y-105537000D01*
X170033000Y-105283000D01*
X170053000Y-105283000D01*
X170053000Y-104140085D01*
X170307000Y-104140085D01*
X170307000Y-105283000D01*
X171450629Y-105283000D01*
X171571914Y-105060959D01*
X171332389Y-104554866D01*
X170917423Y-104178959D01*
X170529039Y-104018096D01*
X170307000Y-104140085D01*
X170053000Y-104140085D01*
X169830961Y-104018096D01*
X169442577Y-104178959D01*
X169027611Y-104554866D01*
X168924986Y-104771703D01*
X168654698Y-104367189D01*
X168345315Y-104160466D01*
X168319051Y-104028428D01*
X168287228Y-103980801D01*
X168159723Y-103789976D01*
X167274700Y-102904954D01*
X167274700Y-99311223D01*
X174067035Y-99311223D01*
X174094222Y-99881454D01*
X174260136Y-100282005D01*
X174506255Y-100356139D01*
X175334395Y-99528000D01*
X174506255Y-98699861D01*
X174260136Y-98773995D01*
X174067035Y-99311223D01*
X167274700Y-99311223D01*
X167274700Y-99180450D01*
X167640000Y-99253113D01*
X168189151Y-99143880D01*
X168654698Y-98832811D01*
X168878776Y-98497455D01*
X168933898Y-98486491D01*
X169165302Y-98832811D01*
X169630849Y-99143880D01*
X170180000Y-99253113D01*
X170729151Y-99143880D01*
X171194698Y-98832811D01*
X171505767Y-98367264D01*
X171615000Y-97818113D01*
X171615000Y-97761887D01*
X171546437Y-97417200D01*
X174122142Y-97417200D01*
X174296757Y-97839800D01*
X174700077Y-98243824D01*
X174766544Y-98271423D01*
X174759995Y-98274136D01*
X174685861Y-98520255D01*
X175514000Y-99348395D01*
X175528143Y-99334253D01*
X175707748Y-99513858D01*
X175693605Y-99528000D01*
X175707748Y-99542143D01*
X175528143Y-99721748D01*
X175514000Y-99707605D01*
X174685861Y-100535745D01*
X174759995Y-100781864D01*
X175152285Y-100922869D01*
X173639877Y-102435277D01*
X173480549Y-102673728D01*
X173424600Y-102955000D01*
X173424600Y-112226800D01*
X173466820Y-112439051D01*
X173480549Y-112508072D01*
X173639877Y-112746523D01*
X174207347Y-113313993D01*
X173934233Y-113722736D01*
X173825000Y-114271887D01*
X173825000Y-114328113D01*
X173934233Y-114877264D01*
X174245302Y-115342811D01*
X174585314Y-115570000D01*
X174245302Y-115797189D01*
X173934233Y-116262736D01*
X173825000Y-116811887D01*
X173825000Y-116868113D01*
X173934233Y-117417264D01*
X174245302Y-117882811D01*
X174585314Y-118110000D01*
X174245302Y-118337189D01*
X173934233Y-118802736D01*
X173825000Y-119351887D01*
X173825000Y-119408113D01*
X173934233Y-119957264D01*
X174245302Y-120422811D01*
X174710849Y-120733880D01*
X175260000Y-120843113D01*
X175809151Y-120733880D01*
X176274698Y-120422811D01*
X176585767Y-119957264D01*
X176695000Y-119408113D01*
X176695000Y-119351887D01*
X176585767Y-118802736D01*
X176274698Y-118337189D01*
X175934686Y-118110000D01*
X176274698Y-117882811D01*
X176585767Y-117417264D01*
X176695000Y-116868113D01*
X176695000Y-116811887D01*
X176585767Y-116262736D01*
X176274698Y-115797189D01*
X175934686Y-115570000D01*
X176274698Y-115342811D01*
X176509524Y-114991370D01*
X177641700Y-116123547D01*
X177641700Y-116478200D01*
X177670864Y-116624816D01*
X177697649Y-116759472D01*
X177856977Y-116997923D01*
X179273608Y-118414555D01*
X179014233Y-118802736D01*
X178905000Y-119351887D01*
X178905000Y-119408113D01*
X179014233Y-119957264D01*
X179325302Y-120422811D01*
X179790849Y-120733880D01*
X180340000Y-120843113D01*
X180889151Y-120733880D01*
X181354698Y-120422811D01*
X181665767Y-119957264D01*
X181775000Y-119408113D01*
X181775000Y-119351887D01*
X181676488Y-118856634D01*
X184876377Y-122056524D01*
X184600000Y-122470150D01*
X184317828Y-122047851D01*
X183864609Y-121745019D01*
X183330000Y-121638679D01*
X182795391Y-121745019D01*
X182342172Y-122047851D01*
X182039340Y-122501070D01*
X181933000Y-123035679D01*
X181933000Y-124126321D01*
X182039340Y-124660930D01*
X182342172Y-125114149D01*
X182795391Y-125416981D01*
X183330000Y-125523321D01*
X183864609Y-125416981D01*
X184317828Y-125114149D01*
X184600000Y-124691850D01*
X184882172Y-125114149D01*
X185335391Y-125416981D01*
X185870000Y-125523321D01*
X186404609Y-125416981D01*
X186857828Y-125114149D01*
X187140000Y-124691850D01*
X187422172Y-125114149D01*
X187875391Y-125416981D01*
X188410000Y-125523321D01*
X188944609Y-125416981D01*
X189397828Y-125114149D01*
X189680000Y-124691850D01*
X189962172Y-125114149D01*
X190415391Y-125416981D01*
X190950000Y-125523321D01*
X191484609Y-125416981D01*
X191937828Y-125114149D01*
X192220000Y-124691850D01*
X192502172Y-125114149D01*
X192955391Y-125416981D01*
X193490000Y-125523321D01*
X194024609Y-125416981D01*
X194477828Y-125114149D01*
X194760000Y-124691850D01*
X195042172Y-125114149D01*
X195495391Y-125416981D01*
X196030000Y-125523321D01*
X196564609Y-125416981D01*
X197017828Y-125114149D01*
X197320660Y-124660930D01*
X197427000Y-124126321D01*
X197427000Y-123035679D01*
X197320660Y-122501070D01*
X197017828Y-122047851D01*
X196564609Y-121745019D01*
X196030000Y-121638679D01*
X195495391Y-121745019D01*
X195042172Y-122047851D01*
X194760000Y-122470150D01*
X194477828Y-122047851D01*
X194024609Y-121745019D01*
X193490000Y-121638679D01*
X192955391Y-121745019D01*
X192502172Y-122047851D01*
X192220000Y-122470150D01*
X191937828Y-122047851D01*
X191654768Y-121858716D01*
X191629051Y-121729428D01*
X191621936Y-121718780D01*
X191469724Y-121490977D01*
X188839023Y-118860277D01*
X188600572Y-118700949D01*
X188319300Y-118645000D01*
X186649699Y-118645000D01*
X186462811Y-118365302D01*
X186116491Y-118133898D01*
X186127455Y-118078776D01*
X186462811Y-117854698D01*
X186773880Y-117389151D01*
X186883113Y-116840000D01*
X186773880Y-116290849D01*
X186670346Y-116135900D01*
X190838800Y-116135900D01*
X191120072Y-116079951D01*
X191358523Y-115920623D01*
X191984075Y-115295072D01*
X191997189Y-115314698D01*
X192379275Y-115570000D01*
X191997189Y-115825302D01*
X191686120Y-116290849D01*
X191576887Y-116840000D01*
X191686120Y-117389151D01*
X191997189Y-117854698D01*
X192379275Y-118110000D01*
X191997189Y-118365302D01*
X191686120Y-118830849D01*
X191576887Y-119380000D01*
X191686120Y-119929151D01*
X191997189Y-120394698D01*
X192462736Y-120705767D01*
X193011887Y-120815000D01*
X193068113Y-120815000D01*
X193617264Y-120705767D01*
X194082811Y-120394698D01*
X194393880Y-119929151D01*
X194503113Y-119380000D01*
X194393880Y-118830849D01*
X194082811Y-118365302D01*
X193700725Y-118110000D01*
X194082811Y-117854698D01*
X194393880Y-117389151D01*
X194503113Y-116840000D01*
X194393880Y-116290849D01*
X194082811Y-115825302D01*
X193700725Y-115570000D01*
X194082811Y-115314698D01*
X194393880Y-114849151D01*
X194503113Y-114300000D01*
X194393880Y-113750849D01*
X194082811Y-113285302D01*
X193700725Y-113030000D01*
X194082811Y-112774698D01*
X194393880Y-112309151D01*
X194503113Y-111760000D01*
X194393880Y-111210849D01*
X194082811Y-110745302D01*
X193700725Y-110490000D01*
X194082811Y-110234698D01*
X194393880Y-109769151D01*
X194503113Y-109220000D01*
X194393880Y-108670849D01*
X194082811Y-108205302D01*
X193700725Y-107950000D01*
X194082811Y-107694698D01*
X194393880Y-107229151D01*
X194503113Y-106680000D01*
X194393880Y-106130849D01*
X194082811Y-105665302D01*
X193700725Y-105410000D01*
X194082811Y-105154698D01*
X194393880Y-104689151D01*
X194503113Y-104140000D01*
X194393880Y-103590849D01*
X194082811Y-103125302D01*
X193700725Y-102870000D01*
X194082811Y-102614698D01*
X194393880Y-102149151D01*
X194503113Y-101600000D01*
X194393880Y-101050849D01*
X194082811Y-100585302D01*
X193700725Y-100330000D01*
X194082811Y-100074698D01*
X194393880Y-99609151D01*
X194503113Y-99060000D01*
X194393880Y-98510849D01*
X194082811Y-98045302D01*
X193700725Y-97790000D01*
X194082811Y-97534698D01*
X194393880Y-97069151D01*
X194503113Y-96520000D01*
X194393880Y-95970849D01*
X194082811Y-95505302D01*
X193617264Y-95194233D01*
X193068113Y-95085000D01*
X193011887Y-95085000D01*
X192462736Y-95194233D01*
X191997189Y-95505302D01*
X191686120Y-95970849D01*
X191576887Y-96520000D01*
X191686120Y-97069151D01*
X191997189Y-97534698D01*
X192379275Y-97790000D01*
X191997189Y-98045302D01*
X191686120Y-98510849D01*
X191576887Y-99060000D01*
X191686120Y-99609151D01*
X191997189Y-100074698D01*
X192379275Y-100330000D01*
X191997189Y-100585302D01*
X191686120Y-101050849D01*
X191576887Y-101600000D01*
X191686120Y-102149151D01*
X191997189Y-102614698D01*
X192379275Y-102870000D01*
X191997189Y-103125302D01*
X191686120Y-103590849D01*
X191576887Y-104140000D01*
X191686120Y-104689151D01*
X191997189Y-105154698D01*
X192379275Y-105410000D01*
X191997189Y-105665302D01*
X191686120Y-106130849D01*
X191576887Y-106680000D01*
X191686120Y-107229151D01*
X191997189Y-107694698D01*
X192379275Y-107950000D01*
X191997189Y-108205302D01*
X191686120Y-108670849D01*
X191576887Y-109220000D01*
X191686120Y-109769151D01*
X191997189Y-110234698D01*
X192379275Y-110490000D01*
X191997189Y-110745302D01*
X191790466Y-111054685D01*
X191746205Y-111063489D01*
X191658427Y-111080949D01*
X191419976Y-111240277D01*
X190532054Y-112128200D01*
X186809873Y-112128200D01*
X186883113Y-111760000D01*
X186773880Y-111210849D01*
X186462811Y-110745302D01*
X186127455Y-110521224D01*
X186116491Y-110466102D01*
X186462811Y-110234698D01*
X186773880Y-109769151D01*
X186883113Y-109220000D01*
X186773880Y-108670849D01*
X186462811Y-108205302D01*
X186127455Y-107981224D01*
X186116491Y-107926102D01*
X186462811Y-107694698D01*
X186773880Y-107229151D01*
X186883113Y-106680000D01*
X186773880Y-106130849D01*
X186462811Y-105665302D01*
X186127455Y-105441224D01*
X186116491Y-105386102D01*
X186462811Y-105154698D01*
X186773880Y-104689151D01*
X186883113Y-104140000D01*
X186773880Y-103590849D01*
X186462811Y-103125302D01*
X186127455Y-102901224D01*
X186116491Y-102846102D01*
X186462811Y-102614698D01*
X186773880Y-102149151D01*
X186883113Y-101600000D01*
X186773880Y-101050849D01*
X186462811Y-100585302D01*
X186127455Y-100361224D01*
X186116491Y-100306102D01*
X186462811Y-100074698D01*
X186773880Y-99609151D01*
X186883113Y-99060000D01*
X186773880Y-98510849D01*
X186668183Y-98352663D01*
X187040024Y-97980823D01*
X187199351Y-97742372D01*
X187212658Y-97675474D01*
X187255300Y-97461100D01*
X187255300Y-79085446D01*
X188929723Y-77411024D01*
X189089051Y-77172572D01*
X189092152Y-77156981D01*
X189114768Y-77043284D01*
X189397828Y-76854149D01*
X189680000Y-76431850D01*
X189956377Y-76845476D01*
X187648977Y-79152877D01*
X187489649Y-79391328D01*
X187433700Y-79672600D01*
X187433700Y-89964500D01*
X187473717Y-90165677D01*
X187489649Y-90245772D01*
X187648977Y-90484223D01*
X187854596Y-90689842D01*
X187854421Y-90890371D01*
X188011658Y-91270915D01*
X188302554Y-91562319D01*
X188682823Y-91720220D01*
X189094571Y-91720579D01*
X189475115Y-91563342D01*
X189766519Y-91272446D01*
X189924420Y-90892177D01*
X189924779Y-90480429D01*
X189775476Y-90119086D01*
X189985229Y-90032418D01*
X190361098Y-89657204D01*
X190564768Y-89166713D01*
X190564770Y-89164383D01*
X191704769Y-89164383D01*
X191907582Y-89655229D01*
X192282796Y-90031098D01*
X192773287Y-90234768D01*
X193304383Y-90235231D01*
X193795229Y-90032418D01*
X194171098Y-89657204D01*
X194374768Y-89166713D01*
X194375231Y-88635617D01*
X194172418Y-88144771D01*
X193797204Y-87768902D01*
X193306713Y-87565232D01*
X192775617Y-87564769D01*
X192284771Y-87767582D01*
X191908902Y-88142796D01*
X191705232Y-88633287D01*
X191704769Y-89164383D01*
X190564770Y-89164383D01*
X190565231Y-88635617D01*
X190362418Y-88144771D01*
X189987204Y-87768902D01*
X189496713Y-87565232D01*
X188965617Y-87564769D01*
X188903700Y-87590353D01*
X188903700Y-82576249D01*
X189230000Y-82641154D01*
X189740882Y-82539533D01*
X190173988Y-82250142D01*
X190463379Y-81817036D01*
X190565000Y-81306154D01*
X190565000Y-81253846D01*
X191705000Y-81253846D01*
X191705000Y-81306154D01*
X191806621Y-81817036D01*
X192096012Y-82250142D01*
X192529118Y-82539533D01*
X193040000Y-82641154D01*
X193550882Y-82539533D01*
X193983988Y-82250142D01*
X194273379Y-81817036D01*
X194375000Y-81306154D01*
X194375000Y-81253846D01*
X194273379Y-80742964D01*
X193983988Y-80309858D01*
X193550882Y-80020467D01*
X193040000Y-79918846D01*
X192529118Y-80020467D01*
X192096012Y-80309858D01*
X191806621Y-80742964D01*
X191705000Y-81253846D01*
X190565000Y-81253846D01*
X190463379Y-80742964D01*
X190173988Y-80309858D01*
X189740882Y-80020467D01*
X189230000Y-79918846D01*
X188903700Y-79983751D01*
X188903700Y-79977046D01*
X191469723Y-77411024D01*
X191629051Y-77172572D01*
X191632152Y-77156981D01*
X191654768Y-77043284D01*
X191937828Y-76854149D01*
X192220000Y-76431850D01*
X192502172Y-76854149D01*
X192955391Y-77156981D01*
X193490000Y-77263321D01*
X194024609Y-77156981D01*
X194477828Y-76854149D01*
X194760000Y-76431850D01*
X195042172Y-76854149D01*
X195495391Y-77156981D01*
X196030000Y-77263321D01*
X196564609Y-77156981D01*
X197017828Y-76854149D01*
X197320660Y-76400930D01*
X197427000Y-75866321D01*
X197427000Y-74775679D01*
X197320660Y-74241070D01*
X197017828Y-73787851D01*
X196564609Y-73485019D01*
X196030000Y-73378679D01*
X195495391Y-73485019D01*
X195042172Y-73787851D01*
X194760000Y-74210150D01*
X194477828Y-73787851D01*
X194024609Y-73485019D01*
X193490000Y-73378679D01*
X192955391Y-73485019D01*
X192502172Y-73787851D01*
X192220000Y-74210150D01*
X191937828Y-73787851D01*
X191484609Y-73485019D01*
X190950000Y-73378679D01*
X190415391Y-73485019D01*
X189962172Y-73787851D01*
X189680000Y-74210150D01*
X189397828Y-73787851D01*
X188944609Y-73485019D01*
X188410000Y-73378679D01*
X187875391Y-73485019D01*
X187422172Y-73787851D01*
X187140000Y-74210150D01*
X186857828Y-73787851D01*
X186404609Y-73485019D01*
X185870000Y-73378679D01*
X185335391Y-73485019D01*
X184882172Y-73787851D01*
X184600000Y-74210150D01*
X184317828Y-73787851D01*
X183864609Y-73485019D01*
X183330000Y-73378679D01*
X182795391Y-73485019D01*
X182342172Y-73787851D01*
X182060000Y-74210150D01*
X181777828Y-73787851D01*
X181324609Y-73485019D01*
X180790000Y-73378679D01*
X180255391Y-73485019D01*
X179802172Y-73787851D01*
X179520000Y-74210150D01*
X179237828Y-73787851D01*
X178784609Y-73485019D01*
X178250000Y-73378679D01*
X177715391Y-73485019D01*
X177262172Y-73787851D01*
X176959340Y-74241070D01*
X176853000Y-74775679D01*
X176853000Y-75866321D01*
X176959340Y-76400930D01*
X177262172Y-76854149D01*
X177545232Y-77043284D01*
X177567848Y-77156981D01*
X177570949Y-77172572D01*
X177730277Y-77411023D01*
X180169963Y-79850709D01*
X179790849Y-79926120D01*
X179325302Y-80237189D01*
X179070000Y-80619275D01*
X178814698Y-80237189D01*
X178349151Y-79926120D01*
X177800000Y-79816887D01*
X177265000Y-79923305D01*
X177265000Y-79235300D01*
X177209051Y-78954028D01*
X177150567Y-78866500D01*
X177049724Y-78715577D01*
X175179623Y-76845477D01*
X175476660Y-76400930D01*
X175583000Y-75866321D01*
X175583000Y-74775679D01*
X175476660Y-74241070D01*
X175173828Y-73787851D01*
X174720609Y-73485019D01*
X174186000Y-73378679D01*
X173651391Y-73485019D01*
X173198172Y-73787851D01*
X172916000Y-74210150D01*
X172633828Y-73787851D01*
X172180609Y-73485019D01*
X171646000Y-73378679D01*
X171111391Y-73485019D01*
X170658172Y-73787851D01*
X170376000Y-74210150D01*
X170093828Y-73787851D01*
X169640609Y-73485019D01*
X169106000Y-73378679D01*
X168571391Y-73485019D01*
X168118172Y-73787851D01*
X167836000Y-74210150D01*
X167553828Y-73787851D01*
X167100609Y-73485019D01*
X166566000Y-73378679D01*
X166031391Y-73485019D01*
X165578172Y-73787851D01*
X165296000Y-74210150D01*
X165013828Y-73787851D01*
X164560609Y-73485019D01*
X164026000Y-73378679D01*
X163491391Y-73485019D01*
X163038172Y-73787851D01*
X162756000Y-74210150D01*
X162473828Y-73787851D01*
X162020609Y-73485019D01*
X161486000Y-73378679D01*
X160951391Y-73485019D01*
X160498172Y-73787851D01*
X160216000Y-74210150D01*
X159933828Y-73787851D01*
X159480609Y-73485019D01*
X158946000Y-73378679D01*
X158411391Y-73485019D01*
X157958172Y-73787851D01*
X157676000Y-74210150D01*
X157393828Y-73787851D01*
X156940609Y-73485019D01*
X156406000Y-73378679D01*
X155871391Y-73485019D01*
X155418172Y-73787851D01*
X155115340Y-74241070D01*
X155009000Y-74775679D01*
X155009000Y-75866321D01*
X155115340Y-76400930D01*
X155418172Y-76854149D01*
X155871391Y-77156981D01*
X156406000Y-77263321D01*
X156940609Y-77156981D01*
X157393828Y-76854149D01*
X157676000Y-76431850D01*
X157958172Y-76854149D01*
X158411391Y-77156981D01*
X158946000Y-77263321D01*
X159480609Y-77156981D01*
X159933828Y-76854149D01*
X160216000Y-76431850D01*
X160498172Y-76854149D01*
X160951391Y-77156981D01*
X161486000Y-77263321D01*
X162020609Y-77156981D01*
X162473828Y-76854149D01*
X162756000Y-76431850D01*
X163038172Y-76854149D01*
X163491391Y-77156981D01*
X164026000Y-77263321D01*
X164560609Y-77156981D01*
X165013828Y-76854149D01*
X165296000Y-76431850D01*
X165578172Y-76854149D01*
X166031391Y-77156981D01*
X166566000Y-77263321D01*
X167100609Y-77156981D01*
X167553828Y-76854149D01*
X167836000Y-76431850D01*
X168118172Y-76854149D01*
X168571391Y-77156981D01*
X169106000Y-77263321D01*
X169640609Y-77156981D01*
X170093828Y-76854149D01*
X170376000Y-76431850D01*
X170658172Y-76854149D01*
X171111391Y-77156981D01*
X171646000Y-77263321D01*
X172180609Y-77156981D01*
X172633828Y-76854149D01*
X172916000Y-76431850D01*
X173198172Y-76854149D01*
X173481232Y-77043284D01*
X173503848Y-77156981D01*
X173506949Y-77172572D01*
X173666277Y-77411023D01*
X175795000Y-79539747D01*
X175795000Y-79923305D01*
X175260000Y-79816887D01*
X174710849Y-79926120D01*
X174245302Y-80237189D01*
X173990000Y-80619275D01*
X173734698Y-80237189D01*
X173269151Y-79926120D01*
X172720000Y-79816887D01*
X172170849Y-79926120D01*
X171705302Y-80237189D01*
X171450000Y-80619275D01*
X171194698Y-80237189D01*
X170729151Y-79926120D01*
X170180000Y-79816887D01*
X169630849Y-79926120D01*
X169165302Y-80237189D01*
X168910000Y-80619275D01*
X168654698Y-80237189D01*
X168189151Y-79926120D01*
X167640000Y-79816887D01*
X167090849Y-79926120D01*
X166625302Y-80237189D01*
X166370000Y-80619275D01*
X166114698Y-80237189D01*
X165649151Y-79926120D01*
X165100000Y-79816887D01*
X164550849Y-79926120D01*
X164085302Y-80237189D01*
X163774233Y-80702736D01*
X163665000Y-81251887D01*
X163665000Y-81308113D01*
X163741264Y-81691518D01*
X162810023Y-80760277D01*
X162571572Y-80600949D01*
X162406556Y-80568125D01*
X162233988Y-80309858D01*
X161800882Y-80020467D01*
X161290000Y-79918846D01*
X160779118Y-80020467D01*
X160346012Y-80309858D01*
X160056621Y-80742964D01*
X159955000Y-81253846D01*
X159955000Y-81306154D01*
X160056621Y-81817036D01*
X160346012Y-82250142D01*
X160779118Y-82539533D01*
X161290000Y-82641154D01*
X161800882Y-82539533D01*
X162226200Y-82255346D01*
X167446275Y-87475421D01*
X167090849Y-87546120D01*
X166968990Y-87627543D01*
X166621323Y-87279877D01*
X166382872Y-87120549D01*
X166101600Y-87064600D01*
X162390400Y-87064600D01*
X162109128Y-87120549D01*
X161870677Y-87279876D01*
X161576927Y-87573626D01*
X161556713Y-87565232D01*
X161025617Y-87564769D01*
X160534771Y-87767582D01*
X160158902Y-88142796D01*
X160155403Y-88151223D01*
X158365000Y-86360820D01*
X158365000Y-82282873D01*
X158611098Y-82037204D01*
X158814768Y-81546713D01*
X158815231Y-81015617D01*
X158612418Y-80524771D01*
X158237204Y-80148902D01*
X157746713Y-79945232D01*
X157215617Y-79944769D01*
X156724771Y-80147582D01*
X156348902Y-80522796D01*
X156145232Y-81013287D01*
X156144769Y-81544383D01*
X156347582Y-82035229D01*
X156595000Y-82283079D01*
X156595000Y-86727395D01*
X156594999Y-86727400D01*
X156651190Y-87009884D01*
X156662367Y-87066075D01*
X156805224Y-87279877D01*
X156854210Y-87353190D01*
X157112889Y-87611869D01*
X156969118Y-87640467D01*
X156536012Y-87929858D01*
X156246621Y-88362964D01*
X156145000Y-88873846D01*
X156145000Y-88926154D01*
X156246621Y-89437036D01*
X156536012Y-89870142D01*
X156969118Y-90159533D01*
X157480000Y-90261154D01*
X157990882Y-90159533D01*
X158423988Y-89870142D01*
X158713379Y-89437036D01*
X158750655Y-89249635D01*
X160833801Y-91332780D01*
X160535995Y-91456136D01*
X160461861Y-91702255D01*
X161290000Y-92530395D01*
X161304143Y-92516253D01*
X161483748Y-92695858D01*
X161469605Y-92710000D01*
X162297745Y-93538139D01*
X162543864Y-93464005D01*
X162546196Y-93457517D01*
X162572757Y-93521800D01*
X162976077Y-93925824D01*
X163503309Y-94144750D01*
X164074187Y-94145248D01*
X164365000Y-94025087D01*
X164365000Y-94104053D01*
X163140577Y-95328477D01*
X162981249Y-95566928D01*
X162925300Y-95848200D01*
X162925300Y-96399550D01*
X162560000Y-96326887D01*
X162010849Y-96436120D01*
X161545302Y-96747189D01*
X161439856Y-96905000D01*
X161309705Y-96905000D01*
X161309700Y-96904999D01*
X161027216Y-96961190D01*
X160971025Y-96972367D01*
X160683910Y-97164210D01*
X160683908Y-97164213D01*
X158815000Y-99033121D01*
X158815000Y-98932998D01*
X158649375Y-98932998D01*
X158772716Y-98726671D01*
X158629797Y-98381604D01*
X158282663Y-97993236D01*
X157813331Y-97767273D01*
X157607000Y-97889794D01*
X157607000Y-98933000D01*
X157627000Y-98933000D01*
X157627000Y-99187000D01*
X157607000Y-99187000D01*
X157607000Y-99207000D01*
X157353000Y-99207000D01*
X157353000Y-99187000D01*
X156310626Y-99187000D01*
X156187284Y-99393329D01*
X156330203Y-99738396D01*
X156677337Y-100126764D01*
X157073443Y-100317472D01*
X157040910Y-100339210D01*
X157040908Y-100339213D01*
X153868983Y-103511137D01*
X152601992Y-102244213D01*
X152601990Y-102244210D01*
X152601987Y-102244208D01*
X152601973Y-102244194D01*
X152459723Y-102149151D01*
X152314875Y-102052367D01*
X152314863Y-102052365D01*
X152314853Y-102052358D01*
X152123851Y-102014370D01*
X151976200Y-101985000D01*
X151976182Y-101985000D01*
X151976177Y-101984999D01*
X151976172Y-101985000D01*
X150862873Y-101985000D01*
X150617204Y-101738902D01*
X150126713Y-101535232D01*
X149776506Y-101534927D01*
X149577800Y-101336220D01*
X149577800Y-100388337D01*
X149593287Y-100394768D01*
X150124383Y-100395231D01*
X150615229Y-100192418D01*
X150991098Y-99817204D01*
X151000318Y-99795000D01*
X152669700Y-99795000D01*
X152950972Y-99739051D01*
X153189423Y-99579723D01*
X154042475Y-98726671D01*
X156187284Y-98726671D01*
X156310626Y-98933000D01*
X157353000Y-98933000D01*
X157353000Y-97889794D01*
X157146669Y-97767273D01*
X156677337Y-97993236D01*
X156330203Y-98381604D01*
X156187284Y-98726671D01*
X154042475Y-98726671D01*
X156549003Y-96220144D01*
X156942964Y-96483379D01*
X157453846Y-96585000D01*
X157506154Y-96585000D01*
X158017036Y-96483379D01*
X158450142Y-96193988D01*
X158739533Y-95760882D01*
X158841154Y-95250000D01*
X158739533Y-94739118D01*
X158450142Y-94306012D01*
X158017036Y-94016621D01*
X157506154Y-93915000D01*
X157453846Y-93915000D01*
X156942964Y-94016621D01*
X156509858Y-94306012D01*
X156353435Y-94540116D01*
X156198428Y-94570949D01*
X155959977Y-94730276D01*
X152365254Y-98325000D01*
X151000776Y-98325000D01*
X150992418Y-98304771D01*
X150617204Y-97928902D01*
X150126713Y-97725232D01*
X149595617Y-97724769D01*
X149577800Y-97732131D01*
X149577800Y-96783780D01*
X149776652Y-96584928D01*
X150124383Y-96585231D01*
X150615229Y-96382418D01*
X150991098Y-96007204D01*
X151194768Y-95516713D01*
X151195231Y-94985617D01*
X150992418Y-94494771D01*
X150617204Y-94118902D01*
X150126713Y-93915232D01*
X149595617Y-93914769D01*
X149104771Y-94117582D01*
X148728902Y-94492796D01*
X148525232Y-94983287D01*
X148524927Y-95333494D01*
X148067010Y-95791410D01*
X147875167Y-96078525D01*
X147875167Y-96078526D01*
X147807799Y-96417200D01*
X147807800Y-96417205D01*
X147807800Y-100817800D01*
X147217205Y-100817800D01*
X147217200Y-100817799D01*
X146934716Y-100873990D01*
X146878525Y-100885167D01*
X146591410Y-101077010D01*
X146591408Y-101077013D01*
X146133348Y-101535072D01*
X145785617Y-101534769D01*
X145294771Y-101737582D01*
X144918902Y-102112796D01*
X144715232Y-102603287D01*
X144714769Y-103134383D01*
X144917582Y-103625229D01*
X145292796Y-104001098D01*
X145783287Y-104204768D01*
X146314383Y-104205231D01*
X146805229Y-104002418D01*
X147181098Y-103627204D01*
X147384768Y-103136713D01*
X147385073Y-102786506D01*
X147583779Y-102587800D01*
X148326220Y-102587800D01*
X148525072Y-102786652D01*
X148524769Y-103134383D01*
X148727582Y-103625229D01*
X149102796Y-104001098D01*
X149593287Y-104204768D01*
X150124383Y-104205231D01*
X150615229Y-104002418D01*
X150863079Y-103755000D01*
X151609635Y-103755000D01*
X153243208Y-105388487D01*
X153243210Y-105388490D01*
X153243213Y-105388492D01*
X158335902Y-110481215D01*
X158239118Y-110500467D01*
X157806012Y-110789858D01*
X157749122Y-110875000D01*
X157599705Y-110875000D01*
X157599700Y-110874999D01*
X157317216Y-110931190D01*
X157261025Y-110942367D01*
X156973910Y-111134210D01*
X156973908Y-111134213D01*
X156263338Y-111844782D01*
X156275000Y-111786154D01*
X156275000Y-111733846D01*
X156173379Y-111222964D01*
X155883988Y-110789858D01*
X155450882Y-110500467D01*
X154940000Y-110398846D01*
X154429118Y-110500467D01*
X153996012Y-110789858D01*
X153706621Y-111222964D01*
X153605000Y-111733846D01*
X153605000Y-111786154D01*
X153653236Y-112028653D01*
X153387616Y-112081490D01*
X153331425Y-112092667D01*
X153044310Y-112284510D01*
X153044308Y-112284513D01*
X147895200Y-117433621D01*
X142485963Y-112024383D01*
X145984769Y-112024383D01*
X146187582Y-112515229D01*
X146562796Y-112891098D01*
X147053287Y-113094768D01*
X147584383Y-113095231D01*
X148075229Y-112892418D01*
X148451098Y-112517204D01*
X148654768Y-112026713D01*
X148655023Y-111733846D01*
X149795000Y-111733846D01*
X149795000Y-111786154D01*
X149896621Y-112297036D01*
X150186012Y-112730142D01*
X150619118Y-113019533D01*
X151130000Y-113121154D01*
X151640882Y-113019533D01*
X152073988Y-112730142D01*
X152363379Y-112297036D01*
X152465000Y-111786154D01*
X152465000Y-111733846D01*
X152363379Y-111222964D01*
X152073988Y-110789858D01*
X151640882Y-110500467D01*
X151130000Y-110398846D01*
X150619118Y-110500467D01*
X150186012Y-110789858D01*
X149896621Y-111222964D01*
X149795000Y-111733846D01*
X148655023Y-111733846D01*
X148655231Y-111495617D01*
X148452418Y-111004771D01*
X148077204Y-110628902D01*
X147586713Y-110425232D01*
X147055617Y-110424769D01*
X146564771Y-110627582D01*
X146188902Y-111002796D01*
X145985232Y-111493287D01*
X145984769Y-112024383D01*
X142485963Y-112024383D01*
X141311711Y-110850131D01*
X141383345Y-110490000D01*
X141269271Y-109916511D01*
X140944415Y-109430330D01*
X140458234Y-109105474D01*
X139884745Y-108991400D01*
X139515255Y-108991400D01*
X138941766Y-109105474D01*
X138455585Y-109430330D01*
X138270800Y-109706880D01*
X138270800Y-107013329D01*
X148567284Y-107013329D01*
X148710203Y-107358396D01*
X149057337Y-107746764D01*
X149526669Y-107972727D01*
X149733000Y-107850206D01*
X149733000Y-106807000D01*
X149987000Y-106807000D01*
X149987000Y-107850206D01*
X150193331Y-107972727D01*
X150662663Y-107746764D01*
X151009797Y-107358396D01*
X151152716Y-107013329D01*
X151029374Y-106807000D01*
X149987000Y-106807000D01*
X149733000Y-106807000D01*
X148690626Y-106807000D01*
X148567284Y-107013329D01*
X138270800Y-107013329D01*
X138270800Y-106346671D01*
X148567284Y-106346671D01*
X148690626Y-106553000D01*
X149733000Y-106553000D01*
X149733000Y-105509794D01*
X149987000Y-105509794D01*
X149987000Y-106553000D01*
X151029374Y-106553000D01*
X151152716Y-106346671D01*
X151009797Y-106001604D01*
X150662663Y-105613236D01*
X150193331Y-105387273D01*
X149987000Y-105509794D01*
X149733000Y-105509794D01*
X149526669Y-105387273D01*
X149057337Y-105613236D01*
X148710203Y-106001604D01*
X148567284Y-106346671D01*
X138270800Y-106346671D01*
X138270800Y-103095805D01*
X138270801Y-103095800D01*
X138203433Y-102757126D01*
X138203433Y-102757125D01*
X138011590Y-102470010D01*
X138011587Y-102470008D01*
X137501710Y-101960131D01*
X137573345Y-101600000D01*
X137459271Y-101026511D01*
X137134415Y-100540330D01*
X136819634Y-100330000D01*
X137134415Y-100119670D01*
X137459271Y-99633489D01*
X137573345Y-99060000D01*
X137459271Y-98486511D01*
X137134415Y-98000330D01*
X137112220Y-97985500D01*
X137265698Y-97921927D01*
X137444327Y-97743299D01*
X137541000Y-97509910D01*
X137541000Y-96805750D01*
X137382250Y-96647000D01*
X136017000Y-96647000D01*
X136017000Y-96667000D01*
X135763000Y-96667000D01*
X135763000Y-96647000D01*
X134397750Y-96647000D01*
X134239000Y-96805750D01*
X134239000Y-97509910D01*
X134335673Y-97743299D01*
X134514302Y-97921927D01*
X134667780Y-97985500D01*
X134645585Y-98000330D01*
X134320729Y-98486511D01*
X134206655Y-99060000D01*
X133019000Y-99060000D01*
X133019000Y-95530090D01*
X134239000Y-95530090D01*
X134239000Y-96234250D01*
X134397750Y-96393000D01*
X135763000Y-96393000D01*
X135763000Y-95180150D01*
X136017000Y-95180150D01*
X136017000Y-96393000D01*
X137382250Y-96393000D01*
X137541000Y-96234250D01*
X137541000Y-95530090D01*
X137444327Y-95296701D01*
X137371472Y-95223846D01*
X144715000Y-95223846D01*
X144715000Y-95276154D01*
X144816621Y-95787036D01*
X145106012Y-96220142D01*
X145539118Y-96509533D01*
X146050000Y-96611154D01*
X146560882Y-96509533D01*
X146993988Y-96220142D01*
X147283379Y-95787036D01*
X147385000Y-95276154D01*
X147385000Y-95223846D01*
X147283379Y-94712964D01*
X146993988Y-94279858D01*
X146785000Y-94140217D01*
X146785000Y-93717745D01*
X160461861Y-93717745D01*
X160535995Y-93963864D01*
X161073223Y-94156965D01*
X161643454Y-94129778D01*
X162044005Y-93963864D01*
X162118139Y-93717745D01*
X161290000Y-92889605D01*
X160461861Y-93717745D01*
X146785000Y-93717745D01*
X146785000Y-92493223D01*
X159843035Y-92493223D01*
X159870222Y-93063454D01*
X160036136Y-93464005D01*
X160282255Y-93538139D01*
X161110395Y-92710000D01*
X160282255Y-91881861D01*
X160036136Y-91955995D01*
X159843035Y-92493223D01*
X146785000Y-92493223D01*
X146785000Y-89184446D01*
X150593545Y-85375902D01*
X150783352Y-85454716D01*
X151433795Y-85455284D01*
X152034943Y-85206894D01*
X152495278Y-84747363D01*
X152744716Y-84146648D01*
X152745284Y-83496205D01*
X152496894Y-82895057D01*
X152037363Y-82434722D01*
X151436648Y-82185284D01*
X150786205Y-82184716D01*
X150185057Y-82433106D01*
X149724722Y-82892637D01*
X149475284Y-83493352D01*
X149474716Y-84143795D01*
X149554256Y-84336297D01*
X145530277Y-88360277D01*
X145370949Y-88598728D01*
X145315000Y-88880000D01*
X145315000Y-94140217D01*
X145106012Y-94279858D01*
X144816621Y-94712964D01*
X144715000Y-95223846D01*
X137371472Y-95223846D01*
X137265698Y-95118073D01*
X137032309Y-95021400D01*
X136175750Y-95021400D01*
X136017000Y-95180150D01*
X135763000Y-95180150D01*
X135604250Y-95021400D01*
X134747691Y-95021400D01*
X134514302Y-95118073D01*
X134335673Y-95296701D01*
X134239000Y-95530090D01*
X133019000Y-95530090D01*
X133019000Y-82820000D01*
X141862560Y-82820000D01*
X141862560Y-84820000D01*
X141906838Y-85055317D01*
X142045910Y-85271441D01*
X142258110Y-85416431D01*
X142510000Y-85467440D01*
X144510000Y-85467440D01*
X144745317Y-85423162D01*
X144961441Y-85284090D01*
X145106431Y-85071890D01*
X145157440Y-84820000D01*
X145157440Y-82820000D01*
X145113162Y-82584683D01*
X144974090Y-82368559D01*
X144761890Y-82223569D01*
X144510000Y-82172560D01*
X142510000Y-82172560D01*
X142274683Y-82216838D01*
X142058559Y-82355910D01*
X141913569Y-82568110D01*
X141862560Y-82820000D01*
X133019000Y-82820000D01*
X133019000Y-73329000D01*
X146771074Y-73329000D01*
X146512700Y-73435758D01*
X146512700Y-73435758D01*
G37*
X146512700Y-73435758D02*
X145886955Y-74060411D01*
X145547887Y-74876978D01*
X145547115Y-75761143D01*
X145884758Y-76578300D01*
X146509411Y-77204045D01*
X147325978Y-77543113D01*
X148210143Y-77543885D01*
X149027300Y-77206242D01*
X149653045Y-76581589D01*
X149992113Y-75765022D01*
X149992885Y-74880857D01*
X149655242Y-74063700D01*
X149030589Y-73437955D01*
X148768196Y-73329000D01*
X196820264Y-73329000D01*
X197943000Y-74451736D01*
X197943000Y-84836000D01*
X197995143Y-85098138D01*
X198143632Y-85320368D01*
X198247000Y-85423736D01*
X198247000Y-85598000D01*
X198257006Y-85647410D01*
X198284197Y-85687803D01*
X200737000Y-88140606D01*
X200737000Y-89985605D01*
X200455242Y-89303700D01*
X199830589Y-88677955D01*
X199014022Y-88338887D01*
X198129857Y-88338115D01*
X197312700Y-88675758D01*
X196686955Y-89300411D01*
X196347887Y-90116978D01*
X196347115Y-91001143D01*
X196684758Y-91818300D01*
X197309411Y-92444045D01*
X198125978Y-92783113D01*
X199010143Y-92783885D01*
X199827300Y-92446242D01*
X200453045Y-91821589D01*
X200737000Y-91137749D01*
X200737000Y-117925605D01*
X200455242Y-117243700D01*
X199830589Y-116617955D01*
X199014022Y-116278887D01*
X198129857Y-116278115D01*
X197312700Y-116615758D01*
X196686955Y-117240411D01*
X196347887Y-118056978D01*
X196347115Y-118941143D01*
X196684758Y-119758300D01*
X197309411Y-120384045D01*
X198125978Y-120723113D01*
X199010143Y-120723885D01*
X199827300Y-120386242D01*
X200453045Y-119761589D01*
X200737000Y-119077749D01*
X200737000Y-120874264D01*
X198651632Y-122959632D01*
X198503143Y-123181862D01*
X198451647Y-123440747D01*
X198284197Y-123608197D01*
X198256334Y-123650211D01*
X198247000Y-123698000D01*
X198247000Y-125553000D01*
X147547330Y-125553000D01*
X147757300Y-125466242D01*
X148383045Y-124841589D01*
X148722113Y-124025022D01*
X148722885Y-123140857D01*
X148385242Y-122323700D01*
X147760589Y-121697955D01*
X146944022Y-121358887D01*
X146059857Y-121358115D01*
X145242700Y-121695758D01*
X144616955Y-122320411D01*
X144277887Y-123136978D01*
X144277115Y-124021143D01*
X144614758Y-124838300D01*
X145239411Y-125464045D01*
X145453639Y-125553000D01*
X133019000Y-125553000D01*
X133019000Y-99060000D01*
X134206655Y-99060000D01*
X134320729Y-99633489D01*
X134645585Y-100119670D01*
X134960366Y-100330000D01*
X134645585Y-100540330D01*
X134320729Y-101026511D01*
X134206655Y-101600000D01*
X134320729Y-102173489D01*
X134645585Y-102659670D01*
X134960366Y-102870000D01*
X134645585Y-103080330D01*
X134320729Y-103566511D01*
X134206655Y-104140000D01*
X134320729Y-104713489D01*
X134645585Y-105199670D01*
X135131766Y-105524526D01*
X135705255Y-105638600D01*
X136074745Y-105638600D01*
X136500800Y-105553852D01*
X136500800Y-118335795D01*
X136500799Y-118335800D01*
X136527300Y-118469026D01*
X136568167Y-118674475D01*
X136621444Y-118754210D01*
X136760010Y-118961590D01*
X138036560Y-120238139D01*
X138036560Y-121513600D01*
X138080838Y-121748917D01*
X138219910Y-121965041D01*
X138432110Y-122110031D01*
X138684000Y-122161040D01*
X140716000Y-122161040D01*
X140951317Y-122116762D01*
X141167441Y-121977690D01*
X141312431Y-121765490D01*
X141363440Y-121513600D01*
X141363440Y-119786400D01*
X141319162Y-119551083D01*
X141180090Y-119334959D01*
X140967890Y-119189969D01*
X140873073Y-119170768D01*
X141050732Y-119012036D01*
X141304709Y-118484791D01*
X141307358Y-118469026D01*
X141186217Y-118237000D01*
X139827000Y-118237000D01*
X139827000Y-118257000D01*
X139573000Y-118257000D01*
X139573000Y-118237000D01*
X139553000Y-118237000D01*
X139553000Y-117983000D01*
X139573000Y-117983000D01*
X139573000Y-117963000D01*
X139827000Y-117963000D01*
X139827000Y-117983000D01*
X141186217Y-117983000D01*
X141307358Y-117750974D01*
X141304709Y-117735209D01*
X141050732Y-117207964D01*
X140634931Y-116836461D01*
X140944415Y-116629670D01*
X141269271Y-116143489D01*
X141383345Y-115570000D01*
X141269271Y-114996511D01*
X140944415Y-114510330D01*
X140634931Y-114303539D01*
X141050732Y-113932036D01*
X141304709Y-113404791D01*
X141307358Y-113389026D01*
X141263562Y-113305142D01*
X146372915Y-118414494D01*
X146086621Y-118842964D01*
X145985000Y-119353846D01*
X145985000Y-119406154D01*
X146086621Y-119917036D01*
X146376012Y-120350142D01*
X146809118Y-120639533D01*
X147320000Y-120741154D01*
X147830882Y-120639533D01*
X148263988Y-120350142D01*
X148472368Y-120038278D01*
X148520990Y-120005790D01*
X148712833Y-119718675D01*
X148727610Y-119644383D01*
X149794769Y-119644383D01*
X149997582Y-120135229D01*
X150372796Y-120511098D01*
X150863287Y-120714768D01*
X151394383Y-120715231D01*
X151885229Y-120512418D01*
X152261098Y-120137204D01*
X152464768Y-119646713D01*
X152464770Y-119644383D01*
X153604769Y-119644383D01*
X153807582Y-120135229D01*
X154182796Y-120511098D01*
X154673287Y-120714768D01*
X155204383Y-120715231D01*
X155695229Y-120512418D01*
X156071098Y-120137204D01*
X156274768Y-119646713D01*
X156274770Y-119644383D01*
X157414769Y-119644383D01*
X157617582Y-120135229D01*
X157992796Y-120511098D01*
X158483287Y-120714768D01*
X159014383Y-120715231D01*
X159505229Y-120512418D01*
X159881098Y-120137204D01*
X160084768Y-119646713D01*
X160085023Y-119353846D01*
X161225000Y-119353846D01*
X161225000Y-119406154D01*
X161326621Y-119917036D01*
X161616012Y-120350142D01*
X162049118Y-120639533D01*
X162560000Y-120741154D01*
X163070882Y-120639533D01*
X163503988Y-120350142D01*
X163793379Y-119917036D01*
X163833898Y-119713331D01*
X165077273Y-119713331D01*
X165303236Y-120182663D01*
X165691604Y-120529797D01*
X166036671Y-120672716D01*
X166243000Y-120549374D01*
X166243000Y-119507000D01*
X165199794Y-119507000D01*
X165077273Y-119713331D01*
X163833898Y-119713331D01*
X163895000Y-119406154D01*
X163895000Y-119353846D01*
X163793379Y-118842964D01*
X163503988Y-118409858D01*
X163070882Y-118120467D01*
X162560000Y-118018846D01*
X162049118Y-118120467D01*
X161616012Y-118409858D01*
X161326621Y-118842964D01*
X161225000Y-119353846D01*
X160085023Y-119353846D01*
X160085231Y-119115617D01*
X159882418Y-118624771D01*
X159507204Y-118248902D01*
X159016713Y-118045232D01*
X158485617Y-118044769D01*
X157994771Y-118247582D01*
X157618902Y-118622796D01*
X157415232Y-119113287D01*
X157414769Y-119644383D01*
X156274770Y-119644383D01*
X156275231Y-119115617D01*
X156072418Y-118624771D01*
X155697204Y-118248902D01*
X155206713Y-118045232D01*
X154675617Y-118044769D01*
X154184771Y-118247582D01*
X153808902Y-118622796D01*
X153605232Y-119113287D01*
X153604769Y-119644383D01*
X152464770Y-119644383D01*
X152465231Y-119115617D01*
X152262418Y-118624771D01*
X151887204Y-118248902D01*
X151396713Y-118045232D01*
X150865617Y-118044769D01*
X150374771Y-118247582D01*
X149998902Y-118622796D01*
X149795232Y-119113287D01*
X149794769Y-119644383D01*
X148727610Y-119644383D01*
X148780200Y-119380000D01*
X148780200Y-119051780D01*
X154036679Y-113795300D01*
X156449395Y-113795300D01*
X156449400Y-113795301D01*
X156731884Y-113739110D01*
X156788075Y-113727933D01*
X157075190Y-113536090D01*
X157075191Y-113536089D01*
X157851046Y-112760233D01*
X158239118Y-113019533D01*
X158750000Y-113121154D01*
X159260882Y-113019533D01*
X159693988Y-112730142D01*
X159983379Y-112297036D01*
X160011307Y-112156632D01*
X165969669Y-118115035D01*
X165691604Y-118230203D01*
X165303236Y-118577337D01*
X165077273Y-119046669D01*
X165199794Y-119253000D01*
X166243000Y-119253000D01*
X166243000Y-119233000D01*
X166497000Y-119233000D01*
X166497000Y-119253000D01*
X166517000Y-119253000D01*
X166517000Y-119507000D01*
X166497000Y-119507000D01*
X166497000Y-120549374D01*
X166703329Y-120672716D01*
X167048396Y-120529797D01*
X167436764Y-120182663D01*
X167631927Y-119777304D01*
X167860408Y-120005787D01*
X167860410Y-120005790D01*
X168099237Y-120165369D01*
X168147523Y-120197632D01*
X168147524Y-120197632D01*
X168147525Y-120197633D01*
X168240269Y-120216081D01*
X168486197Y-120265001D01*
X168486202Y-120265000D01*
X169177127Y-120265000D01*
X169295000Y-120383079D01*
X169295000Y-121410695D01*
X169294999Y-121410700D01*
X169319725Y-121535001D01*
X169362367Y-121749375D01*
X169423776Y-121841280D01*
X169554210Y-122036490D01*
X169611490Y-122093770D01*
X169360000Y-122470150D01*
X169077828Y-122047851D01*
X168624609Y-121745019D01*
X168090000Y-121638679D01*
X167555391Y-121745019D01*
X167102172Y-122047851D01*
X166820000Y-122470150D01*
X166537828Y-122047851D01*
X166084609Y-121745019D01*
X165550000Y-121638679D01*
X165015391Y-121745019D01*
X164562172Y-122047851D01*
X164259340Y-122501070D01*
X164153000Y-123035679D01*
X164153000Y-124126321D01*
X164259340Y-124660930D01*
X164562172Y-125114149D01*
X165015391Y-125416981D01*
X165550000Y-125523321D01*
X166084609Y-125416981D01*
X166537828Y-125114149D01*
X166820000Y-124691850D01*
X167102172Y-125114149D01*
X167555391Y-125416981D01*
X168090000Y-125523321D01*
X168624609Y-125416981D01*
X169077828Y-125114149D01*
X169360000Y-124691850D01*
X169642172Y-125114149D01*
X170095391Y-125416981D01*
X170630000Y-125523321D01*
X171164609Y-125416981D01*
X171617828Y-125114149D01*
X171909330Y-124677887D01*
X171927941Y-124740941D01*
X172271974Y-125166630D01*
X172752723Y-125428260D01*
X172826930Y-125443220D01*
X173043000Y-125320720D01*
X173043000Y-123708000D01*
X173297000Y-123708000D01*
X173297000Y-125320720D01*
X173513070Y-125443220D01*
X173587277Y-125428260D01*
X174068026Y-125166630D01*
X174412059Y-124740941D01*
X174440000Y-124646277D01*
X174467941Y-124740941D01*
X174811974Y-125166630D01*
X175292723Y-125428260D01*
X175366930Y-125443220D01*
X175583000Y-125320720D01*
X175583000Y-123708000D01*
X173297000Y-123708000D01*
X173043000Y-123708000D01*
X173023000Y-123708000D01*
X173023000Y-123454000D01*
X173043000Y-123454000D01*
X173043000Y-121841280D01*
X173297000Y-121841280D01*
X173297000Y-123454000D01*
X175583000Y-123454000D01*
X175583000Y-121841280D01*
X175837000Y-121841280D01*
X175837000Y-123454000D01*
X175857000Y-123454000D01*
X175857000Y-123708000D01*
X175837000Y-123708000D01*
X175837000Y-125320720D01*
X176053070Y-125443220D01*
X176127277Y-125428260D01*
X176608026Y-125166630D01*
X176952059Y-124740941D01*
X176970670Y-124677887D01*
X177262172Y-125114149D01*
X177715391Y-125416981D01*
X178250000Y-125523321D01*
X178784609Y-125416981D01*
X179237828Y-125114149D01*
X179540660Y-124660930D01*
X179647000Y-124126321D01*
X179647000Y-123035679D01*
X179540660Y-122501070D01*
X179237828Y-122047851D01*
X178784609Y-121745019D01*
X178250000Y-121638679D01*
X177715391Y-121745019D01*
X177262172Y-122047851D01*
X176970670Y-122484113D01*
X176952059Y-122421059D01*
X176608026Y-121995370D01*
X176127277Y-121733740D01*
X176053070Y-121718780D01*
X175837000Y-121841280D01*
X175583000Y-121841280D01*
X175366930Y-121718780D01*
X175292723Y-121733740D01*
X174811974Y-121995370D01*
X174467941Y-122421059D01*
X174440000Y-122515723D01*
X174412059Y-122421059D01*
X174068026Y-121995370D01*
X173587277Y-121733740D01*
X173513070Y-121718780D01*
X173297000Y-121841280D01*
X173043000Y-121841280D01*
X172826930Y-121718780D01*
X172752723Y-121733740D01*
X172271974Y-121995370D01*
X171927941Y-122421059D01*
X171909330Y-122484113D01*
X171617828Y-122047851D01*
X171515000Y-121979143D01*
X171515000Y-121860705D01*
X171515001Y-121860700D01*
X171447633Y-121522025D01*
X171442004Y-121513600D01*
X171255790Y-121234910D01*
X171255787Y-121234908D01*
X171065000Y-121044121D01*
X171065000Y-120382873D01*
X171311098Y-120137204D01*
X171514768Y-119646713D01*
X171515231Y-119115617D01*
X171312418Y-118624771D01*
X170937204Y-118248902D01*
X170446713Y-118045232D01*
X169915617Y-118044769D01*
X169424771Y-118247582D01*
X169176921Y-118495000D01*
X168852781Y-118495000D01*
X163269239Y-112911420D01*
X163315229Y-112892418D01*
X163691098Y-112517204D01*
X163894768Y-112026713D01*
X163895231Y-111495617D01*
X163692418Y-111004771D01*
X163317204Y-110628902D01*
X162826713Y-110425232D01*
X162295617Y-110424769D01*
X161804771Y-110627582D01*
X161428902Y-111002796D01*
X161408870Y-111051038D01*
X158189264Y-107831410D01*
X158235229Y-107812418D01*
X158611098Y-107437204D01*
X158653180Y-107335860D01*
X158784821Y-107247900D01*
X163498500Y-107247900D01*
X163779772Y-107191951D01*
X164018223Y-107032623D01*
X164392663Y-106658184D01*
X164550849Y-106763880D01*
X165100000Y-106873113D01*
X165649151Y-106763880D01*
X166114698Y-106452811D01*
X166370000Y-106070725D01*
X166625302Y-106452811D01*
X166644928Y-106465925D01*
X165850277Y-107260577D01*
X165690949Y-107499028D01*
X165635000Y-107780300D01*
X165635000Y-110619224D01*
X165614771Y-110627582D01*
X165238902Y-111002796D01*
X165035232Y-111493287D01*
X165034769Y-112024383D01*
X165237582Y-112515229D01*
X165612796Y-112891098D01*
X166103287Y-113094768D01*
X166634383Y-113095231D01*
X167125229Y-112892418D01*
X167501098Y-112517204D01*
X167704768Y-112026713D01*
X167705023Y-111733846D01*
X168845000Y-111733846D01*
X168845000Y-111786154D01*
X168946621Y-112297036D01*
X169236012Y-112730142D01*
X169669118Y-113019533D01*
X170180000Y-113121154D01*
X170690882Y-113019533D01*
X171123988Y-112730142D01*
X171413379Y-112297036D01*
X171515000Y-111786154D01*
X171515000Y-111733846D01*
X171413379Y-111222964D01*
X171123988Y-110789858D01*
X170690882Y-110500467D01*
X170180000Y-110398846D01*
X169669118Y-110500467D01*
X169236012Y-110789858D01*
X168946621Y-111222964D01*
X168845000Y-111733846D01*
X167705023Y-111733846D01*
X167705231Y-111495617D01*
X167502418Y-111004771D01*
X167127204Y-110628902D01*
X167105000Y-110619682D01*
X167105000Y-108084746D01*
X168159723Y-107030024D01*
X168319051Y-106791572D01*
X168335652Y-106708113D01*
X168345315Y-106659534D01*
X168654698Y-106452811D01*
X168924986Y-106048297D01*
X169027611Y-106265134D01*
X169442577Y-106641041D01*
X169830961Y-106801904D01*
X170053000Y-106679915D01*
X170053000Y-105537000D01*
X170307000Y-105537000D01*
X170307000Y-106679915D01*
X170529039Y-106801904D01*
X170917423Y-106641041D01*
X171332389Y-106265134D01*
X171571914Y-105759041D01*
X171450629Y-105537000D01*
X170307000Y-105537000D01*
X170053000Y-105537000D01*
X170033000Y-105537000D01*
X170033000Y-105283000D01*
X170053000Y-105283000D01*
X170053000Y-104140085D01*
X170307000Y-104140085D01*
X170307000Y-105283000D01*
X171450629Y-105283000D01*
X171571914Y-105060959D01*
X171332389Y-104554866D01*
X170917423Y-104178959D01*
X170529039Y-104018096D01*
X170307000Y-104140085D01*
X170053000Y-104140085D01*
X169830961Y-104018096D01*
X169442577Y-104178959D01*
X169027611Y-104554866D01*
X168924986Y-104771703D01*
X168654698Y-104367189D01*
X168345315Y-104160466D01*
X168319051Y-104028428D01*
X168287228Y-103980801D01*
X168159723Y-103789976D01*
X167274700Y-102904954D01*
X167274700Y-99311223D01*
X174067035Y-99311223D01*
X174094222Y-99881454D01*
X174260136Y-100282005D01*
X174506255Y-100356139D01*
X175334395Y-99528000D01*
X174506255Y-98699861D01*
X174260136Y-98773995D01*
X174067035Y-99311223D01*
X167274700Y-99311223D01*
X167274700Y-99180450D01*
X167640000Y-99253113D01*
X168189151Y-99143880D01*
X168654698Y-98832811D01*
X168878776Y-98497455D01*
X168933898Y-98486491D01*
X169165302Y-98832811D01*
X169630849Y-99143880D01*
X170180000Y-99253113D01*
X170729151Y-99143880D01*
X171194698Y-98832811D01*
X171505767Y-98367264D01*
X171615000Y-97818113D01*
X171615000Y-97761887D01*
X171546437Y-97417200D01*
X174122142Y-97417200D01*
X174296757Y-97839800D01*
X174700077Y-98243824D01*
X174766544Y-98271423D01*
X174759995Y-98274136D01*
X174685861Y-98520255D01*
X175514000Y-99348395D01*
X175528143Y-99334253D01*
X175707748Y-99513858D01*
X175693605Y-99528000D01*
X175707748Y-99542143D01*
X175528143Y-99721748D01*
X175514000Y-99707605D01*
X174685861Y-100535745D01*
X174759995Y-100781864D01*
X175152285Y-100922869D01*
X173639877Y-102435277D01*
X173480549Y-102673728D01*
X173424600Y-102955000D01*
X173424600Y-112226800D01*
X173466820Y-112439051D01*
X173480549Y-112508072D01*
X173639877Y-112746523D01*
X174207347Y-113313993D01*
X173934233Y-113722736D01*
X173825000Y-114271887D01*
X173825000Y-114328113D01*
X173934233Y-114877264D01*
X174245302Y-115342811D01*
X174585314Y-115570000D01*
X174245302Y-115797189D01*
X173934233Y-116262736D01*
X173825000Y-116811887D01*
X173825000Y-116868113D01*
X173934233Y-117417264D01*
X174245302Y-117882811D01*
X174585314Y-118110000D01*
X174245302Y-118337189D01*
X173934233Y-118802736D01*
X173825000Y-119351887D01*
X173825000Y-119408113D01*
X173934233Y-119957264D01*
X174245302Y-120422811D01*
X174710849Y-120733880D01*
X175260000Y-120843113D01*
X175809151Y-120733880D01*
X176274698Y-120422811D01*
X176585767Y-119957264D01*
X176695000Y-119408113D01*
X176695000Y-119351887D01*
X176585767Y-118802736D01*
X176274698Y-118337189D01*
X175934686Y-118110000D01*
X176274698Y-117882811D01*
X176585767Y-117417264D01*
X176695000Y-116868113D01*
X176695000Y-116811887D01*
X176585767Y-116262736D01*
X176274698Y-115797189D01*
X175934686Y-115570000D01*
X176274698Y-115342811D01*
X176509524Y-114991370D01*
X177641700Y-116123547D01*
X177641700Y-116478200D01*
X177670864Y-116624816D01*
X177697649Y-116759472D01*
X177856977Y-116997923D01*
X179273608Y-118414555D01*
X179014233Y-118802736D01*
X178905000Y-119351887D01*
X178905000Y-119408113D01*
X179014233Y-119957264D01*
X179325302Y-120422811D01*
X179790849Y-120733880D01*
X180340000Y-120843113D01*
X180889151Y-120733880D01*
X181354698Y-120422811D01*
X181665767Y-119957264D01*
X181775000Y-119408113D01*
X181775000Y-119351887D01*
X181676488Y-118856634D01*
X184876377Y-122056524D01*
X184600000Y-122470150D01*
X184317828Y-122047851D01*
X183864609Y-121745019D01*
X183330000Y-121638679D01*
X182795391Y-121745019D01*
X182342172Y-122047851D01*
X182039340Y-122501070D01*
X181933000Y-123035679D01*
X181933000Y-124126321D01*
X182039340Y-124660930D01*
X182342172Y-125114149D01*
X182795391Y-125416981D01*
X183330000Y-125523321D01*
X183864609Y-125416981D01*
X184317828Y-125114149D01*
X184600000Y-124691850D01*
X184882172Y-125114149D01*
X185335391Y-125416981D01*
X185870000Y-125523321D01*
X186404609Y-125416981D01*
X186857828Y-125114149D01*
X187140000Y-124691850D01*
X187422172Y-125114149D01*
X187875391Y-125416981D01*
X188410000Y-125523321D01*
X188944609Y-125416981D01*
X189397828Y-125114149D01*
X189680000Y-124691850D01*
X189962172Y-125114149D01*
X190415391Y-125416981D01*
X190950000Y-125523321D01*
X191484609Y-125416981D01*
X191937828Y-125114149D01*
X192220000Y-124691850D01*
X192502172Y-125114149D01*
X192955391Y-125416981D01*
X193490000Y-125523321D01*
X194024609Y-125416981D01*
X194477828Y-125114149D01*
X194760000Y-124691850D01*
X195042172Y-125114149D01*
X195495391Y-125416981D01*
X196030000Y-125523321D01*
X196564609Y-125416981D01*
X197017828Y-125114149D01*
X197320660Y-124660930D01*
X197427000Y-124126321D01*
X197427000Y-123035679D01*
X197320660Y-122501070D01*
X197017828Y-122047851D01*
X196564609Y-121745019D01*
X196030000Y-121638679D01*
X195495391Y-121745019D01*
X195042172Y-122047851D01*
X194760000Y-122470150D01*
X194477828Y-122047851D01*
X194024609Y-121745019D01*
X193490000Y-121638679D01*
X192955391Y-121745019D01*
X192502172Y-122047851D01*
X192220000Y-122470150D01*
X191937828Y-122047851D01*
X191654768Y-121858716D01*
X191629051Y-121729428D01*
X191621936Y-121718780D01*
X191469724Y-121490977D01*
X188839023Y-118860277D01*
X188600572Y-118700949D01*
X188319300Y-118645000D01*
X186649699Y-118645000D01*
X186462811Y-118365302D01*
X186116491Y-118133898D01*
X186127455Y-118078776D01*
X186462811Y-117854698D01*
X186773880Y-117389151D01*
X186883113Y-116840000D01*
X186773880Y-116290849D01*
X186670346Y-116135900D01*
X190838800Y-116135900D01*
X191120072Y-116079951D01*
X191358523Y-115920623D01*
X191984075Y-115295072D01*
X191997189Y-115314698D01*
X192379275Y-115570000D01*
X191997189Y-115825302D01*
X191686120Y-116290849D01*
X191576887Y-116840000D01*
X191686120Y-117389151D01*
X191997189Y-117854698D01*
X192379275Y-118110000D01*
X191997189Y-118365302D01*
X191686120Y-118830849D01*
X191576887Y-119380000D01*
X191686120Y-119929151D01*
X191997189Y-120394698D01*
X192462736Y-120705767D01*
X193011887Y-120815000D01*
X193068113Y-120815000D01*
X193617264Y-120705767D01*
X194082811Y-120394698D01*
X194393880Y-119929151D01*
X194503113Y-119380000D01*
X194393880Y-118830849D01*
X194082811Y-118365302D01*
X193700725Y-118110000D01*
X194082811Y-117854698D01*
X194393880Y-117389151D01*
X194503113Y-116840000D01*
X194393880Y-116290849D01*
X194082811Y-115825302D01*
X193700725Y-115570000D01*
X194082811Y-115314698D01*
X194393880Y-114849151D01*
X194503113Y-114300000D01*
X194393880Y-113750849D01*
X194082811Y-113285302D01*
X193700725Y-113030000D01*
X194082811Y-112774698D01*
X194393880Y-112309151D01*
X194503113Y-111760000D01*
X194393880Y-111210849D01*
X194082811Y-110745302D01*
X193700725Y-110490000D01*
X194082811Y-110234698D01*
X194393880Y-109769151D01*
X194503113Y-109220000D01*
X194393880Y-108670849D01*
X194082811Y-108205302D01*
X193700725Y-107950000D01*
X194082811Y-107694698D01*
X194393880Y-107229151D01*
X194503113Y-106680000D01*
X194393880Y-106130849D01*
X194082811Y-105665302D01*
X193700725Y-105410000D01*
X194082811Y-105154698D01*
X194393880Y-104689151D01*
X194503113Y-104140000D01*
X194393880Y-103590849D01*
X194082811Y-103125302D01*
X193700725Y-102870000D01*
X194082811Y-102614698D01*
X194393880Y-102149151D01*
X194503113Y-101600000D01*
X194393880Y-101050849D01*
X194082811Y-100585302D01*
X193700725Y-100330000D01*
X194082811Y-100074698D01*
X194393880Y-99609151D01*
X194503113Y-99060000D01*
X194393880Y-98510849D01*
X194082811Y-98045302D01*
X193700725Y-97790000D01*
X194082811Y-97534698D01*
X194393880Y-97069151D01*
X194503113Y-96520000D01*
X194393880Y-95970849D01*
X194082811Y-95505302D01*
X193617264Y-95194233D01*
X193068113Y-95085000D01*
X193011887Y-95085000D01*
X192462736Y-95194233D01*
X191997189Y-95505302D01*
X191686120Y-95970849D01*
X191576887Y-96520000D01*
X191686120Y-97069151D01*
X191997189Y-97534698D01*
X192379275Y-97790000D01*
X191997189Y-98045302D01*
X191686120Y-98510849D01*
X191576887Y-99060000D01*
X191686120Y-99609151D01*
X191997189Y-100074698D01*
X192379275Y-100330000D01*
X191997189Y-100585302D01*
X191686120Y-101050849D01*
X191576887Y-101600000D01*
X191686120Y-102149151D01*
X191997189Y-102614698D01*
X192379275Y-102870000D01*
X191997189Y-103125302D01*
X191686120Y-103590849D01*
X191576887Y-104140000D01*
X191686120Y-104689151D01*
X191997189Y-105154698D01*
X192379275Y-105410000D01*
X191997189Y-105665302D01*
X191686120Y-106130849D01*
X191576887Y-106680000D01*
X191686120Y-107229151D01*
X191997189Y-107694698D01*
X192379275Y-107950000D01*
X191997189Y-108205302D01*
X191686120Y-108670849D01*
X191576887Y-109220000D01*
X191686120Y-109769151D01*
X191997189Y-110234698D01*
X192379275Y-110490000D01*
X191997189Y-110745302D01*
X191790466Y-111054685D01*
X191746205Y-111063489D01*
X191658427Y-111080949D01*
X191419976Y-111240277D01*
X190532054Y-112128200D01*
X186809873Y-112128200D01*
X186883113Y-111760000D01*
X186773880Y-111210849D01*
X186462811Y-110745302D01*
X186127455Y-110521224D01*
X186116491Y-110466102D01*
X186462811Y-110234698D01*
X186773880Y-109769151D01*
X186883113Y-109220000D01*
X186773880Y-108670849D01*
X186462811Y-108205302D01*
X186127455Y-107981224D01*
X186116491Y-107926102D01*
X186462811Y-107694698D01*
X186773880Y-107229151D01*
X186883113Y-106680000D01*
X186773880Y-106130849D01*
X186462811Y-105665302D01*
X186127455Y-105441224D01*
X186116491Y-105386102D01*
X186462811Y-105154698D01*
X186773880Y-104689151D01*
X186883113Y-104140000D01*
X186773880Y-103590849D01*
X186462811Y-103125302D01*
X186127455Y-102901224D01*
X186116491Y-102846102D01*
X186462811Y-102614698D01*
X186773880Y-102149151D01*
X186883113Y-101600000D01*
X186773880Y-101050849D01*
X186462811Y-100585302D01*
X186127455Y-100361224D01*
X186116491Y-100306102D01*
X186462811Y-100074698D01*
X186773880Y-99609151D01*
X186883113Y-99060000D01*
X186773880Y-98510849D01*
X186668183Y-98352663D01*
X187040024Y-97980823D01*
X187199351Y-97742372D01*
X187212658Y-97675474D01*
X187255300Y-97461100D01*
X187255300Y-79085446D01*
X188929723Y-77411024D01*
X189089051Y-77172572D01*
X189092152Y-77156981D01*
X189114768Y-77043284D01*
X189397828Y-76854149D01*
X189680000Y-76431850D01*
X189956377Y-76845476D01*
X187648977Y-79152877D01*
X187489649Y-79391328D01*
X187433700Y-79672600D01*
X187433700Y-89964500D01*
X187473717Y-90165677D01*
X187489649Y-90245772D01*
X187648977Y-90484223D01*
X187854596Y-90689842D01*
X187854421Y-90890371D01*
X188011658Y-91270915D01*
X188302554Y-91562319D01*
X188682823Y-91720220D01*
X189094571Y-91720579D01*
X189475115Y-91563342D01*
X189766519Y-91272446D01*
X189924420Y-90892177D01*
X189924779Y-90480429D01*
X189775476Y-90119086D01*
X189985229Y-90032418D01*
X190361098Y-89657204D01*
X190564768Y-89166713D01*
X190564770Y-89164383D01*
X191704769Y-89164383D01*
X191907582Y-89655229D01*
X192282796Y-90031098D01*
X192773287Y-90234768D01*
X193304383Y-90235231D01*
X193795229Y-90032418D01*
X194171098Y-89657204D01*
X194374768Y-89166713D01*
X194375231Y-88635617D01*
X194172418Y-88144771D01*
X193797204Y-87768902D01*
X193306713Y-87565232D01*
X192775617Y-87564769D01*
X192284771Y-87767582D01*
X191908902Y-88142796D01*
X191705232Y-88633287D01*
X191704769Y-89164383D01*
X190564770Y-89164383D01*
X190565231Y-88635617D01*
X190362418Y-88144771D01*
X189987204Y-87768902D01*
X189496713Y-87565232D01*
X188965617Y-87564769D01*
X188903700Y-87590353D01*
X188903700Y-82576249D01*
X189230000Y-82641154D01*
X189740882Y-82539533D01*
X190173988Y-82250142D01*
X190463379Y-81817036D01*
X190565000Y-81306154D01*
X190565000Y-81253846D01*
X191705000Y-81253846D01*
X191705000Y-81306154D01*
X191806621Y-81817036D01*
X192096012Y-82250142D01*
X192529118Y-82539533D01*
X193040000Y-82641154D01*
X193550882Y-82539533D01*
X193983988Y-82250142D01*
X194273379Y-81817036D01*
X194375000Y-81306154D01*
X194375000Y-81253846D01*
X194273379Y-80742964D01*
X193983988Y-80309858D01*
X193550882Y-80020467D01*
X193040000Y-79918846D01*
X192529118Y-80020467D01*
X192096012Y-80309858D01*
X191806621Y-80742964D01*
X191705000Y-81253846D01*
X190565000Y-81253846D01*
X190463379Y-80742964D01*
X190173988Y-80309858D01*
X189740882Y-80020467D01*
X189230000Y-79918846D01*
X188903700Y-79983751D01*
X188903700Y-79977046D01*
X191469723Y-77411024D01*
X191629051Y-77172572D01*
X191632152Y-77156981D01*
X191654768Y-77043284D01*
X191937828Y-76854149D01*
X192220000Y-76431850D01*
X192502172Y-76854149D01*
X192955391Y-77156981D01*
X193490000Y-77263321D01*
X194024609Y-77156981D01*
X194477828Y-76854149D01*
X194760000Y-76431850D01*
X195042172Y-76854149D01*
X195495391Y-77156981D01*
X196030000Y-77263321D01*
X196564609Y-77156981D01*
X197017828Y-76854149D01*
X197320660Y-76400930D01*
X197427000Y-75866321D01*
X197427000Y-74775679D01*
X197320660Y-74241070D01*
X197017828Y-73787851D01*
X196564609Y-73485019D01*
X196030000Y-73378679D01*
X195495391Y-73485019D01*
X195042172Y-73787851D01*
X194760000Y-74210150D01*
X194477828Y-73787851D01*
X194024609Y-73485019D01*
X193490000Y-73378679D01*
X192955391Y-73485019D01*
X192502172Y-73787851D01*
X192220000Y-74210150D01*
X191937828Y-73787851D01*
X191484609Y-73485019D01*
X190950000Y-73378679D01*
X190415391Y-73485019D01*
X189962172Y-73787851D01*
X189680000Y-74210150D01*
X189397828Y-73787851D01*
X188944609Y-73485019D01*
X188410000Y-73378679D01*
X187875391Y-73485019D01*
X187422172Y-73787851D01*
X187140000Y-74210150D01*
X186857828Y-73787851D01*
X186404609Y-73485019D01*
X185870000Y-73378679D01*
X185335391Y-73485019D01*
X184882172Y-73787851D01*
X184600000Y-74210150D01*
X184317828Y-73787851D01*
X183864609Y-73485019D01*
X183330000Y-73378679D01*
X182795391Y-73485019D01*
X182342172Y-73787851D01*
X182060000Y-74210150D01*
X181777828Y-73787851D01*
X181324609Y-73485019D01*
X180790000Y-73378679D01*
X180255391Y-73485019D01*
X179802172Y-73787851D01*
X179520000Y-74210150D01*
X179237828Y-73787851D01*
X178784609Y-73485019D01*
X178250000Y-73378679D01*
X177715391Y-73485019D01*
X177262172Y-73787851D01*
X176959340Y-74241070D01*
X176853000Y-74775679D01*
X176853000Y-75866321D01*
X176959340Y-76400930D01*
X177262172Y-76854149D01*
X177545232Y-77043284D01*
X177567848Y-77156981D01*
X177570949Y-77172572D01*
X177730277Y-77411023D01*
X180169963Y-79850709D01*
X179790849Y-79926120D01*
X179325302Y-80237189D01*
X179070000Y-80619275D01*
X178814698Y-80237189D01*
X178349151Y-79926120D01*
X177800000Y-79816887D01*
X177265000Y-79923305D01*
X177265000Y-79235300D01*
X177209051Y-78954028D01*
X177150567Y-78866500D01*
X177049724Y-78715577D01*
X175179623Y-76845477D01*
X175476660Y-76400930D01*
X175583000Y-75866321D01*
X175583000Y-74775679D01*
X175476660Y-74241070D01*
X175173828Y-73787851D01*
X174720609Y-73485019D01*
X174186000Y-73378679D01*
X173651391Y-73485019D01*
X173198172Y-73787851D01*
X172916000Y-74210150D01*
X172633828Y-73787851D01*
X172180609Y-73485019D01*
X171646000Y-73378679D01*
X171111391Y-73485019D01*
X170658172Y-73787851D01*
X170376000Y-74210150D01*
X170093828Y-73787851D01*
X169640609Y-73485019D01*
X169106000Y-73378679D01*
X168571391Y-73485019D01*
X168118172Y-73787851D01*
X167836000Y-74210150D01*
X167553828Y-73787851D01*
X167100609Y-73485019D01*
X166566000Y-73378679D01*
X166031391Y-73485019D01*
X165578172Y-73787851D01*
X165296000Y-74210150D01*
X165013828Y-73787851D01*
X164560609Y-73485019D01*
X164026000Y-73378679D01*
X163491391Y-73485019D01*
X163038172Y-73787851D01*
X162756000Y-74210150D01*
X162473828Y-73787851D01*
X162020609Y-73485019D01*
X161486000Y-73378679D01*
X160951391Y-73485019D01*
X160498172Y-73787851D01*
X160216000Y-74210150D01*
X159933828Y-73787851D01*
X159480609Y-73485019D01*
X158946000Y-73378679D01*
X158411391Y-73485019D01*
X157958172Y-73787851D01*
X157676000Y-74210150D01*
X157393828Y-73787851D01*
X156940609Y-73485019D01*
X156406000Y-73378679D01*
X155871391Y-73485019D01*
X155418172Y-73787851D01*
X155115340Y-74241070D01*
X155009000Y-74775679D01*
X155009000Y-75866321D01*
X155115340Y-76400930D01*
X155418172Y-76854149D01*
X155871391Y-77156981D01*
X156406000Y-77263321D01*
X156940609Y-77156981D01*
X157393828Y-76854149D01*
X157676000Y-76431850D01*
X157958172Y-76854149D01*
X158411391Y-77156981D01*
X158946000Y-77263321D01*
X159480609Y-77156981D01*
X159933828Y-76854149D01*
X160216000Y-76431850D01*
X160498172Y-76854149D01*
X160951391Y-77156981D01*
X161486000Y-77263321D01*
X162020609Y-77156981D01*
X162473828Y-76854149D01*
X162756000Y-76431850D01*
X163038172Y-76854149D01*
X163491391Y-77156981D01*
X164026000Y-77263321D01*
X164560609Y-77156981D01*
X165013828Y-76854149D01*
X165296000Y-76431850D01*
X165578172Y-76854149D01*
X166031391Y-77156981D01*
X166566000Y-77263321D01*
X167100609Y-77156981D01*
X167553828Y-76854149D01*
X167836000Y-76431850D01*
X168118172Y-76854149D01*
X168571391Y-77156981D01*
X169106000Y-77263321D01*
X169640609Y-77156981D01*
X170093828Y-76854149D01*
X170376000Y-76431850D01*
X170658172Y-76854149D01*
X171111391Y-77156981D01*
X171646000Y-77263321D01*
X172180609Y-77156981D01*
X172633828Y-76854149D01*
X172916000Y-76431850D01*
X173198172Y-76854149D01*
X173481232Y-77043284D01*
X173503848Y-77156981D01*
X173506949Y-77172572D01*
X173666277Y-77411023D01*
X175795000Y-79539747D01*
X175795000Y-79923305D01*
X175260000Y-79816887D01*
X174710849Y-79926120D01*
X174245302Y-80237189D01*
X173990000Y-80619275D01*
X173734698Y-80237189D01*
X173269151Y-79926120D01*
X172720000Y-79816887D01*
X172170849Y-79926120D01*
X171705302Y-80237189D01*
X171450000Y-80619275D01*
X171194698Y-80237189D01*
X170729151Y-79926120D01*
X170180000Y-79816887D01*
X169630849Y-79926120D01*
X169165302Y-80237189D01*
X168910000Y-80619275D01*
X168654698Y-80237189D01*
X168189151Y-79926120D01*
X167640000Y-79816887D01*
X167090849Y-79926120D01*
X166625302Y-80237189D01*
X166370000Y-80619275D01*
X166114698Y-80237189D01*
X165649151Y-79926120D01*
X165100000Y-79816887D01*
X164550849Y-79926120D01*
X164085302Y-80237189D01*
X163774233Y-80702736D01*
X163665000Y-81251887D01*
X163665000Y-81308113D01*
X163741264Y-81691518D01*
X162810023Y-80760277D01*
X162571572Y-80600949D01*
X162406556Y-80568125D01*
X162233988Y-80309858D01*
X161800882Y-80020467D01*
X161290000Y-79918846D01*
X160779118Y-80020467D01*
X160346012Y-80309858D01*
X160056621Y-80742964D01*
X159955000Y-81253846D01*
X159955000Y-81306154D01*
X160056621Y-81817036D01*
X160346012Y-82250142D01*
X160779118Y-82539533D01*
X161290000Y-82641154D01*
X161800882Y-82539533D01*
X162226200Y-82255346D01*
X167446275Y-87475421D01*
X167090849Y-87546120D01*
X166968990Y-87627543D01*
X166621323Y-87279877D01*
X166382872Y-87120549D01*
X166101600Y-87064600D01*
X162390400Y-87064600D01*
X162109128Y-87120549D01*
X161870677Y-87279876D01*
X161576927Y-87573626D01*
X161556713Y-87565232D01*
X161025617Y-87564769D01*
X160534771Y-87767582D01*
X160158902Y-88142796D01*
X160155403Y-88151223D01*
X158365000Y-86360820D01*
X158365000Y-82282873D01*
X158611098Y-82037204D01*
X158814768Y-81546713D01*
X158815231Y-81015617D01*
X158612418Y-80524771D01*
X158237204Y-80148902D01*
X157746713Y-79945232D01*
X157215617Y-79944769D01*
X156724771Y-80147582D01*
X156348902Y-80522796D01*
X156145232Y-81013287D01*
X156144769Y-81544383D01*
X156347582Y-82035229D01*
X156595000Y-82283079D01*
X156595000Y-86727395D01*
X156594999Y-86727400D01*
X156651190Y-87009884D01*
X156662367Y-87066075D01*
X156805224Y-87279877D01*
X156854210Y-87353190D01*
X157112889Y-87611869D01*
X156969118Y-87640467D01*
X156536012Y-87929858D01*
X156246621Y-88362964D01*
X156145000Y-88873846D01*
X156145000Y-88926154D01*
X156246621Y-89437036D01*
X156536012Y-89870142D01*
X156969118Y-90159533D01*
X157480000Y-90261154D01*
X157990882Y-90159533D01*
X158423988Y-89870142D01*
X158713379Y-89437036D01*
X158750655Y-89249635D01*
X160833801Y-91332780D01*
X160535995Y-91456136D01*
X160461861Y-91702255D01*
X161290000Y-92530395D01*
X161304143Y-92516253D01*
X161483748Y-92695858D01*
X161469605Y-92710000D01*
X162297745Y-93538139D01*
X162543864Y-93464005D01*
X162546196Y-93457517D01*
X162572757Y-93521800D01*
X162976077Y-93925824D01*
X163503309Y-94144750D01*
X164074187Y-94145248D01*
X164365000Y-94025087D01*
X164365000Y-94104053D01*
X163140577Y-95328477D01*
X162981249Y-95566928D01*
X162925300Y-95848200D01*
X162925300Y-96399550D01*
X162560000Y-96326887D01*
X162010849Y-96436120D01*
X161545302Y-96747189D01*
X161439856Y-96905000D01*
X161309705Y-96905000D01*
X161309700Y-96904999D01*
X161027216Y-96961190D01*
X160971025Y-96972367D01*
X160683910Y-97164210D01*
X160683908Y-97164213D01*
X158815000Y-99033121D01*
X158815000Y-98932998D01*
X158649375Y-98932998D01*
X158772716Y-98726671D01*
X158629797Y-98381604D01*
X158282663Y-97993236D01*
X157813331Y-97767273D01*
X157607000Y-97889794D01*
X157607000Y-98933000D01*
X157627000Y-98933000D01*
X157627000Y-99187000D01*
X157607000Y-99187000D01*
X157607000Y-99207000D01*
X157353000Y-99207000D01*
X157353000Y-99187000D01*
X156310626Y-99187000D01*
X156187284Y-99393329D01*
X156330203Y-99738396D01*
X156677337Y-100126764D01*
X157073443Y-100317472D01*
X157040910Y-100339210D01*
X157040908Y-100339213D01*
X153868983Y-103511137D01*
X152601992Y-102244213D01*
X152601990Y-102244210D01*
X152601987Y-102244208D01*
X152601973Y-102244194D01*
X152459723Y-102149151D01*
X152314875Y-102052367D01*
X152314863Y-102052365D01*
X152314853Y-102052358D01*
X152123851Y-102014370D01*
X151976200Y-101985000D01*
X151976182Y-101985000D01*
X151976177Y-101984999D01*
X151976172Y-101985000D01*
X150862873Y-101985000D01*
X150617204Y-101738902D01*
X150126713Y-101535232D01*
X149776506Y-101534927D01*
X149577800Y-101336220D01*
X149577800Y-100388337D01*
X149593287Y-100394768D01*
X150124383Y-100395231D01*
X150615229Y-100192418D01*
X150991098Y-99817204D01*
X151000318Y-99795000D01*
X152669700Y-99795000D01*
X152950972Y-99739051D01*
X153189423Y-99579723D01*
X154042475Y-98726671D01*
X156187284Y-98726671D01*
X156310626Y-98933000D01*
X157353000Y-98933000D01*
X157353000Y-97889794D01*
X157146669Y-97767273D01*
X156677337Y-97993236D01*
X156330203Y-98381604D01*
X156187284Y-98726671D01*
X154042475Y-98726671D01*
X156549003Y-96220144D01*
X156942964Y-96483379D01*
X157453846Y-96585000D01*
X157506154Y-96585000D01*
X158017036Y-96483379D01*
X158450142Y-96193988D01*
X158739533Y-95760882D01*
X158841154Y-95250000D01*
X158739533Y-94739118D01*
X158450142Y-94306012D01*
X158017036Y-94016621D01*
X157506154Y-93915000D01*
X157453846Y-93915000D01*
X156942964Y-94016621D01*
X156509858Y-94306012D01*
X156353435Y-94540116D01*
X156198428Y-94570949D01*
X155959977Y-94730276D01*
X152365254Y-98325000D01*
X151000776Y-98325000D01*
X150992418Y-98304771D01*
X150617204Y-97928902D01*
X150126713Y-97725232D01*
X149595617Y-97724769D01*
X149577800Y-97732131D01*
X149577800Y-96783780D01*
X149776652Y-96584928D01*
X150124383Y-96585231D01*
X150615229Y-96382418D01*
X150991098Y-96007204D01*
X151194768Y-95516713D01*
X151195231Y-94985617D01*
X150992418Y-94494771D01*
X150617204Y-94118902D01*
X150126713Y-93915232D01*
X149595617Y-93914769D01*
X149104771Y-94117582D01*
X148728902Y-94492796D01*
X148525232Y-94983287D01*
X148524927Y-95333494D01*
X148067010Y-95791410D01*
X147875167Y-96078525D01*
X147875167Y-96078526D01*
X147807799Y-96417200D01*
X147807800Y-96417205D01*
X147807800Y-100817800D01*
X147217205Y-100817800D01*
X147217200Y-100817799D01*
X146934716Y-100873990D01*
X146878525Y-100885167D01*
X146591410Y-101077010D01*
X146591408Y-101077013D01*
X146133348Y-101535072D01*
X145785617Y-101534769D01*
X145294771Y-101737582D01*
X144918902Y-102112796D01*
X144715232Y-102603287D01*
X144714769Y-103134383D01*
X144917582Y-103625229D01*
X145292796Y-104001098D01*
X145783287Y-104204768D01*
X146314383Y-104205231D01*
X146805229Y-104002418D01*
X147181098Y-103627204D01*
X147384768Y-103136713D01*
X147385073Y-102786506D01*
X147583779Y-102587800D01*
X148326220Y-102587800D01*
X148525072Y-102786652D01*
X148524769Y-103134383D01*
X148727582Y-103625229D01*
X149102796Y-104001098D01*
X149593287Y-104204768D01*
X150124383Y-104205231D01*
X150615229Y-104002418D01*
X150863079Y-103755000D01*
X151609635Y-103755000D01*
X153243208Y-105388487D01*
X153243210Y-105388490D01*
X153243213Y-105388492D01*
X158335902Y-110481215D01*
X158239118Y-110500467D01*
X157806012Y-110789858D01*
X157749122Y-110875000D01*
X157599705Y-110875000D01*
X157599700Y-110874999D01*
X157317216Y-110931190D01*
X157261025Y-110942367D01*
X156973910Y-111134210D01*
X156973908Y-111134213D01*
X156263338Y-111844782D01*
X156275000Y-111786154D01*
X156275000Y-111733846D01*
X156173379Y-111222964D01*
X155883988Y-110789858D01*
X155450882Y-110500467D01*
X154940000Y-110398846D01*
X154429118Y-110500467D01*
X153996012Y-110789858D01*
X153706621Y-111222964D01*
X153605000Y-111733846D01*
X153605000Y-111786154D01*
X153653236Y-112028653D01*
X153387616Y-112081490D01*
X153331425Y-112092667D01*
X153044310Y-112284510D01*
X153044308Y-112284513D01*
X147895200Y-117433621D01*
X142485963Y-112024383D01*
X145984769Y-112024383D01*
X146187582Y-112515229D01*
X146562796Y-112891098D01*
X147053287Y-113094768D01*
X147584383Y-113095231D01*
X148075229Y-112892418D01*
X148451098Y-112517204D01*
X148654768Y-112026713D01*
X148655023Y-111733846D01*
X149795000Y-111733846D01*
X149795000Y-111786154D01*
X149896621Y-112297036D01*
X150186012Y-112730142D01*
X150619118Y-113019533D01*
X151130000Y-113121154D01*
X151640882Y-113019533D01*
X152073988Y-112730142D01*
X152363379Y-112297036D01*
X152465000Y-111786154D01*
X152465000Y-111733846D01*
X152363379Y-111222964D01*
X152073988Y-110789858D01*
X151640882Y-110500467D01*
X151130000Y-110398846D01*
X150619118Y-110500467D01*
X150186012Y-110789858D01*
X149896621Y-111222964D01*
X149795000Y-111733846D01*
X148655023Y-111733846D01*
X148655231Y-111495617D01*
X148452418Y-111004771D01*
X148077204Y-110628902D01*
X147586713Y-110425232D01*
X147055617Y-110424769D01*
X146564771Y-110627582D01*
X146188902Y-111002796D01*
X145985232Y-111493287D01*
X145984769Y-112024383D01*
X142485963Y-112024383D01*
X141311711Y-110850131D01*
X141383345Y-110490000D01*
X141269271Y-109916511D01*
X140944415Y-109430330D01*
X140458234Y-109105474D01*
X139884745Y-108991400D01*
X139515255Y-108991400D01*
X138941766Y-109105474D01*
X138455585Y-109430330D01*
X138270800Y-109706880D01*
X138270800Y-107013329D01*
X148567284Y-107013329D01*
X148710203Y-107358396D01*
X149057337Y-107746764D01*
X149526669Y-107972727D01*
X149733000Y-107850206D01*
X149733000Y-106807000D01*
X149987000Y-106807000D01*
X149987000Y-107850206D01*
X150193331Y-107972727D01*
X150662663Y-107746764D01*
X151009797Y-107358396D01*
X151152716Y-107013329D01*
X151029374Y-106807000D01*
X149987000Y-106807000D01*
X149733000Y-106807000D01*
X148690626Y-106807000D01*
X148567284Y-107013329D01*
X138270800Y-107013329D01*
X138270800Y-106346671D01*
X148567284Y-106346671D01*
X148690626Y-106553000D01*
X149733000Y-106553000D01*
X149733000Y-105509794D01*
X149987000Y-105509794D01*
X149987000Y-106553000D01*
X151029374Y-106553000D01*
X151152716Y-106346671D01*
X151009797Y-106001604D01*
X150662663Y-105613236D01*
X150193331Y-105387273D01*
X149987000Y-105509794D01*
X149733000Y-105509794D01*
X149526669Y-105387273D01*
X149057337Y-105613236D01*
X148710203Y-106001604D01*
X148567284Y-106346671D01*
X138270800Y-106346671D01*
X138270800Y-103095805D01*
X138270801Y-103095800D01*
X138203433Y-102757126D01*
X138203433Y-102757125D01*
X138011590Y-102470010D01*
X138011587Y-102470008D01*
X137501710Y-101960131D01*
X137573345Y-101600000D01*
X137459271Y-101026511D01*
X137134415Y-100540330D01*
X136819634Y-100330000D01*
X137134415Y-100119670D01*
X137459271Y-99633489D01*
X137573345Y-99060000D01*
X137459271Y-98486511D01*
X137134415Y-98000330D01*
X137112220Y-97985500D01*
X137265698Y-97921927D01*
X137444327Y-97743299D01*
X137541000Y-97509910D01*
X137541000Y-96805750D01*
X137382250Y-96647000D01*
X136017000Y-96647000D01*
X136017000Y-96667000D01*
X135763000Y-96667000D01*
X135763000Y-96647000D01*
X134397750Y-96647000D01*
X134239000Y-96805750D01*
X134239000Y-97509910D01*
X134335673Y-97743299D01*
X134514302Y-97921927D01*
X134667780Y-97985500D01*
X134645585Y-98000330D01*
X134320729Y-98486511D01*
X134206655Y-99060000D01*
X133019000Y-99060000D01*
X133019000Y-95530090D01*
X134239000Y-95530090D01*
X134239000Y-96234250D01*
X134397750Y-96393000D01*
X135763000Y-96393000D01*
X135763000Y-95180150D01*
X136017000Y-95180150D01*
X136017000Y-96393000D01*
X137382250Y-96393000D01*
X137541000Y-96234250D01*
X137541000Y-95530090D01*
X137444327Y-95296701D01*
X137371472Y-95223846D01*
X144715000Y-95223846D01*
X144715000Y-95276154D01*
X144816621Y-95787036D01*
X145106012Y-96220142D01*
X145539118Y-96509533D01*
X146050000Y-96611154D01*
X146560882Y-96509533D01*
X146993988Y-96220142D01*
X147283379Y-95787036D01*
X147385000Y-95276154D01*
X147385000Y-95223846D01*
X147283379Y-94712964D01*
X146993988Y-94279858D01*
X146785000Y-94140217D01*
X146785000Y-93717745D01*
X160461861Y-93717745D01*
X160535995Y-93963864D01*
X161073223Y-94156965D01*
X161643454Y-94129778D01*
X162044005Y-93963864D01*
X162118139Y-93717745D01*
X161290000Y-92889605D01*
X160461861Y-93717745D01*
X146785000Y-93717745D01*
X146785000Y-92493223D01*
X159843035Y-92493223D01*
X159870222Y-93063454D01*
X160036136Y-93464005D01*
X160282255Y-93538139D01*
X161110395Y-92710000D01*
X160282255Y-91881861D01*
X160036136Y-91955995D01*
X159843035Y-92493223D01*
X146785000Y-92493223D01*
X146785000Y-89184446D01*
X150593545Y-85375902D01*
X150783352Y-85454716D01*
X151433795Y-85455284D01*
X152034943Y-85206894D01*
X152495278Y-84747363D01*
X152744716Y-84146648D01*
X152745284Y-83496205D01*
X152496894Y-82895057D01*
X152037363Y-82434722D01*
X151436648Y-82185284D01*
X150786205Y-82184716D01*
X150185057Y-82433106D01*
X149724722Y-82892637D01*
X149475284Y-83493352D01*
X149474716Y-84143795D01*
X149554256Y-84336297D01*
X145530277Y-88360277D01*
X145370949Y-88598728D01*
X145315000Y-88880000D01*
X145315000Y-94140217D01*
X145106012Y-94279858D01*
X144816621Y-94712964D01*
X144715000Y-95223846D01*
X137371472Y-95223846D01*
X137265698Y-95118073D01*
X137032309Y-95021400D01*
X136175750Y-95021400D01*
X136017000Y-95180150D01*
X135763000Y-95180150D01*
X135604250Y-95021400D01*
X134747691Y-95021400D01*
X134514302Y-95118073D01*
X134335673Y-95296701D01*
X134239000Y-95530090D01*
X133019000Y-95530090D01*
X133019000Y-82820000D01*
X141862560Y-82820000D01*
X141862560Y-84820000D01*
X141906838Y-85055317D01*
X142045910Y-85271441D01*
X142258110Y-85416431D01*
X142510000Y-85467440D01*
X144510000Y-85467440D01*
X144745317Y-85423162D01*
X144961441Y-85284090D01*
X145106431Y-85071890D01*
X145157440Y-84820000D01*
X145157440Y-82820000D01*
X145113162Y-82584683D01*
X144974090Y-82368559D01*
X144761890Y-82223569D01*
X144510000Y-82172560D01*
X142510000Y-82172560D01*
X142274683Y-82216838D01*
X142058559Y-82355910D01*
X141913569Y-82568110D01*
X141862560Y-82820000D01*
X133019000Y-82820000D01*
X133019000Y-73329000D01*
X146771074Y-73329000D01*
X146512700Y-73435758D01*
G36*
X139827000Y-112903000D02*
X139847000Y-112903000D01*
X139847000Y-113157000D01*
X139827000Y-113157000D01*
X139827000Y-113177000D01*
X139573000Y-113177000D01*
X139573000Y-113157000D01*
X139553000Y-113157000D01*
X139553000Y-112903000D01*
X139573000Y-112903000D01*
X139573000Y-112883000D01*
X139827000Y-112883000D01*
X139827000Y-112903000D01*
X139827000Y-112903000D01*
G37*
X139827000Y-112903000D02*
X139847000Y-112903000D01*
X139847000Y-113157000D01*
X139827000Y-113157000D01*
X139827000Y-113177000D01*
X139573000Y-113177000D01*
X139573000Y-113157000D01*
X139553000Y-113157000D01*
X139553000Y-112903000D01*
X139573000Y-112903000D01*
X139573000Y-112883000D01*
X139827000Y-112883000D01*
X139827000Y-112903000D01*
G36*
X175795000Y-90529600D02*
X175850949Y-90810872D01*
X176010277Y-91049323D01*
X181879400Y-96918446D01*
X181879400Y-107991600D01*
X181935349Y-108272872D01*
X182094677Y-108511323D01*
X184357749Y-110774396D01*
X184066120Y-111210849D01*
X183956887Y-111760000D01*
X184030127Y-112128200D01*
X181707352Y-112128200D01*
X181775000Y-111788113D01*
X181775000Y-111731887D01*
X181665767Y-111182736D01*
X181354698Y-110717189D01*
X181014686Y-110490000D01*
X181354698Y-110262811D01*
X181665767Y-109797264D01*
X181775000Y-109248113D01*
X181775000Y-109191887D01*
X181665767Y-108642736D01*
X181354698Y-108177189D01*
X181014686Y-107950000D01*
X181354698Y-107722811D01*
X181665767Y-107257264D01*
X181775000Y-106708113D01*
X181775000Y-106651887D01*
X181665767Y-106102736D01*
X181354698Y-105637189D01*
X181261626Y-105575000D01*
X181266310Y-105575000D01*
X181499699Y-105478327D01*
X181678327Y-105299698D01*
X181775000Y-105066309D01*
X181775000Y-104425750D01*
X181616250Y-104267000D01*
X180467000Y-104267000D01*
X180467000Y-104287000D01*
X180213000Y-104287000D01*
X180213000Y-104267000D01*
X179063750Y-104267000D01*
X178905000Y-104425750D01*
X178905000Y-105066309D01*
X179001673Y-105299698D01*
X179180301Y-105478327D01*
X179413690Y-105575000D01*
X179418374Y-105575000D01*
X179325302Y-105637189D01*
X179014233Y-106102736D01*
X178905000Y-106651887D01*
X178905000Y-106708113D01*
X179014233Y-107257264D01*
X179325302Y-107722811D01*
X179665314Y-107950000D01*
X179325302Y-108177189D01*
X179014233Y-108642736D01*
X178905000Y-109191887D01*
X178905000Y-109248113D01*
X179014233Y-109797264D01*
X179325302Y-110262811D01*
X179665314Y-110490000D01*
X179325302Y-110717189D01*
X179062398Y-111110652D01*
X177076318Y-109124572D01*
X177039351Y-108938728D01*
X176880023Y-108700277D01*
X176641572Y-108540949D01*
X176498776Y-108512545D01*
X176274698Y-108177189D01*
X175934686Y-107950000D01*
X176274698Y-107722811D01*
X176585767Y-107257264D01*
X176695000Y-106708113D01*
X176695000Y-106651887D01*
X176585767Y-106102736D01*
X176274698Y-105637189D01*
X176181626Y-105575000D01*
X176186310Y-105575000D01*
X176419699Y-105478327D01*
X176598327Y-105299698D01*
X176695000Y-105066309D01*
X176695000Y-104425750D01*
X176536250Y-104267000D01*
X175387000Y-104267000D01*
X175387000Y-104287000D01*
X175133000Y-104287000D01*
X175133000Y-104267000D01*
X175113000Y-104267000D01*
X175113000Y-104013000D01*
X175133000Y-104013000D01*
X175133000Y-103993000D01*
X175387000Y-103993000D01*
X175387000Y-104013000D01*
X176536250Y-104013000D01*
X176695000Y-103854250D01*
X176695000Y-103213691D01*
X178905000Y-103213691D01*
X178905000Y-103854250D01*
X179063750Y-104013000D01*
X180213000Y-104013000D01*
X180213000Y-102863750D01*
X180467000Y-102863750D01*
X180467000Y-104013000D01*
X181616250Y-104013000D01*
X181775000Y-103854250D01*
X181775000Y-103213691D01*
X181678327Y-102980302D01*
X181499699Y-102801673D01*
X181266310Y-102705000D01*
X180625750Y-102705000D01*
X180467000Y-102863750D01*
X180213000Y-102863750D01*
X180054250Y-102705000D01*
X179413690Y-102705000D01*
X179180301Y-102801673D01*
X179001673Y-102980302D01*
X178905000Y-103213691D01*
X176695000Y-103213691D01*
X176598327Y-102980302D01*
X176419699Y-102801673D01*
X176186310Y-102705000D01*
X175545750Y-102705000D01*
X175387002Y-102863748D01*
X175387002Y-102767044D01*
X177152623Y-101001424D01*
X177311951Y-100762973D01*
X177321494Y-100714999D01*
X177367900Y-100481700D01*
X177367900Y-94192000D01*
X177311951Y-93910728D01*
X177297284Y-93888777D01*
X177152623Y-93672276D01*
X174725000Y-91244654D01*
X174725000Y-90256695D01*
X175260000Y-90363113D01*
X175795000Y-90256695D01*
X175795000Y-90529600D01*
X175795000Y-90529600D01*
G37*
X175795000Y-90529600D02*
X175850949Y-90810872D01*
X176010277Y-91049323D01*
X181879400Y-96918446D01*
X181879400Y-107991600D01*
X181935349Y-108272872D01*
X182094677Y-108511323D01*
X184357749Y-110774396D01*
X184066120Y-111210849D01*
X183956887Y-111760000D01*
X184030127Y-112128200D01*
X181707352Y-112128200D01*
X181775000Y-111788113D01*
X181775000Y-111731887D01*
X181665767Y-111182736D01*
X181354698Y-110717189D01*
X181014686Y-110490000D01*
X181354698Y-110262811D01*
X181665767Y-109797264D01*
X181775000Y-109248113D01*
X181775000Y-109191887D01*
X181665767Y-108642736D01*
X181354698Y-108177189D01*
X181014686Y-107950000D01*
X181354698Y-107722811D01*
X181665767Y-107257264D01*
X181775000Y-106708113D01*
X181775000Y-106651887D01*
X181665767Y-106102736D01*
X181354698Y-105637189D01*
X181261626Y-105575000D01*
X181266310Y-105575000D01*
X181499699Y-105478327D01*
X181678327Y-105299698D01*
X181775000Y-105066309D01*
X181775000Y-104425750D01*
X181616250Y-104267000D01*
X180467000Y-104267000D01*
X180467000Y-104287000D01*
X180213000Y-104287000D01*
X180213000Y-104267000D01*
X179063750Y-104267000D01*
X178905000Y-104425750D01*
X178905000Y-105066309D01*
X179001673Y-105299698D01*
X179180301Y-105478327D01*
X179413690Y-105575000D01*
X179418374Y-105575000D01*
X179325302Y-105637189D01*
X179014233Y-106102736D01*
X178905000Y-106651887D01*
X178905000Y-106708113D01*
X179014233Y-107257264D01*
X179325302Y-107722811D01*
X179665314Y-107950000D01*
X179325302Y-108177189D01*
X179014233Y-108642736D01*
X178905000Y-109191887D01*
X178905000Y-109248113D01*
X179014233Y-109797264D01*
X179325302Y-110262811D01*
X179665314Y-110490000D01*
X179325302Y-110717189D01*
X179062398Y-111110652D01*
X177076318Y-109124572D01*
X177039351Y-108938728D01*
X176880023Y-108700277D01*
X176641572Y-108540949D01*
X176498776Y-108512545D01*
X176274698Y-108177189D01*
X175934686Y-107950000D01*
X176274698Y-107722811D01*
X176585767Y-107257264D01*
X176695000Y-106708113D01*
X176695000Y-106651887D01*
X176585767Y-106102736D01*
X176274698Y-105637189D01*
X176181626Y-105575000D01*
X176186310Y-105575000D01*
X176419699Y-105478327D01*
X176598327Y-105299698D01*
X176695000Y-105066309D01*
X176695000Y-104425750D01*
X176536250Y-104267000D01*
X175387000Y-104267000D01*
X175387000Y-104287000D01*
X175133000Y-104287000D01*
X175133000Y-104267000D01*
X175113000Y-104267000D01*
X175113000Y-104013000D01*
X175133000Y-104013000D01*
X175133000Y-103993000D01*
X175387000Y-103993000D01*
X175387000Y-104013000D01*
X176536250Y-104013000D01*
X176695000Y-103854250D01*
X176695000Y-103213691D01*
X178905000Y-103213691D01*
X178905000Y-103854250D01*
X179063750Y-104013000D01*
X180213000Y-104013000D01*
X180213000Y-102863750D01*
X180467000Y-102863750D01*
X180467000Y-104013000D01*
X181616250Y-104013000D01*
X181775000Y-103854250D01*
X181775000Y-103213691D01*
X181678327Y-102980302D01*
X181499699Y-102801673D01*
X181266310Y-102705000D01*
X180625750Y-102705000D01*
X180467000Y-102863750D01*
X180213000Y-102863750D01*
X180054250Y-102705000D01*
X179413690Y-102705000D01*
X179180301Y-102801673D01*
X179001673Y-102980302D01*
X178905000Y-103213691D01*
X176695000Y-103213691D01*
X176598327Y-102980302D01*
X176419699Y-102801673D01*
X176186310Y-102705000D01*
X175545750Y-102705000D01*
X175387002Y-102863748D01*
X175387002Y-102767044D01*
X177152623Y-101001424D01*
X177311951Y-100762973D01*
X177321494Y-100714999D01*
X177367900Y-100481700D01*
X177367900Y-94192000D01*
X177311951Y-93910728D01*
X177297284Y-93888777D01*
X177152623Y-93672276D01*
X174725000Y-91244654D01*
X174725000Y-90256695D01*
X175260000Y-90363113D01*
X175795000Y-90256695D01*
X175795000Y-90529600D01*
G36*
X182364800Y-82045547D02*
X182364800Y-95324954D01*
X180262012Y-93222166D01*
X180567846Y-93283000D01*
X180620154Y-93283000D01*
X181131036Y-93181379D01*
X181564142Y-92891988D01*
X181853533Y-92458882D01*
X181955154Y-91948000D01*
X181853533Y-91437118D01*
X181564142Y-91004012D01*
X181131036Y-90714621D01*
X180620154Y-90613000D01*
X180567846Y-90613000D01*
X180056964Y-90714621D01*
X179623858Y-91004012D01*
X179334467Y-91437118D01*
X179232846Y-91948000D01*
X179293680Y-92253834D01*
X177304372Y-90264526D01*
X177800000Y-90363113D01*
X178349151Y-90253880D01*
X178814698Y-89942811D01*
X179084986Y-89538297D01*
X179187611Y-89755134D01*
X179602577Y-90131041D01*
X179990961Y-90291904D01*
X180213000Y-90169915D01*
X180213000Y-89027000D01*
X180467000Y-89027000D01*
X180467000Y-90169915D01*
X180689039Y-90291904D01*
X181077423Y-90131041D01*
X181492389Y-89755134D01*
X181731914Y-89249041D01*
X181610629Y-89027000D01*
X180467000Y-89027000D01*
X180213000Y-89027000D01*
X180193000Y-89027000D01*
X180193000Y-88773000D01*
X180213000Y-88773000D01*
X180213000Y-87630085D01*
X180467000Y-87630085D01*
X180467000Y-88773000D01*
X181610629Y-88773000D01*
X181731914Y-88550959D01*
X181492389Y-88044866D01*
X181077423Y-87668959D01*
X180689039Y-87508096D01*
X180467000Y-87630085D01*
X180213000Y-87630085D01*
X179990961Y-87508096D01*
X179602577Y-87668959D01*
X179187611Y-88044866D01*
X179084986Y-88261703D01*
X178814698Y-87857189D01*
X178349151Y-87546120D01*
X177800000Y-87436887D01*
X177265000Y-87543305D01*
X177265000Y-82636695D01*
X177800000Y-82743113D01*
X178349151Y-82633880D01*
X178814698Y-82322811D01*
X179070000Y-81940725D01*
X179325302Y-82322811D01*
X179790849Y-82633880D01*
X180340000Y-82743113D01*
X180889151Y-82633880D01*
X181354698Y-82322811D01*
X181665767Y-81857264D01*
X181750506Y-81431253D01*
X182364800Y-82045547D01*
X182364800Y-82045547D01*
G37*
X182364800Y-82045547D02*
X182364800Y-95324954D01*
X180262012Y-93222166D01*
X180567846Y-93283000D01*
X180620154Y-93283000D01*
X181131036Y-93181379D01*
X181564142Y-92891988D01*
X181853533Y-92458882D01*
X181955154Y-91948000D01*
X181853533Y-91437118D01*
X181564142Y-91004012D01*
X181131036Y-90714621D01*
X180620154Y-90613000D01*
X180567846Y-90613000D01*
X180056964Y-90714621D01*
X179623858Y-91004012D01*
X179334467Y-91437118D01*
X179232846Y-91948000D01*
X179293680Y-92253834D01*
X177304372Y-90264526D01*
X177800000Y-90363113D01*
X178349151Y-90253880D01*
X178814698Y-89942811D01*
X179084986Y-89538297D01*
X179187611Y-89755134D01*
X179602577Y-90131041D01*
X179990961Y-90291904D01*
X180213000Y-90169915D01*
X180213000Y-89027000D01*
X180467000Y-89027000D01*
X180467000Y-90169915D01*
X180689039Y-90291904D01*
X181077423Y-90131041D01*
X181492389Y-89755134D01*
X181731914Y-89249041D01*
X181610629Y-89027000D01*
X180467000Y-89027000D01*
X180213000Y-89027000D01*
X180193000Y-89027000D01*
X180193000Y-88773000D01*
X180213000Y-88773000D01*
X180213000Y-87630085D01*
X180467000Y-87630085D01*
X180467000Y-88773000D01*
X181610629Y-88773000D01*
X181731914Y-88550959D01*
X181492389Y-88044866D01*
X181077423Y-87668959D01*
X180689039Y-87508096D01*
X180467000Y-87630085D01*
X180213000Y-87630085D01*
X179990961Y-87508096D01*
X179602577Y-87668959D01*
X179187611Y-88044866D01*
X179084986Y-88261703D01*
X178814698Y-87857189D01*
X178349151Y-87546120D01*
X177800000Y-87436887D01*
X177265000Y-87543305D01*
X177265000Y-82636695D01*
X177800000Y-82743113D01*
X178349151Y-82633880D01*
X178814698Y-82322811D01*
X179070000Y-81940725D01*
X179325302Y-82322811D01*
X179790849Y-82633880D01*
X180340000Y-82743113D01*
X180889151Y-82633880D01*
X181354698Y-82322811D01*
X181665767Y-81857264D01*
X181750506Y-81431253D01*
X182364800Y-82045547D01*
G36*
X174245302Y-82322811D02*
X174710849Y-82633880D01*
X175260000Y-82743113D01*
X175795000Y-82636695D01*
X175795000Y-87543305D01*
X175260000Y-87436887D01*
X174710849Y-87546120D01*
X174328647Y-87801500D01*
X168732908Y-82205762D01*
X168910000Y-81940725D01*
X169165302Y-82322811D01*
X169630849Y-82633880D01*
X170180000Y-82743113D01*
X170729151Y-82633880D01*
X171194698Y-82322811D01*
X171450000Y-81940725D01*
X171705302Y-82322811D01*
X172170849Y-82633880D01*
X172720000Y-82743113D01*
X173269151Y-82633880D01*
X173734698Y-82322811D01*
X173990000Y-81940725D01*
X174245302Y-82322811D01*
X174245302Y-82322811D01*
G37*
X174245302Y-82322811D02*
X174710849Y-82633880D01*
X175260000Y-82743113D01*
X175795000Y-82636695D01*
X175795000Y-87543305D01*
X175260000Y-87436887D01*
X174710849Y-87546120D01*
X174328647Y-87801500D01*
X168732908Y-82205762D01*
X168910000Y-81940725D01*
X169165302Y-82322811D01*
X169630849Y-82633880D01*
X170180000Y-82743113D01*
X170729151Y-82633880D01*
X171194698Y-82322811D01*
X171450000Y-81940725D01*
X171705302Y-82322811D01*
X172170849Y-82633880D01*
X172720000Y-82743113D01*
X173269151Y-82633880D01*
X173734698Y-82322811D01*
X173990000Y-81940725D01*
X174245302Y-82322811D01*
M02*
