G04 #@! TF.FileFunction,Soldermask,Bot*
%FSLAX46Y46*%
G04 Gerber Fmt 4.6, Leading zero omitted, Abs format (unit mm)*
G04 Created by KiCad (PCBNEW 4.0.6) date 2018 June 04, Monday 22:32:25*
%MOMM*%
%LPD*%
G01*
G04 APERTURE LIST*
%ADD10C,0.150000*%
%ADD11C,1.600000*%
%ADD12R,2.032000X1.727200*%
%ADD13O,2.032000X1.727200*%
%ADD14C,1.400000*%
%ADD15O,1.400000X1.400000*%
%ADD16R,1.600000X1.600000*%
%ADD17O,1.600000X1.600000*%
%ADD18O,1.524000X2.540000*%
%ADD19C,3.175000*%
%ADD20R,2.000000X2.000000*%
%ADD21C,2.000000*%
G04 APERTURE END LIST*
D10*
D11*
X161290000Y-92710000D03*
X163790000Y-92710000D03*
X175514000Y-97028000D03*
X175514000Y-99528000D03*
D12*
X139700000Y-120650000D03*
D13*
X139700000Y-118110000D03*
X139700000Y-115570000D03*
X139700000Y-113030000D03*
X139700000Y-110490000D03*
D12*
X135890000Y-96520000D03*
D13*
X135890000Y-99060000D03*
X135890000Y-101600000D03*
X135890000Y-104140000D03*
D14*
X147320000Y-111760000D03*
D15*
X147320000Y-119380000D03*
D14*
X161290000Y-88900000D03*
D15*
X161290000Y-81280000D03*
D14*
X166370000Y-111760000D03*
D15*
X166370000Y-119380000D03*
D14*
X158750000Y-119380000D03*
D15*
X158750000Y-111760000D03*
D14*
X162560000Y-111760000D03*
D15*
X162560000Y-119380000D03*
D14*
X151130000Y-119380000D03*
D15*
X151130000Y-111760000D03*
D14*
X154940000Y-119380000D03*
D15*
X154940000Y-111760000D03*
D14*
X170180000Y-119380000D03*
D15*
X170180000Y-111760000D03*
D14*
X146050000Y-102870000D03*
D15*
X146050000Y-95250000D03*
D14*
X189230000Y-88900000D03*
D15*
X189230000Y-81280000D03*
D14*
X157480000Y-81280000D03*
D15*
X157480000Y-88900000D03*
D14*
X185420000Y-88900000D03*
D15*
X185420000Y-81280000D03*
D14*
X149860000Y-95250000D03*
D15*
X157480000Y-95250000D03*
D14*
X149860000Y-99060000D03*
D15*
X157480000Y-99060000D03*
D14*
X172974000Y-91948000D03*
D15*
X180594000Y-91948000D03*
D14*
X193040000Y-88900000D03*
D15*
X193040000Y-81280000D03*
D14*
X149860000Y-102870000D03*
D15*
X157480000Y-102870000D03*
D14*
X157480000Y-106680000D03*
D15*
X149860000Y-106680000D03*
D16*
X175260000Y-104140000D03*
D17*
X175260000Y-106680000D03*
X175260000Y-109220000D03*
X175260000Y-111760000D03*
X175260000Y-114300000D03*
X175260000Y-116840000D03*
X175260000Y-119380000D03*
D16*
X180340000Y-104140000D03*
D17*
X180340000Y-106680000D03*
X180340000Y-109220000D03*
X180340000Y-111760000D03*
X180340000Y-114300000D03*
X180340000Y-116840000D03*
X180340000Y-119380000D03*
D18*
X196030000Y-123581000D03*
X193490000Y-123581000D03*
X190950000Y-123581000D03*
X183330000Y-123581000D03*
X185870000Y-123581000D03*
X188410000Y-123581000D03*
X178250000Y-123581000D03*
X175710000Y-123581000D03*
X173170000Y-123581000D03*
X168090000Y-123581000D03*
X165550000Y-123581000D03*
X196030000Y-75321000D03*
X193490000Y-75321000D03*
X190950000Y-75321000D03*
X188410000Y-75321000D03*
X185870000Y-75321000D03*
X183330000Y-75321000D03*
X180790000Y-75321000D03*
X178250000Y-75321000D03*
X174186000Y-75321000D03*
X171646000Y-75321000D03*
X169106000Y-75321000D03*
X166566000Y-75321000D03*
X164026000Y-75321000D03*
X161486000Y-75321000D03*
X158946000Y-75321000D03*
X156406000Y-75321000D03*
X170630000Y-123581000D03*
D19*
X198570000Y-118501000D03*
X198570000Y-90561000D03*
X147770000Y-75321000D03*
X146500000Y-123581000D03*
D16*
X185420000Y-96520000D03*
D17*
X193040000Y-119380000D03*
X185420000Y-99060000D03*
X193040000Y-116840000D03*
X185420000Y-101600000D03*
X193040000Y-114300000D03*
X185420000Y-104140000D03*
X193040000Y-111760000D03*
X185420000Y-106680000D03*
X193040000Y-109220000D03*
X185420000Y-109220000D03*
X193040000Y-106680000D03*
X185420000Y-111760000D03*
X193040000Y-104140000D03*
X185420000Y-114300000D03*
X193040000Y-101600000D03*
X185420000Y-116840000D03*
X193040000Y-99060000D03*
X185420000Y-119380000D03*
X193040000Y-96520000D03*
D16*
X162560000Y-105410000D03*
D17*
X170180000Y-97790000D03*
X165100000Y-105410000D03*
X167640000Y-97790000D03*
X167640000Y-105410000D03*
X165100000Y-97790000D03*
X170180000Y-105410000D03*
X162560000Y-97790000D03*
D16*
X165100000Y-88900000D03*
D17*
X180340000Y-81280000D03*
X167640000Y-88900000D03*
X177800000Y-81280000D03*
X170180000Y-88900000D03*
X175260000Y-81280000D03*
X172720000Y-88900000D03*
X172720000Y-81280000D03*
X175260000Y-88900000D03*
X170180000Y-81280000D03*
X177800000Y-88900000D03*
X167640000Y-81280000D03*
X180340000Y-88900000D03*
X165100000Y-81280000D03*
D20*
X143510000Y-83820000D03*
D21*
X151110000Y-83820000D03*
M02*
