M48
;DRILL file {KiCad 4.0.6} date 2018 June 04, Monday 22:32:34
;FORMAT={2:4/ absolute / inch / suppress leading zeros}
FMAT,2
INCH,TZ
T1C0.016
T2C0.028
T3C0.031
T4C0.039
T5C0.040
T6C0.125
%
G90
G05
M72
T1
X60600Y-36200
X67600Y-32700
X69100Y-33700
X70600Y-33700
X71000Y-38900
X73800Y-36100
X74366Y-35703
T2
X57500Y-37500
X57500Y-40500
X58000Y-44000
X58000Y-47000
X59000Y-37500
X59000Y-39000
X59000Y-40500
X59000Y-42000
X59500Y-44000
X59500Y-47000
X61000Y-44000
X61000Y-47000
X62000Y-32000
X62000Y-35000
X62000Y-37500
X62000Y-39000
X62000Y-40500
X62000Y-42000
X62500Y-44000
X62500Y-47000
X63500Y-32000
X63500Y-35000
X64000Y-44000
X64000Y-47000
X65500Y-44000
X65500Y-47000
X67000Y-44000
X67000Y-47000
X68100Y-36200
X71100Y-36200
X73000Y-32000
X73000Y-35000
X74500Y-32000
X74500Y-35000
X76000Y-32000
X76000Y-35000
T3
X63500Y-36500
X64000Y-38500
X64000Y-41500
X64484Y-36500
X65000Y-32000
X65000Y-35000
X65000Y-38500
X65000Y-41500
X66000Y-32000
X66000Y-35000
X66000Y-38500
X66000Y-41500
X67000Y-32000
X67000Y-35000
X67000Y-38500
X67000Y-41500
X68000Y-32000
X68000Y-35000
X69000Y-32000
X69000Y-35000
X69000Y-41000
X69000Y-42000
X69000Y-43000
X69000Y-44000
X69000Y-45000
X69000Y-46000
X69000Y-47000
X69100Y-38200
X69100Y-39184
X70000Y-32000
X70000Y-35000
X71000Y-32000
X71000Y-35000
X71000Y-41000
X71000Y-42000
X71000Y-43000
X71000Y-44000
X71000Y-45000
X71000Y-46000
X71000Y-47000
X73000Y-38000
X73000Y-39000
X73000Y-40000
X73000Y-41000
X73000Y-42000
X73000Y-43000
X73000Y-44000
X73000Y-45000
X73000Y-46000
X73000Y-47000
X76000Y-38000
X76000Y-39000
X76000Y-40000
X76000Y-41000
X76000Y-42000
X76000Y-43000
X76000Y-44000
X76000Y-45000
X76000Y-46000
X76000Y-47000
T4
X56500Y-33000
X59492Y-33000
T5
X53500Y-38000
X53500Y-39000
X53500Y-40000
X53500Y-41000
X55000Y-43500
X55000Y-44500
X55000Y-45500
X55000Y-46500
X55000Y-47500
X61577Y-29654
X62577Y-29654
X63577Y-29654
X64577Y-29654
X65177Y-48654
X65577Y-29654
X66177Y-48654
X66577Y-29654
X67177Y-48654
X67577Y-29654
X68177Y-48654
X68577Y-29654
X69177Y-48654
X70177Y-29654
X70177Y-48654
X71177Y-29654
X72177Y-29654
X72177Y-48654
X73177Y-29654
X73177Y-48654
X74177Y-29654
X74177Y-48654
X75177Y-29654
X75177Y-48654
X76177Y-29654
X76177Y-48654
X77177Y-29654
X77177Y-48654
T6
X57677Y-48654
X58177Y-29654
X78177Y-35654
X78177Y-46654
T0
M30
