G04 #@! TF.FileFunction,Legend,Top*
%FSLAX46Y46*%
G04 Gerber Fmt 4.6, Leading zero omitted, Abs format (unit mm)*
G04 Created by KiCad (PCBNEW 4.0.6) date 2018 June 04, Monday 22:32:25*
%MOMM*%
%LPD*%
G01*
G04 APERTURE LIST*
%ADD10C,0.150000*%
%ADD11C,0.279400*%
%ADD12C,0.177800*%
%ADD13C,0.254000*%
%ADD14C,0.120000*%
G04 APERTURE END LIST*
D10*
D11*
X195249800Y-114798929D02*
X195196581Y-114865452D01*
X195036924Y-114931976D01*
X194930486Y-114931976D01*
X194770828Y-114865452D01*
X194664390Y-114732405D01*
X194611171Y-114599357D01*
X194557952Y-114333262D01*
X194557952Y-114133690D01*
X194611171Y-113867595D01*
X194664390Y-113734548D01*
X194770828Y-113601500D01*
X194930486Y-113534976D01*
X195036924Y-113534976D01*
X195196581Y-113601500D01*
X195249800Y-113668024D01*
X195675552Y-114532833D02*
X196207743Y-114532833D01*
X195569114Y-114931976D02*
X195941647Y-113534976D01*
X196314181Y-114931976D01*
X196686714Y-114931976D02*
X196686714Y-113534976D01*
X197112467Y-113534976D01*
X197218905Y-113601500D01*
X197272124Y-113668024D01*
X197325343Y-113801071D01*
X197325343Y-114000643D01*
X197272124Y-114133690D01*
X197218905Y-114200214D01*
X197112467Y-114266738D01*
X196686714Y-114266738D01*
X197751095Y-114865452D02*
X197910752Y-114931976D01*
X198176848Y-114931976D01*
X198283286Y-114865452D01*
X198336505Y-114798929D01*
X198389724Y-114665881D01*
X198389724Y-114532833D01*
X198336505Y-114399786D01*
X198283286Y-114333262D01*
X198176848Y-114266738D01*
X197963971Y-114200214D01*
X197857533Y-114133690D01*
X197804314Y-114067167D01*
X197751095Y-113934119D01*
X197751095Y-113801071D01*
X197804314Y-113668024D01*
X197857533Y-113601500D01*
X197963971Y-113534976D01*
X198230067Y-113534976D01*
X198389724Y-113601500D01*
X199400886Y-114931976D02*
X198868695Y-114931976D01*
X198868695Y-113534976D01*
X199773419Y-114931976D02*
X199773419Y-113534976D01*
X200412048Y-114931976D02*
X199933076Y-114133690D01*
X200412048Y-113534976D02*
X199773419Y-114333262D01*
X195053856Y-110994976D02*
X195271570Y-110994976D01*
X195380428Y-111061500D01*
X195489285Y-111194548D01*
X195543713Y-111460643D01*
X195543713Y-111926310D01*
X195489285Y-112192405D01*
X195380428Y-112325452D01*
X195271570Y-112391976D01*
X195053856Y-112391976D01*
X194944999Y-112325452D01*
X194836142Y-112192405D01*
X194781713Y-111926310D01*
X194781713Y-111460643D01*
X194836142Y-111194548D01*
X194944999Y-111061500D01*
X195053856Y-110994976D01*
X196033571Y-112391976D02*
X196033571Y-110994976D01*
X196686714Y-112391976D01*
X196686714Y-110994976D01*
X197775286Y-112391976D02*
X197231000Y-112391976D01*
X197231000Y-110994976D01*
X198156286Y-112391976D02*
X198156286Y-110994976D01*
X198700572Y-112391976D02*
X198700572Y-110994976D01*
X199353715Y-112391976D01*
X199353715Y-110994976D01*
X199898001Y-111660214D02*
X200279001Y-111660214D01*
X200442287Y-112391976D02*
X199898001Y-112391976D01*
X199898001Y-110994976D01*
X200442287Y-110994976D01*
X195900525Y-109851976D02*
X195295763Y-109851976D01*
X195295763Y-108454976D01*
X196565763Y-108454976D02*
X196807667Y-108454976D01*
X196928620Y-108521500D01*
X197049572Y-108654548D01*
X197110048Y-108920643D01*
X197110048Y-109386310D01*
X197049572Y-109652405D01*
X196928620Y-109785452D01*
X196807667Y-109851976D01*
X196565763Y-109851976D01*
X196444810Y-109785452D01*
X196323858Y-109652405D01*
X196263382Y-109386310D01*
X196263382Y-108920643D01*
X196323858Y-108654548D01*
X196444810Y-108521500D01*
X196565763Y-108454976D01*
X198380048Y-109718929D02*
X198319572Y-109785452D01*
X198138143Y-109851976D01*
X198017191Y-109851976D01*
X197835763Y-109785452D01*
X197714810Y-109652405D01*
X197654334Y-109519357D01*
X197593858Y-109253262D01*
X197593858Y-109053690D01*
X197654334Y-108787595D01*
X197714810Y-108654548D01*
X197835763Y-108521500D01*
X198017191Y-108454976D01*
X198138143Y-108454976D01*
X198319572Y-108521500D01*
X198380048Y-108588024D01*
X198863858Y-109452833D02*
X199468620Y-109452833D01*
X198742905Y-109851976D02*
X199166239Y-108454976D01*
X199589572Y-109851976D01*
X200617667Y-109851976D02*
X200012905Y-109851976D01*
X200012905Y-108454976D01*
X197252167Y-104771976D02*
X196586929Y-104771976D01*
X196586929Y-103374976D01*
X198449596Y-104771976D02*
X197651310Y-104771976D01*
X198050453Y-104771976D02*
X198050453Y-103374976D01*
X197917405Y-103574548D01*
X197784358Y-103707595D01*
X197651310Y-103774119D01*
X197252167Y-102231976D02*
X196586929Y-102231976D01*
X196586929Y-100834976D01*
X197651310Y-100968024D02*
X197717834Y-100901500D01*
X197850882Y-100834976D01*
X198183501Y-100834976D01*
X198316548Y-100901500D01*
X198383072Y-100968024D01*
X198449596Y-101101071D01*
X198449596Y-101234119D01*
X198383072Y-101433690D01*
X197584786Y-102231976D01*
X198449596Y-102231976D01*
X197252167Y-99691976D02*
X196586929Y-99691976D01*
X196586929Y-98294976D01*
X197584786Y-98294976D02*
X198449596Y-98294976D01*
X197983929Y-98827167D01*
X198183501Y-98827167D01*
X198316548Y-98893690D01*
X198383072Y-98960214D01*
X198449596Y-99093262D01*
X198449596Y-99425881D01*
X198383072Y-99558929D01*
X198316548Y-99625452D01*
X198183501Y-99691976D01*
X197784358Y-99691976D01*
X197651310Y-99625452D01*
X197584786Y-99558929D01*
X197252167Y-97151976D02*
X196586929Y-97151976D01*
X196586929Y-95754976D01*
X198316548Y-96220643D02*
X198316548Y-97151976D01*
X197983929Y-95688452D02*
X197651310Y-96686310D01*
X198516120Y-96686310D01*
X195389500Y-107311976D02*
X195389500Y-105914976D01*
X196042643Y-107311976D02*
X195552786Y-106513690D01*
X196042643Y-105914976D02*
X195389500Y-106713262D01*
X196913500Y-106580214D02*
X197076786Y-106646738D01*
X197131214Y-106713262D01*
X197185643Y-106846310D01*
X197185643Y-107045881D01*
X197131214Y-107178929D01*
X197076786Y-107245452D01*
X196967928Y-107311976D01*
X196532500Y-107311976D01*
X196532500Y-105914976D01*
X196913500Y-105914976D01*
X197022357Y-105981500D01*
X197076786Y-106048024D01*
X197131214Y-106181071D01*
X197131214Y-106314119D01*
X197076786Y-106447167D01*
X197022357Y-106513690D01*
X196913500Y-106580214D01*
X196532500Y-106580214D01*
X197675500Y-107311976D02*
X197675500Y-105914976D01*
X197947643Y-105914976D01*
X198110928Y-105981500D01*
X198219786Y-106114548D01*
X198274214Y-106247595D01*
X198328643Y-106513690D01*
X198328643Y-106713262D01*
X198274214Y-106979357D01*
X198219786Y-107112405D01*
X198110928Y-107245452D01*
X197947643Y-107311976D01*
X197675500Y-107311976D01*
X199362786Y-107311976D02*
X198818500Y-107311976D01*
X198818500Y-105914976D01*
X199743786Y-107311976D02*
X199743786Y-105914976D01*
X200396929Y-107311976D02*
X199907072Y-106513690D01*
X200396929Y-105914976D02*
X199743786Y-106713262D01*
D12*
X141774333Y-121009833D02*
X141901333Y-121052167D01*
X142113000Y-121052167D01*
X142197667Y-121009833D01*
X142240000Y-120967500D01*
X142282333Y-120882833D01*
X142282333Y-120798167D01*
X142240000Y-120713500D01*
X142197667Y-120671167D01*
X142113000Y-120628833D01*
X141943667Y-120586500D01*
X141859000Y-120544167D01*
X141816667Y-120501833D01*
X141774333Y-120417167D01*
X141774333Y-120332500D01*
X141816667Y-120247833D01*
X141859000Y-120205500D01*
X141943667Y-120163167D01*
X142155333Y-120163167D01*
X142282333Y-120205500D01*
X142663334Y-121052167D02*
X142663334Y-120163167D01*
X143002000Y-120163167D01*
X143086667Y-120205500D01*
X143129000Y-120247833D01*
X143171334Y-120332500D01*
X143171334Y-120459500D01*
X143129000Y-120544167D01*
X143086667Y-120586500D01*
X143002000Y-120628833D01*
X142663334Y-120628833D01*
X141623143Y-118469833D02*
X141732000Y-118512167D01*
X141913429Y-118512167D01*
X141986000Y-118469833D01*
X142022286Y-118427500D01*
X142058571Y-118342833D01*
X142058571Y-118258167D01*
X142022286Y-118173500D01*
X141986000Y-118131167D01*
X141913429Y-118088833D01*
X141768286Y-118046500D01*
X141695714Y-118004167D01*
X141659429Y-117961833D01*
X141623143Y-117877167D01*
X141623143Y-117792500D01*
X141659429Y-117707833D01*
X141695714Y-117665500D01*
X141768286Y-117623167D01*
X141949714Y-117623167D01*
X142058571Y-117665500D01*
X142385143Y-118512167D02*
X142385143Y-117623167D01*
X142675428Y-117623167D01*
X142748000Y-117665500D01*
X142784285Y-117707833D01*
X142820571Y-117792500D01*
X142820571Y-117919500D01*
X142784285Y-118004167D01*
X142748000Y-118046500D01*
X142675428Y-118088833D01*
X142385143Y-118088833D01*
X143546285Y-117665500D02*
X143473714Y-117623167D01*
X143364857Y-117623167D01*
X143256000Y-117665500D01*
X143183428Y-117750167D01*
X143147143Y-117834833D01*
X143110857Y-118004167D01*
X143110857Y-118131167D01*
X143147143Y-118300500D01*
X143183428Y-118385167D01*
X143256000Y-118469833D01*
X143364857Y-118512167D01*
X143437428Y-118512167D01*
X143546285Y-118469833D01*
X143582571Y-118427500D01*
X143582571Y-118131167D01*
X143437428Y-118131167D01*
X143909143Y-118512167D02*
X143909143Y-117623167D01*
X144344571Y-118512167D01*
X144344571Y-117623167D01*
X144707429Y-118512167D02*
X144707429Y-117623167D01*
X144888857Y-117623167D01*
X144997714Y-117665500D01*
X145070286Y-117750167D01*
X145106571Y-117834833D01*
X145142857Y-118004167D01*
X145142857Y-118131167D01*
X145106571Y-118300500D01*
X145070286Y-118385167D01*
X144997714Y-118469833D01*
X144888857Y-118512167D01*
X144707429Y-118512167D01*
X141816667Y-115633500D02*
X142494000Y-115633500D01*
X142155333Y-115972167D02*
X142155333Y-115294833D01*
X143383000Y-115972167D02*
X142875000Y-115972167D01*
X143129000Y-115972167D02*
X143129000Y-115083167D01*
X143044334Y-115210167D01*
X142959667Y-115294833D01*
X142875000Y-115337167D01*
X143721667Y-115167833D02*
X143764001Y-115125500D01*
X143848667Y-115083167D01*
X144060334Y-115083167D01*
X144145001Y-115125500D01*
X144187334Y-115167833D01*
X144229667Y-115252500D01*
X144229667Y-115337167D01*
X144187334Y-115464167D01*
X143679334Y-115972167D01*
X144229667Y-115972167D01*
X144483668Y-115083167D02*
X144780001Y-115972167D01*
X145076334Y-115083167D01*
X141393333Y-110849833D02*
X141520333Y-110892167D01*
X141732000Y-110892167D01*
X141816667Y-110849833D01*
X141859000Y-110807500D01*
X141901333Y-110722833D01*
X141901333Y-110638167D01*
X141859000Y-110553500D01*
X141816667Y-110511167D01*
X141732000Y-110468833D01*
X141562667Y-110426500D01*
X141478000Y-110384167D01*
X141435667Y-110341833D01*
X141393333Y-110257167D01*
X141393333Y-110172500D01*
X141435667Y-110087833D01*
X141478000Y-110045500D01*
X141562667Y-110003167D01*
X141774333Y-110003167D01*
X141901333Y-110045500D01*
X142282334Y-110892167D02*
X142282334Y-110003167D01*
X143171333Y-110045500D02*
X143086667Y-110003167D01*
X142959667Y-110003167D01*
X142832667Y-110045500D01*
X142748000Y-110130167D01*
X142705667Y-110214833D01*
X142663333Y-110384167D01*
X142663333Y-110511167D01*
X142705667Y-110680500D01*
X142748000Y-110765167D01*
X142832667Y-110849833D01*
X142959667Y-110892167D01*
X143044333Y-110892167D01*
X143171333Y-110849833D01*
X143213667Y-110807500D01*
X143213667Y-110511167D01*
X143044333Y-110511167D01*
X143594667Y-110892167D02*
X143594667Y-110003167D01*
X144102667Y-110892167D01*
X144102667Y-110003167D01*
X144483666Y-110638167D02*
X144907000Y-110638167D01*
X144399000Y-110892167D02*
X144695333Y-110003167D01*
X144991666Y-110892167D01*
X145711333Y-110892167D02*
X145288000Y-110892167D01*
X145288000Y-110003167D01*
X142282333Y-112585500D02*
X142197667Y-112543167D01*
X142070667Y-112543167D01*
X141943667Y-112585500D01*
X141859000Y-112670167D01*
X141816667Y-112754833D01*
X141774333Y-112924167D01*
X141774333Y-113051167D01*
X141816667Y-113220500D01*
X141859000Y-113305167D01*
X141943667Y-113389833D01*
X142070667Y-113432167D01*
X142155333Y-113432167D01*
X142282333Y-113389833D01*
X142324667Y-113347500D01*
X142324667Y-113051167D01*
X142155333Y-113051167D01*
X142705667Y-113432167D02*
X142705667Y-112543167D01*
X143213667Y-113432167D01*
X143213667Y-112543167D01*
X143637000Y-113432167D02*
X143637000Y-112543167D01*
X143848666Y-112543167D01*
X143975666Y-112585500D01*
X144060333Y-112670167D01*
X144102666Y-112754833D01*
X144145000Y-112924167D01*
X144145000Y-113051167D01*
X144102666Y-113220500D01*
X144060333Y-113305167D01*
X143975666Y-113389833D01*
X143848666Y-113432167D01*
X143637000Y-113432167D01*
X138006667Y-104203500D02*
X138684000Y-104203500D01*
X138345333Y-104542167D02*
X138345333Y-103864833D01*
X139530667Y-103653167D02*
X139107334Y-103653167D01*
X139065000Y-104076500D01*
X139107334Y-104034167D01*
X139192000Y-103991833D01*
X139403667Y-103991833D01*
X139488334Y-104034167D01*
X139530667Y-104076500D01*
X139573000Y-104161167D01*
X139573000Y-104372833D01*
X139530667Y-104457500D01*
X139488334Y-104499833D01*
X139403667Y-104542167D01*
X139192000Y-104542167D01*
X139107334Y-104499833D01*
X139065000Y-104457500D01*
X139827001Y-103653167D02*
X140123334Y-104542167D01*
X140419667Y-103653167D01*
X138303000Y-101536500D02*
X138430000Y-101578833D01*
X138472333Y-101621167D01*
X138514667Y-101705833D01*
X138514667Y-101832833D01*
X138472333Y-101917500D01*
X138430000Y-101959833D01*
X138345333Y-102002167D01*
X138006667Y-102002167D01*
X138006667Y-101113167D01*
X138303000Y-101113167D01*
X138387667Y-101155500D01*
X138430000Y-101197833D01*
X138472333Y-101282500D01*
X138472333Y-101367167D01*
X138430000Y-101451833D01*
X138387667Y-101494167D01*
X138303000Y-101536500D01*
X138006667Y-101536500D01*
X138853333Y-101748167D02*
X139276667Y-101748167D01*
X138768667Y-102002167D02*
X139065000Y-101113167D01*
X139361333Y-102002167D01*
X140165667Y-101917500D02*
X140123333Y-101959833D01*
X139996333Y-102002167D01*
X139911667Y-102002167D01*
X139784667Y-101959833D01*
X139700000Y-101875167D01*
X139657667Y-101790500D01*
X139615333Y-101621167D01*
X139615333Y-101494167D01*
X139657667Y-101324833D01*
X139700000Y-101240167D01*
X139784667Y-101155500D01*
X139911667Y-101113167D01*
X139996333Y-101113167D01*
X140123333Y-101155500D01*
X140165667Y-101197833D01*
X140546667Y-102002167D02*
X140546667Y-101113167D01*
X141054667Y-102002167D02*
X140673667Y-101494167D01*
X141054667Y-101113167D02*
X140546667Y-101621167D01*
X137964333Y-99419833D02*
X138091333Y-99462167D01*
X138303000Y-99462167D01*
X138387667Y-99419833D01*
X138430000Y-99377500D01*
X138472333Y-99292833D01*
X138472333Y-99208167D01*
X138430000Y-99123500D01*
X138387667Y-99081167D01*
X138303000Y-99038833D01*
X138133667Y-98996500D01*
X138049000Y-98954167D01*
X138006667Y-98911833D01*
X137964333Y-98827167D01*
X137964333Y-98742500D01*
X138006667Y-98657833D01*
X138049000Y-98615500D01*
X138133667Y-98573167D01*
X138345333Y-98573167D01*
X138472333Y-98615500D01*
X138853334Y-98996500D02*
X139149667Y-98996500D01*
X139276667Y-99462167D02*
X138853334Y-99462167D01*
X138853334Y-98573167D01*
X139276667Y-98573167D01*
X139657667Y-99462167D02*
X139657667Y-98573167D01*
X140165667Y-99462167D01*
X140165667Y-98573167D01*
X140589000Y-99462167D02*
X140589000Y-98573167D01*
X140800666Y-98573167D01*
X140927666Y-98615500D01*
X141012333Y-98700167D01*
X141054666Y-98784833D01*
X141097000Y-98954167D01*
X141097000Y-99081167D01*
X141054666Y-99250500D01*
X141012333Y-99335167D01*
X140927666Y-99419833D01*
X140800666Y-99462167D01*
X140589000Y-99462167D01*
X138472333Y-96075500D02*
X138387667Y-96033167D01*
X138260667Y-96033167D01*
X138133667Y-96075500D01*
X138049000Y-96160167D01*
X138006667Y-96244833D01*
X137964333Y-96414167D01*
X137964333Y-96541167D01*
X138006667Y-96710500D01*
X138049000Y-96795167D01*
X138133667Y-96879833D01*
X138260667Y-96922167D01*
X138345333Y-96922167D01*
X138472333Y-96879833D01*
X138514667Y-96837500D01*
X138514667Y-96541167D01*
X138345333Y-96541167D01*
X138895667Y-96922167D02*
X138895667Y-96033167D01*
X139403667Y-96922167D01*
X139403667Y-96033167D01*
X139827000Y-96922167D02*
X139827000Y-96033167D01*
X140038666Y-96033167D01*
X140165666Y-96075500D01*
X140250333Y-96160167D01*
X140292666Y-96244833D01*
X140335000Y-96414167D01*
X140335000Y-96541167D01*
X140292666Y-96710500D01*
X140250333Y-96795167D01*
X140165666Y-96879833D01*
X140038666Y-96922167D01*
X139827000Y-96922167D01*
D13*
X134305524Y-92407618D02*
X135333619Y-92407618D01*
X135454571Y-92359237D01*
X135515048Y-92310856D01*
X135575524Y-92214094D01*
X135575524Y-92020571D01*
X135515048Y-91923809D01*
X135454571Y-91875428D01*
X135333619Y-91827047D01*
X134305524Y-91827047D01*
X135515048Y-91391618D02*
X135575524Y-91246475D01*
X135575524Y-91004571D01*
X135515048Y-90907809D01*
X135454571Y-90859428D01*
X135333619Y-90811047D01*
X135212667Y-90811047D01*
X135091714Y-90859428D01*
X135031238Y-90907809D01*
X134970762Y-91004571D01*
X134910286Y-91198094D01*
X134849810Y-91294856D01*
X134789333Y-91343237D01*
X134668381Y-91391618D01*
X134547429Y-91391618D01*
X134426476Y-91343237D01*
X134366000Y-91294856D01*
X134305524Y-91198094D01*
X134305524Y-90956190D01*
X134366000Y-90811047D01*
X134910286Y-90036952D02*
X134970762Y-89891809D01*
X135031238Y-89843428D01*
X135152190Y-89795047D01*
X135333619Y-89795047D01*
X135454571Y-89843428D01*
X135515048Y-89891809D01*
X135575524Y-89988571D01*
X135575524Y-90375618D01*
X134305524Y-90375618D01*
X134305524Y-90036952D01*
X134366000Y-89940190D01*
X134426476Y-89891809D01*
X134547429Y-89843428D01*
X134668381Y-89843428D01*
X134789333Y-89891809D01*
X134849810Y-89940190D01*
X134910286Y-90036952D01*
X134910286Y-90375618D01*
X135575524Y-88585523D02*
X134305524Y-88585523D01*
X135575524Y-88004952D02*
X134849810Y-88440380D01*
X134305524Y-88004952D02*
X135031238Y-88585523D01*
X134910286Y-87569523D02*
X134910286Y-87230857D01*
X135575524Y-87085714D02*
X135575524Y-87569523D01*
X134305524Y-87569523D01*
X134305524Y-87085714D01*
X134970762Y-86456761D02*
X135575524Y-86456761D01*
X134305524Y-86795428D02*
X134970762Y-86456761D01*
X134305524Y-86118095D01*
X134910286Y-85440762D02*
X134970762Y-85295619D01*
X135031238Y-85247238D01*
X135152190Y-85198857D01*
X135333619Y-85198857D01*
X135454571Y-85247238D01*
X135515048Y-85295619D01*
X135575524Y-85392381D01*
X135575524Y-85779428D01*
X134305524Y-85779428D01*
X134305524Y-85440762D01*
X134366000Y-85344000D01*
X134426476Y-85295619D01*
X134547429Y-85247238D01*
X134668381Y-85247238D01*
X134789333Y-85295619D01*
X134849810Y-85344000D01*
X134910286Y-85440762D01*
X134910286Y-85779428D01*
X134305524Y-84569904D02*
X134305524Y-84376381D01*
X134366000Y-84279619D01*
X134486952Y-84182857D01*
X134728857Y-84134476D01*
X135152190Y-84134476D01*
X135394095Y-84182857D01*
X135515048Y-84279619D01*
X135575524Y-84376381D01*
X135575524Y-84569904D01*
X135515048Y-84666666D01*
X135394095Y-84763428D01*
X135152190Y-84811809D01*
X134728857Y-84811809D01*
X134486952Y-84763428D01*
X134366000Y-84666666D01*
X134305524Y-84569904D01*
X135212667Y-83747428D02*
X135212667Y-83263619D01*
X135575524Y-83844190D02*
X134305524Y-83505523D01*
X135575524Y-83166857D01*
X135575524Y-82247619D02*
X134970762Y-82586285D01*
X135575524Y-82828190D02*
X134305524Y-82828190D01*
X134305524Y-82441143D01*
X134366000Y-82344381D01*
X134426476Y-82296000D01*
X134547429Y-82247619D01*
X134728857Y-82247619D01*
X134849810Y-82296000D01*
X134910286Y-82344381D01*
X134970762Y-82441143D01*
X134970762Y-82828190D01*
X135575524Y-81812190D02*
X134305524Y-81812190D01*
X134305524Y-81570285D01*
X134366000Y-81425143D01*
X134486952Y-81328381D01*
X134607905Y-81280000D01*
X134849810Y-81231619D01*
X135031238Y-81231619D01*
X135273143Y-81280000D01*
X135394095Y-81328381D01*
X135515048Y-81425143D01*
X135575524Y-81570285D01*
X135575524Y-81812190D01*
X135515048Y-80070476D02*
X135575524Y-79925333D01*
X135575524Y-79683429D01*
X135515048Y-79586667D01*
X135454571Y-79538286D01*
X135333619Y-79489905D01*
X135212667Y-79489905D01*
X135091714Y-79538286D01*
X135031238Y-79586667D01*
X134970762Y-79683429D01*
X134910286Y-79876952D01*
X134849810Y-79973714D01*
X134789333Y-80022095D01*
X134668381Y-80070476D01*
X134547429Y-80070476D01*
X134426476Y-80022095D01*
X134366000Y-79973714D01*
X134305524Y-79876952D01*
X134305524Y-79635048D01*
X134366000Y-79489905D01*
X135575524Y-79054476D02*
X134305524Y-79054476D01*
X134910286Y-79054476D02*
X134910286Y-78473905D01*
X135575524Y-78473905D02*
X134305524Y-78473905D01*
X135575524Y-77990095D02*
X134305524Y-77990095D01*
X134910286Y-77506285D02*
X134910286Y-77167619D01*
X135575524Y-77022476D02*
X135575524Y-77506285D01*
X134305524Y-77506285D01*
X134305524Y-77022476D01*
X135575524Y-76103238D02*
X135575524Y-76587047D01*
X134305524Y-76587047D01*
X135575524Y-75764571D02*
X134305524Y-75764571D01*
X134305524Y-75522666D01*
X134366000Y-75377524D01*
X134486952Y-75280762D01*
X134607905Y-75232381D01*
X134849810Y-75184000D01*
X135031238Y-75184000D01*
X135273143Y-75232381D01*
X135394095Y-75280762D01*
X135515048Y-75377524D01*
X135575524Y-75522666D01*
X135575524Y-75764571D01*
X137069286Y-91004571D02*
X137069286Y-91343237D01*
X137734524Y-91343237D02*
X136464524Y-91343237D01*
X136464524Y-90859428D01*
X136464524Y-90278856D02*
X136464524Y-90085333D01*
X136525000Y-89988571D01*
X136645952Y-89891809D01*
X136887857Y-89843428D01*
X137311190Y-89843428D01*
X137553095Y-89891809D01*
X137674048Y-89988571D01*
X137734524Y-90085333D01*
X137734524Y-90278856D01*
X137674048Y-90375618D01*
X137553095Y-90472380D01*
X137311190Y-90520761D01*
X136887857Y-90520761D01*
X136645952Y-90472380D01*
X136525000Y-90375618D01*
X136464524Y-90278856D01*
X137734524Y-88827428D02*
X137129762Y-89166094D01*
X137734524Y-89407999D02*
X136464524Y-89407999D01*
X136464524Y-89020952D01*
X136525000Y-88924190D01*
X136585476Y-88875809D01*
X136706429Y-88827428D01*
X136887857Y-88827428D01*
X137008810Y-88875809D01*
X137069286Y-88924190D01*
X137129762Y-89020952D01*
X137129762Y-89407999D01*
X136464524Y-87763047D02*
X137734524Y-87424380D01*
X136464524Y-87085714D01*
X136464524Y-86892190D02*
X136464524Y-86311619D01*
X137734524Y-86601904D02*
X136464524Y-86601904D01*
X137734524Y-85440762D02*
X137734524Y-86021333D01*
X137734524Y-85731047D02*
X136464524Y-85731047D01*
X136645952Y-85827809D01*
X136766905Y-85924571D01*
X136827381Y-86021333D01*
X136464524Y-84811809D02*
X136464524Y-84715048D01*
X136525000Y-84618286D01*
X136585476Y-84569905D01*
X136706429Y-84521524D01*
X136948333Y-84473143D01*
X137250714Y-84473143D01*
X137492619Y-84521524D01*
X137613571Y-84569905D01*
X137674048Y-84618286D01*
X137734524Y-84715048D01*
X137734524Y-84811809D01*
X137674048Y-84908571D01*
X137613571Y-84956952D01*
X137492619Y-85005333D01*
X137250714Y-85053714D01*
X136948333Y-85053714D01*
X136706429Y-85005333D01*
X136585476Y-84956952D01*
X136525000Y-84908571D01*
X136464524Y-84811809D01*
X136464524Y-83844190D02*
X136464524Y-83747429D01*
X136525000Y-83650667D01*
X136585476Y-83602286D01*
X136706429Y-83553905D01*
X136948333Y-83505524D01*
X137250714Y-83505524D01*
X137492619Y-83553905D01*
X137613571Y-83602286D01*
X137674048Y-83650667D01*
X137734524Y-83747429D01*
X137734524Y-83844190D01*
X137674048Y-83940952D01*
X137613571Y-83989333D01*
X137492619Y-84037714D01*
X137250714Y-84086095D01*
X136948333Y-84086095D01*
X136706429Y-84037714D01*
X136585476Y-83989333D01*
X136525000Y-83940952D01*
X136464524Y-83844190D01*
X137734524Y-81715429D02*
X137129762Y-82054095D01*
X137734524Y-82296000D02*
X136464524Y-82296000D01*
X136464524Y-81908953D01*
X136525000Y-81812191D01*
X136585476Y-81763810D01*
X136706429Y-81715429D01*
X136887857Y-81715429D01*
X137008810Y-81763810D01*
X137069286Y-81812191D01*
X137129762Y-81908953D01*
X137129762Y-82296000D01*
X137069286Y-81280000D02*
X137069286Y-80941334D01*
X137734524Y-80796191D02*
X137734524Y-81280000D01*
X136464524Y-81280000D01*
X136464524Y-80796191D01*
X136464524Y-80505905D02*
X137734524Y-80167238D01*
X136464524Y-79828572D01*
X137613571Y-79489905D02*
X137674048Y-79441524D01*
X137734524Y-79489905D01*
X137674048Y-79538286D01*
X137613571Y-79489905D01*
X137734524Y-79489905D01*
X136585476Y-78280381D02*
X136525000Y-78232000D01*
X136464524Y-78135238D01*
X136464524Y-77893334D01*
X136525000Y-77796572D01*
X136585476Y-77748191D01*
X136706429Y-77699810D01*
X136827381Y-77699810D01*
X137008810Y-77748191D01*
X137734524Y-78328762D01*
X137734524Y-77699810D01*
X137613571Y-77264381D02*
X137674048Y-77216000D01*
X137734524Y-77264381D01*
X137674048Y-77312762D01*
X137613571Y-77264381D01*
X137734524Y-77264381D01*
X137734524Y-76248381D02*
X137734524Y-76828952D01*
X137734524Y-76538666D02*
X136464524Y-76538666D01*
X136645952Y-76635428D01*
X136766905Y-76732190D01*
X136827381Y-76828952D01*
X138744476Y-88391999D02*
X138684000Y-88343618D01*
X138623524Y-88246856D01*
X138623524Y-88004952D01*
X138684000Y-87908190D01*
X138744476Y-87859809D01*
X138865429Y-87811428D01*
X138986381Y-87811428D01*
X139167810Y-87859809D01*
X139893524Y-88440380D01*
X139893524Y-87811428D01*
X138623524Y-87182475D02*
X138623524Y-87085714D01*
X138684000Y-86988952D01*
X138744476Y-86940571D01*
X138865429Y-86892190D01*
X139107333Y-86843809D01*
X139409714Y-86843809D01*
X139651619Y-86892190D01*
X139772571Y-86940571D01*
X139833048Y-86988952D01*
X139893524Y-87085714D01*
X139893524Y-87182475D01*
X139833048Y-87279237D01*
X139772571Y-87327618D01*
X139651619Y-87375999D01*
X139409714Y-87424380D01*
X139107333Y-87424380D01*
X138865429Y-87375999D01*
X138744476Y-87327618D01*
X138684000Y-87279237D01*
X138623524Y-87182475D01*
X139893524Y-85876190D02*
X139893524Y-86456761D01*
X139893524Y-86166475D02*
X138623524Y-86166475D01*
X138804952Y-86263237D01*
X138925905Y-86359999D01*
X138986381Y-86456761D01*
X139167810Y-85295618D02*
X139107333Y-85392380D01*
X139046857Y-85440761D01*
X138925905Y-85489142D01*
X138865429Y-85489142D01*
X138744476Y-85440761D01*
X138684000Y-85392380D01*
X138623524Y-85295618D01*
X138623524Y-85102095D01*
X138684000Y-85005333D01*
X138744476Y-84956952D01*
X138865429Y-84908571D01*
X138925905Y-84908571D01*
X139046857Y-84956952D01*
X139107333Y-85005333D01*
X139167810Y-85102095D01*
X139167810Y-85295618D01*
X139228286Y-85392380D01*
X139288762Y-85440761D01*
X139409714Y-85489142D01*
X139651619Y-85489142D01*
X139772571Y-85440761D01*
X139833048Y-85392380D01*
X139893524Y-85295618D01*
X139893524Y-85102095D01*
X139833048Y-85005333D01*
X139772571Y-84956952D01*
X139651619Y-84908571D01*
X139409714Y-84908571D01*
X139288762Y-84956952D01*
X139228286Y-85005333D01*
X139167810Y-85102095D01*
X139893524Y-83118476D02*
X139288762Y-83457142D01*
X139893524Y-83699047D02*
X138623524Y-83699047D01*
X138623524Y-83312000D01*
X138684000Y-83215238D01*
X138744476Y-83166857D01*
X138865429Y-83118476D01*
X139046857Y-83118476D01*
X139167810Y-83166857D01*
X139228286Y-83215238D01*
X139288762Y-83312000D01*
X139288762Y-83699047D01*
X139288762Y-82489523D02*
X139893524Y-82489523D01*
X138623524Y-82828190D02*
X139288762Y-82489523D01*
X138623524Y-82150857D01*
X138623524Y-81812190D02*
X139651619Y-81812190D01*
X139772571Y-81763809D01*
X139833048Y-81715428D01*
X139893524Y-81618666D01*
X139893524Y-81425143D01*
X139833048Y-81328381D01*
X139772571Y-81280000D01*
X139651619Y-81231619D01*
X138623524Y-81231619D01*
X139893524Y-80215619D02*
X139893524Y-80796190D01*
X139893524Y-80505904D02*
X138623524Y-80505904D01*
X138804952Y-80602666D01*
X138925905Y-80699428D01*
X138986381Y-80796190D01*
X138623524Y-79586666D02*
X138623524Y-79489905D01*
X138684000Y-79393143D01*
X138744476Y-79344762D01*
X138865429Y-79296381D01*
X139107333Y-79248000D01*
X139409714Y-79248000D01*
X139651619Y-79296381D01*
X139772571Y-79344762D01*
X139833048Y-79393143D01*
X139893524Y-79489905D01*
X139893524Y-79586666D01*
X139833048Y-79683428D01*
X139772571Y-79731809D01*
X139651619Y-79780190D01*
X139409714Y-79828571D01*
X139107333Y-79828571D01*
X138865429Y-79780190D01*
X138744476Y-79731809D01*
X138684000Y-79683428D01*
X138623524Y-79586666D01*
D14*
X159980000Y-91400000D02*
X165100000Y-91400000D01*
X159980000Y-94020000D02*
X165100000Y-94020000D01*
X159980000Y-91400000D02*
X159980000Y-94020000D01*
X165100000Y-91400000D02*
X165100000Y-94020000D01*
X176824000Y-95718000D02*
X176824000Y-100838000D01*
X174204000Y-95718000D02*
X174204000Y-100838000D01*
X176824000Y-95718000D02*
X174204000Y-95718000D01*
X176824000Y-100838000D02*
X174204000Y-100838000D01*
D10*
X141000000Y-122200000D02*
X141000000Y-120650000D01*
X139700000Y-122200000D02*
X141000000Y-122200000D01*
X135509000Y-120777000D02*
X129667000Y-120777000D01*
X129667000Y-120777000D02*
X129667000Y-120523000D01*
X129667000Y-120523000D02*
X135509000Y-120523000D01*
X135509000Y-120523000D02*
X135509000Y-120650000D01*
X135509000Y-120650000D02*
X129667000Y-120650000D01*
X138176000Y-120904000D02*
X138557000Y-120904000D01*
X138176000Y-120396000D02*
X138557000Y-120396000D01*
X138176000Y-118364000D02*
X138557000Y-118364000D01*
X138176000Y-117856000D02*
X138557000Y-117856000D01*
X138176000Y-115824000D02*
X138557000Y-115824000D01*
X138176000Y-115316000D02*
X138557000Y-115316000D01*
X138176000Y-113284000D02*
X138557000Y-113284000D01*
X138176000Y-112776000D02*
X138557000Y-112776000D01*
X138176000Y-110236000D02*
X138557000Y-110236000D01*
X138176000Y-110744000D02*
X138557000Y-110744000D01*
X135636000Y-119380000D02*
X135636000Y-121920000D01*
X129540000Y-120396000D02*
X135636000Y-120396000D01*
X129540000Y-120904000D02*
X129540000Y-120396000D01*
X135636000Y-120904000D02*
X129540000Y-120904000D01*
X138176000Y-119380000D02*
X135636000Y-119380000D01*
X138176000Y-121920000D02*
X138176000Y-119380000D01*
X138176000Y-121920000D02*
X135636000Y-121920000D01*
X138176000Y-116840000D02*
X135636000Y-116840000D01*
X138176000Y-116840000D02*
X138176000Y-114300000D01*
X138176000Y-114300000D02*
X135636000Y-114300000D01*
X135636000Y-115824000D02*
X129540000Y-115824000D01*
X129540000Y-115824000D02*
X129540000Y-115316000D01*
X129540000Y-115316000D02*
X135636000Y-115316000D01*
X135636000Y-114300000D02*
X135636000Y-116840000D01*
X135636000Y-116840000D02*
X135636000Y-119380000D01*
X129540000Y-117856000D02*
X135636000Y-117856000D01*
X129540000Y-118364000D02*
X129540000Y-117856000D01*
X135636000Y-118364000D02*
X129540000Y-118364000D01*
X138176000Y-116840000D02*
X135636000Y-116840000D01*
X138176000Y-119380000D02*
X138176000Y-116840000D01*
X138176000Y-119380000D02*
X135636000Y-119380000D01*
X138176000Y-111760000D02*
X135636000Y-111760000D01*
X138176000Y-111760000D02*
X138176000Y-109220000D01*
X138176000Y-109220000D02*
X135636000Y-109220000D01*
X135636000Y-110744000D02*
X129540000Y-110744000D01*
X129540000Y-110744000D02*
X129540000Y-110236000D01*
X129540000Y-110236000D02*
X135636000Y-110236000D01*
X135636000Y-109220000D02*
X135636000Y-111760000D01*
X135636000Y-111760000D02*
X135636000Y-114300000D01*
X129540000Y-112776000D02*
X135636000Y-112776000D01*
X129540000Y-113284000D02*
X129540000Y-112776000D01*
X135636000Y-113284000D02*
X129540000Y-113284000D01*
X138176000Y-111760000D02*
X135636000Y-111760000D01*
X138176000Y-114300000D02*
X138176000Y-111760000D01*
X138176000Y-114300000D02*
X135636000Y-114300000D01*
X134620000Y-97790000D02*
X134620000Y-105410000D01*
X137160000Y-97790000D02*
X137160000Y-105410000D01*
X137440000Y-94970000D02*
X137440000Y-96520000D01*
X134620000Y-105410000D02*
X137160000Y-105410000D01*
X137160000Y-97790000D02*
X134620000Y-97790000D01*
X134340000Y-96520000D02*
X134340000Y-94970000D01*
X134340000Y-94970000D02*
X137440000Y-94970000D01*
D14*
X148180000Y-113710000D02*
X146460000Y-113710000D01*
X146460000Y-113710000D02*
X146460000Y-117430000D01*
X146460000Y-117430000D02*
X148180000Y-117430000D01*
X148180000Y-117430000D02*
X148180000Y-113710000D01*
X147320000Y-112640000D02*
X147320000Y-113710000D01*
X147320000Y-118500000D02*
X147320000Y-117430000D01*
X160430000Y-86950000D02*
X162150000Y-86950000D01*
X162150000Y-86950000D02*
X162150000Y-83230000D01*
X162150000Y-83230000D02*
X160430000Y-83230000D01*
X160430000Y-83230000D02*
X160430000Y-86950000D01*
X161290000Y-88020000D02*
X161290000Y-86950000D01*
X161290000Y-82160000D02*
X161290000Y-83230000D01*
X167230000Y-113710000D02*
X165510000Y-113710000D01*
X165510000Y-113710000D02*
X165510000Y-117430000D01*
X165510000Y-117430000D02*
X167230000Y-117430000D01*
X167230000Y-117430000D02*
X167230000Y-113710000D01*
X166370000Y-112640000D02*
X166370000Y-113710000D01*
X166370000Y-118500000D02*
X166370000Y-117430000D01*
X157890000Y-117430000D02*
X159610000Y-117430000D01*
X159610000Y-117430000D02*
X159610000Y-113710000D01*
X159610000Y-113710000D02*
X157890000Y-113710000D01*
X157890000Y-113710000D02*
X157890000Y-117430000D01*
X158750000Y-118500000D02*
X158750000Y-117430000D01*
X158750000Y-112640000D02*
X158750000Y-113710000D01*
X163420000Y-113710000D02*
X161700000Y-113710000D01*
X161700000Y-113710000D02*
X161700000Y-117430000D01*
X161700000Y-117430000D02*
X163420000Y-117430000D01*
X163420000Y-117430000D02*
X163420000Y-113710000D01*
X162560000Y-112640000D02*
X162560000Y-113710000D01*
X162560000Y-118500000D02*
X162560000Y-117430000D01*
X150270000Y-117430000D02*
X151990000Y-117430000D01*
X151990000Y-117430000D02*
X151990000Y-113710000D01*
X151990000Y-113710000D02*
X150270000Y-113710000D01*
X150270000Y-113710000D02*
X150270000Y-117430000D01*
X151130000Y-118500000D02*
X151130000Y-117430000D01*
X151130000Y-112640000D02*
X151130000Y-113710000D01*
X154080000Y-117430000D02*
X155800000Y-117430000D01*
X155800000Y-117430000D02*
X155800000Y-113710000D01*
X155800000Y-113710000D02*
X154080000Y-113710000D01*
X154080000Y-113710000D02*
X154080000Y-117430000D01*
X154940000Y-118500000D02*
X154940000Y-117430000D01*
X154940000Y-112640000D02*
X154940000Y-113710000D01*
X169320000Y-117430000D02*
X171040000Y-117430000D01*
X171040000Y-117430000D02*
X171040000Y-113710000D01*
X171040000Y-113710000D02*
X169320000Y-113710000D01*
X169320000Y-113710000D02*
X169320000Y-117430000D01*
X170180000Y-118500000D02*
X170180000Y-117430000D01*
X170180000Y-112640000D02*
X170180000Y-113710000D01*
X145190000Y-100920000D02*
X146910000Y-100920000D01*
X146910000Y-100920000D02*
X146910000Y-97200000D01*
X146910000Y-97200000D02*
X145190000Y-97200000D01*
X145190000Y-97200000D02*
X145190000Y-100920000D01*
X146050000Y-101990000D02*
X146050000Y-100920000D01*
X146050000Y-96130000D02*
X146050000Y-97200000D01*
X188370000Y-86950000D02*
X190090000Y-86950000D01*
X190090000Y-86950000D02*
X190090000Y-83230000D01*
X190090000Y-83230000D02*
X188370000Y-83230000D01*
X188370000Y-83230000D02*
X188370000Y-86950000D01*
X189230000Y-88020000D02*
X189230000Y-86950000D01*
X189230000Y-82160000D02*
X189230000Y-83230000D01*
X158340000Y-83230000D02*
X156620000Y-83230000D01*
X156620000Y-83230000D02*
X156620000Y-86950000D01*
X156620000Y-86950000D02*
X158340000Y-86950000D01*
X158340000Y-86950000D02*
X158340000Y-83230000D01*
X157480000Y-82160000D02*
X157480000Y-83230000D01*
X157480000Y-88020000D02*
X157480000Y-86950000D01*
X184560000Y-86950000D02*
X186280000Y-86950000D01*
X186280000Y-86950000D02*
X186280000Y-83230000D01*
X186280000Y-83230000D02*
X184560000Y-83230000D01*
X184560000Y-83230000D02*
X184560000Y-86950000D01*
X185420000Y-88020000D02*
X185420000Y-86950000D01*
X185420000Y-82160000D02*
X185420000Y-83230000D01*
X151810000Y-94390000D02*
X151810000Y-96110000D01*
X151810000Y-96110000D02*
X155530000Y-96110000D01*
X155530000Y-96110000D02*
X155530000Y-94390000D01*
X155530000Y-94390000D02*
X151810000Y-94390000D01*
X150740000Y-95250000D02*
X151810000Y-95250000D01*
X156600000Y-95250000D02*
X155530000Y-95250000D01*
X151810000Y-98200000D02*
X151810000Y-99920000D01*
X151810000Y-99920000D02*
X155530000Y-99920000D01*
X155530000Y-99920000D02*
X155530000Y-98200000D01*
X155530000Y-98200000D02*
X151810000Y-98200000D01*
X150740000Y-99060000D02*
X151810000Y-99060000D01*
X156600000Y-99060000D02*
X155530000Y-99060000D01*
X174924000Y-91088000D02*
X174924000Y-92808000D01*
X174924000Y-92808000D02*
X178644000Y-92808000D01*
X178644000Y-92808000D02*
X178644000Y-91088000D01*
X178644000Y-91088000D02*
X174924000Y-91088000D01*
X173854000Y-91948000D02*
X174924000Y-91948000D01*
X179714000Y-91948000D02*
X178644000Y-91948000D01*
X192180000Y-86950000D02*
X193900000Y-86950000D01*
X193900000Y-86950000D02*
X193900000Y-83230000D01*
X193900000Y-83230000D02*
X192180000Y-83230000D01*
X192180000Y-83230000D02*
X192180000Y-86950000D01*
X193040000Y-88020000D02*
X193040000Y-86950000D01*
X193040000Y-82160000D02*
X193040000Y-83230000D01*
X151810000Y-102010000D02*
X151810000Y-103730000D01*
X151810000Y-103730000D02*
X155530000Y-103730000D01*
X155530000Y-103730000D02*
X155530000Y-102010000D01*
X155530000Y-102010000D02*
X151810000Y-102010000D01*
X150740000Y-102870000D02*
X151810000Y-102870000D01*
X156600000Y-102870000D02*
X155530000Y-102870000D01*
X155530000Y-107540000D02*
X155530000Y-105820000D01*
X155530000Y-105820000D02*
X151810000Y-105820000D01*
X151810000Y-105820000D02*
X151810000Y-107540000D01*
X151810000Y-107540000D02*
X155530000Y-107540000D01*
X156600000Y-106680000D02*
X155530000Y-106680000D01*
X150740000Y-106680000D02*
X151810000Y-106680000D01*
X176660000Y-102700000D02*
X173860000Y-102700000D01*
X173860000Y-102700000D02*
X173860000Y-120820000D01*
X173860000Y-120820000D02*
X176660000Y-120820000D01*
X176660000Y-120820000D02*
X176660000Y-102700000D01*
X176660000Y-105410000D02*
X173860000Y-105410000D01*
X181740000Y-102700000D02*
X178940000Y-102700000D01*
X178940000Y-102700000D02*
X178940000Y-120820000D01*
X178940000Y-120820000D02*
X181740000Y-120820000D01*
X181740000Y-120820000D02*
X181740000Y-102700000D01*
X181740000Y-105410000D02*
X178940000Y-105410000D01*
X190230000Y-95190000D02*
G75*
G02X188230000Y-95190000I-1000000J0D01*
G01*
X188230000Y-95190000D02*
X186580000Y-95190000D01*
X186580000Y-95190000D02*
X186580000Y-120710000D01*
X186580000Y-120710000D02*
X191880000Y-120710000D01*
X191880000Y-120710000D02*
X191880000Y-95190000D01*
X191880000Y-95190000D02*
X190230000Y-95190000D01*
X161230000Y-100600000D02*
G75*
G02X161230000Y-102600000I0J-1000000D01*
G01*
X161230000Y-102600000D02*
X161230000Y-104250000D01*
X161230000Y-104250000D02*
X171510000Y-104250000D01*
X171510000Y-104250000D02*
X171510000Y-98950000D01*
X171510000Y-98950000D02*
X161230000Y-98950000D01*
X161230000Y-98950000D02*
X161230000Y-100600000D01*
X161170000Y-106740000D02*
X171570000Y-106740000D01*
X171570000Y-106740000D02*
X171570000Y-96460000D01*
X171570000Y-96460000D02*
X161170000Y-96460000D01*
X161170000Y-96460000D02*
X161170000Y-106740000D01*
X163770000Y-84090000D02*
G75*
G02X163770000Y-86090000I0J-1000000D01*
G01*
X163770000Y-86090000D02*
X163770000Y-87740000D01*
X163770000Y-87740000D02*
X181670000Y-87740000D01*
X181670000Y-87740000D02*
X181670000Y-82440000D01*
X181670000Y-82440000D02*
X163770000Y-82440000D01*
X163770000Y-82440000D02*
X163770000Y-84090000D01*
X163710000Y-90230000D02*
X181730000Y-90230000D01*
X181730000Y-90230000D02*
X181730000Y-79950000D01*
X181730000Y-79950000D02*
X163710000Y-79950000D01*
X163710000Y-79950000D02*
X163710000Y-90230000D01*
X153410000Y-83820000D02*
G75*
G03X153410000Y-83820000I-6100000J0D01*
G01*
D10*
X190919620Y-103252000D02*
X188379620Y-105284000D01*
X188379620Y-105284000D02*
X188379620Y-101220000D01*
X188379620Y-101220000D02*
X190919620Y-103252000D01*
X191173620Y-105284000D02*
X191173620Y-101474000D01*
X158583334Y-91797143D02*
X158535715Y-91844762D01*
X158392858Y-91892381D01*
X158297620Y-91892381D01*
X158154762Y-91844762D01*
X158059524Y-91749524D01*
X158011905Y-91654286D01*
X157964286Y-91463810D01*
X157964286Y-91320952D01*
X158011905Y-91130476D01*
X158059524Y-91035238D01*
X158154762Y-90940000D01*
X158297620Y-90892381D01*
X158392858Y-90892381D01*
X158535715Y-90940000D01*
X158583334Y-90987619D01*
X159535715Y-91892381D02*
X158964286Y-91892381D01*
X159250000Y-91892381D02*
X159250000Y-90892381D01*
X159154762Y-91035238D01*
X159059524Y-91130476D01*
X158964286Y-91178095D01*
X160230476Y-95627143D02*
X160278095Y-95674762D01*
X160230476Y-95722381D01*
X160182857Y-95674762D01*
X160230476Y-95627143D01*
X160230476Y-95722381D01*
X160897142Y-94722381D02*
X160992381Y-94722381D01*
X161087619Y-94770000D01*
X161135238Y-94817619D01*
X161182857Y-94912857D01*
X161230476Y-95103333D01*
X161230476Y-95341429D01*
X161182857Y-95531905D01*
X161135238Y-95627143D01*
X161087619Y-95674762D01*
X160992381Y-95722381D01*
X160897142Y-95722381D01*
X160801904Y-95674762D01*
X160754285Y-95627143D01*
X160706666Y-95531905D01*
X160659047Y-95341429D01*
X160659047Y-95103333D01*
X160706666Y-94912857D01*
X160754285Y-94817619D01*
X160801904Y-94770000D01*
X160897142Y-94722381D01*
X162087619Y-95055714D02*
X162087619Y-95722381D01*
X161849523Y-94674762D02*
X161611428Y-95389048D01*
X162230476Y-95389048D01*
X162516190Y-94722381D02*
X163182857Y-94722381D01*
X162754285Y-95722381D01*
X163992381Y-95055714D02*
X163992381Y-95722381D01*
X163563809Y-95055714D02*
X163563809Y-95579524D01*
X163611428Y-95674762D01*
X163706666Y-95722381D01*
X163849524Y-95722381D01*
X163944762Y-95674762D01*
X163992381Y-95627143D01*
X164801905Y-95198571D02*
X164468571Y-95198571D01*
X164468571Y-95722381D02*
X164468571Y-94722381D01*
X164944762Y-94722381D01*
X174601143Y-101004666D02*
X174648762Y-101052285D01*
X174696381Y-101195142D01*
X174696381Y-101290380D01*
X174648762Y-101433238D01*
X174553524Y-101528476D01*
X174458286Y-101576095D01*
X174267810Y-101623714D01*
X174124952Y-101623714D01*
X173934476Y-101576095D01*
X173839238Y-101528476D01*
X173744000Y-101433238D01*
X173696381Y-101290380D01*
X173696381Y-101195142D01*
X173744000Y-101052285D01*
X173791619Y-101004666D01*
X173791619Y-100623714D02*
X173744000Y-100576095D01*
X173696381Y-100480857D01*
X173696381Y-100242761D01*
X173744000Y-100147523D01*
X173791619Y-100099904D01*
X173886857Y-100052285D01*
X173982095Y-100052285D01*
X174124952Y-100099904D01*
X174696381Y-100671333D01*
X174696381Y-100052285D01*
X177506381Y-100417047D02*
X177506381Y-100607524D01*
X177554000Y-100702762D01*
X177601619Y-100750381D01*
X177744476Y-100845619D01*
X177934952Y-100893238D01*
X178315905Y-100893238D01*
X178411143Y-100845619D01*
X178458762Y-100798000D01*
X178506381Y-100702762D01*
X178506381Y-100512285D01*
X178458762Y-100417047D01*
X178411143Y-100369428D01*
X178315905Y-100321809D01*
X178077810Y-100321809D01*
X177982571Y-100369428D01*
X177934952Y-100417047D01*
X177887333Y-100512285D01*
X177887333Y-100702762D01*
X177934952Y-100798000D01*
X177982571Y-100845619D01*
X178077810Y-100893238D01*
X177934952Y-99750381D02*
X177887333Y-99845619D01*
X177839714Y-99893238D01*
X177744476Y-99940857D01*
X177696857Y-99940857D01*
X177601619Y-99893238D01*
X177554000Y-99845619D01*
X177506381Y-99750381D01*
X177506381Y-99559904D01*
X177554000Y-99464666D01*
X177601619Y-99417047D01*
X177696857Y-99369428D01*
X177744476Y-99369428D01*
X177839714Y-99417047D01*
X177887333Y-99464666D01*
X177934952Y-99559904D01*
X177934952Y-99750381D01*
X177982571Y-99845619D01*
X178030190Y-99893238D01*
X178125429Y-99940857D01*
X178315905Y-99940857D01*
X178411143Y-99893238D01*
X178458762Y-99845619D01*
X178506381Y-99750381D01*
X178506381Y-99559904D01*
X178458762Y-99464666D01*
X178411143Y-99417047D01*
X178315905Y-99369428D01*
X178125429Y-99369428D01*
X178030190Y-99417047D01*
X177982571Y-99464666D01*
X177934952Y-99559904D01*
X177506381Y-98750381D02*
X177506381Y-98655142D01*
X177554000Y-98559904D01*
X177601619Y-98512285D01*
X177696857Y-98464666D01*
X177887333Y-98417047D01*
X178125429Y-98417047D01*
X178315905Y-98464666D01*
X178411143Y-98512285D01*
X178458762Y-98559904D01*
X178506381Y-98655142D01*
X178506381Y-98750381D01*
X178458762Y-98845619D01*
X178411143Y-98893238D01*
X178315905Y-98940857D01*
X178125429Y-98988476D01*
X177887333Y-98988476D01*
X177696857Y-98940857D01*
X177601619Y-98893238D01*
X177554000Y-98845619D01*
X177506381Y-98750381D01*
X177506381Y-97798000D02*
X177506381Y-97702761D01*
X177554000Y-97607523D01*
X177601619Y-97559904D01*
X177696857Y-97512285D01*
X177887333Y-97464666D01*
X178125429Y-97464666D01*
X178315905Y-97512285D01*
X178411143Y-97559904D01*
X178458762Y-97607523D01*
X178506381Y-97702761D01*
X178506381Y-97798000D01*
X178458762Y-97893238D01*
X178411143Y-97940857D01*
X178315905Y-97988476D01*
X178125429Y-98036095D01*
X177887333Y-98036095D01*
X177696857Y-97988476D01*
X177601619Y-97940857D01*
X177554000Y-97893238D01*
X177506381Y-97798000D01*
X177839714Y-97036095D02*
X178839714Y-97036095D01*
X177887333Y-97036095D02*
X177839714Y-96940857D01*
X177839714Y-96750380D01*
X177887333Y-96655142D01*
X177934952Y-96607523D01*
X178030190Y-96559904D01*
X178315905Y-96559904D01*
X178411143Y-96607523D01*
X178458762Y-96655142D01*
X178506381Y-96750380D01*
X178506381Y-96940857D01*
X178458762Y-97036095D01*
X177982571Y-95797999D02*
X177982571Y-96131333D01*
X178506381Y-96131333D02*
X177506381Y-96131333D01*
X177506381Y-95655142D01*
X135556667Y-107402381D02*
X135556667Y-108116667D01*
X135509047Y-108259524D01*
X135413809Y-108354762D01*
X135270952Y-108402381D01*
X135175714Y-108402381D01*
X136556667Y-108402381D02*
X135985238Y-108402381D01*
X136270952Y-108402381D02*
X136270952Y-107402381D01*
X136175714Y-107545238D01*
X136080476Y-107640476D01*
X135985238Y-107688095D01*
X138311428Y-107402381D02*
X138644761Y-108402381D01*
X138978095Y-107402381D01*
X139168571Y-107402381D02*
X139740000Y-107402381D01*
X139454285Y-108402381D02*
X139454285Y-107402381D01*
X140597143Y-108402381D02*
X140025714Y-108402381D01*
X140311428Y-108402381D02*
X140311428Y-107402381D01*
X140216190Y-107545238D01*
X140120952Y-107640476D01*
X140025714Y-107688095D01*
X141216190Y-107402381D02*
X141311429Y-107402381D01*
X141406667Y-107450000D01*
X141454286Y-107497619D01*
X141501905Y-107592857D01*
X141549524Y-107783333D01*
X141549524Y-108021429D01*
X141501905Y-108211905D01*
X141454286Y-108307143D01*
X141406667Y-108354762D01*
X141311429Y-108402381D01*
X141216190Y-108402381D01*
X141120952Y-108354762D01*
X141073333Y-108307143D01*
X141025714Y-108211905D01*
X140978095Y-108021429D01*
X140978095Y-107783333D01*
X141025714Y-107592857D01*
X141073333Y-107497619D01*
X141120952Y-107450000D01*
X141216190Y-107402381D01*
X142168571Y-107402381D02*
X142263810Y-107402381D01*
X142359048Y-107450000D01*
X142406667Y-107497619D01*
X142454286Y-107592857D01*
X142501905Y-107783333D01*
X142501905Y-108021429D01*
X142454286Y-108211905D01*
X142406667Y-108307143D01*
X142359048Y-108354762D01*
X142263810Y-108402381D01*
X142168571Y-108402381D01*
X142073333Y-108354762D01*
X142025714Y-108307143D01*
X141978095Y-108211905D01*
X141930476Y-108021429D01*
X141930476Y-107783333D01*
X141978095Y-107592857D01*
X142025714Y-107497619D01*
X142073333Y-107450000D01*
X142168571Y-107402381D01*
X142692381Y-108497619D02*
X143454286Y-108497619D01*
X143692381Y-108402381D02*
X143692381Y-107402381D01*
X144263810Y-108402381D02*
X143835238Y-107830952D01*
X144263810Y-107402381D02*
X143692381Y-107973810D01*
X144692381Y-108402381D02*
X144692381Y-107402381D01*
X144692381Y-107783333D02*
X144787619Y-107735714D01*
X144978096Y-107735714D01*
X145073334Y-107783333D01*
X145120953Y-107830952D01*
X145168572Y-107926190D01*
X145168572Y-108211905D01*
X145120953Y-108307143D01*
X145073334Y-108354762D01*
X144978096Y-108402381D01*
X144787619Y-108402381D01*
X144692381Y-108354762D01*
X146025715Y-108402381D02*
X146025715Y-107402381D01*
X146025715Y-108354762D02*
X145930477Y-108402381D01*
X145740000Y-108402381D01*
X145644762Y-108354762D01*
X145597143Y-108307143D01*
X145549524Y-108211905D01*
X145549524Y-107926190D01*
X145597143Y-107830952D01*
X145644762Y-107783333D01*
X145740000Y-107735714D01*
X145930477Y-107735714D01*
X146025715Y-107783333D01*
X135556667Y-93432381D02*
X135556667Y-94146667D01*
X135509047Y-94289524D01*
X135413809Y-94384762D01*
X135270952Y-94432381D01*
X135175714Y-94432381D01*
X135985238Y-93527619D02*
X136032857Y-93480000D01*
X136128095Y-93432381D01*
X136366191Y-93432381D01*
X136461429Y-93480000D01*
X136509048Y-93527619D01*
X136556667Y-93622857D01*
X136556667Y-93718095D01*
X136509048Y-93860952D01*
X135937619Y-94432381D01*
X136556667Y-94432381D01*
X138350952Y-93432381D02*
X138922381Y-93432381D01*
X138636666Y-94432381D02*
X138636666Y-93432381D01*
X139398571Y-94432381D02*
X139303333Y-94384762D01*
X139255714Y-94337143D01*
X139208095Y-94241905D01*
X139208095Y-93956190D01*
X139255714Y-93860952D01*
X139303333Y-93813333D01*
X139398571Y-93765714D01*
X139541429Y-93765714D01*
X139636667Y-93813333D01*
X139684286Y-93860952D01*
X139731905Y-93956190D01*
X139731905Y-94241905D01*
X139684286Y-94337143D01*
X139636667Y-94384762D01*
X139541429Y-94432381D01*
X139398571Y-94432381D01*
X139922381Y-94527619D02*
X140684286Y-94527619D01*
X140874762Y-94146667D02*
X141350953Y-94146667D01*
X140779524Y-94432381D02*
X141112857Y-93432381D01*
X141446191Y-94432381D01*
X141779524Y-94432381D02*
X141779524Y-93432381D01*
X142112858Y-94146667D01*
X142446191Y-93432381D01*
X142446191Y-94432381D01*
X142922381Y-94432381D02*
X142922381Y-93432381D01*
X143303334Y-93432381D01*
X143398572Y-93480000D01*
X143446191Y-93527619D01*
X143493810Y-93622857D01*
X143493810Y-93765714D01*
X143446191Y-93860952D01*
X143398572Y-93908571D01*
X143303334Y-93956190D01*
X142922381Y-93956190D01*
X146502381Y-118276666D02*
X146026190Y-118610000D01*
X146502381Y-118848095D02*
X145502381Y-118848095D01*
X145502381Y-118467142D01*
X145550000Y-118371904D01*
X145597619Y-118324285D01*
X145692857Y-118276666D01*
X145835714Y-118276666D01*
X145930952Y-118324285D01*
X145978571Y-118371904D01*
X146026190Y-118467142D01*
X146026190Y-118848095D01*
X146502381Y-117324285D02*
X146502381Y-117895714D01*
X146502381Y-117610000D02*
X145502381Y-117610000D01*
X145645238Y-117705238D01*
X145740476Y-117800476D01*
X145788095Y-117895714D01*
X146867619Y-116260476D02*
X146820000Y-116212857D01*
X146772381Y-116117619D01*
X146772381Y-115879523D01*
X146820000Y-115784285D01*
X146867619Y-115736666D01*
X146962857Y-115689047D01*
X147058095Y-115689047D01*
X147200952Y-115736666D01*
X147772381Y-116308095D01*
X147772381Y-115689047D01*
X147772381Y-115260476D02*
X146772381Y-115260476D01*
X147391429Y-115165238D02*
X147772381Y-114879523D01*
X147105714Y-114879523D02*
X147486667Y-115260476D01*
X160472381Y-87796666D02*
X159996190Y-88130000D01*
X160472381Y-88368095D02*
X159472381Y-88368095D01*
X159472381Y-87987142D01*
X159520000Y-87891904D01*
X159567619Y-87844285D01*
X159662857Y-87796666D01*
X159805714Y-87796666D01*
X159900952Y-87844285D01*
X159948571Y-87891904D01*
X159996190Y-87987142D01*
X159996190Y-88368095D01*
X159567619Y-87415714D02*
X159520000Y-87368095D01*
X159472381Y-87272857D01*
X159472381Y-87034761D01*
X159520000Y-86939523D01*
X159567619Y-86891904D01*
X159662857Y-86844285D01*
X159758095Y-86844285D01*
X159900952Y-86891904D01*
X160472381Y-87463333D01*
X160472381Y-86844285D01*
X160837619Y-86256667D02*
X160790000Y-86209048D01*
X160742381Y-86113810D01*
X160742381Y-85875714D01*
X160790000Y-85780476D01*
X160837619Y-85732857D01*
X160932857Y-85685238D01*
X161028095Y-85685238D01*
X161170952Y-85732857D01*
X161742381Y-86304286D01*
X161742381Y-85685238D01*
X160742381Y-85066191D02*
X160742381Y-84970952D01*
X160790000Y-84875714D01*
X160837619Y-84828095D01*
X160932857Y-84780476D01*
X161123333Y-84732857D01*
X161361429Y-84732857D01*
X161551905Y-84780476D01*
X161647143Y-84828095D01*
X161694762Y-84875714D01*
X161742381Y-84970952D01*
X161742381Y-85066191D01*
X161694762Y-85161429D01*
X161647143Y-85209048D01*
X161551905Y-85256667D01*
X161361429Y-85304286D01*
X161123333Y-85304286D01*
X160932857Y-85256667D01*
X160837619Y-85209048D01*
X160790000Y-85161429D01*
X160742381Y-85066191D01*
X161742381Y-84304286D02*
X160742381Y-84304286D01*
X161361429Y-84209048D02*
X161742381Y-83923333D01*
X161075714Y-83923333D02*
X161456667Y-84304286D01*
X165552381Y-118276666D02*
X165076190Y-118610000D01*
X165552381Y-118848095D02*
X164552381Y-118848095D01*
X164552381Y-118467142D01*
X164600000Y-118371904D01*
X164647619Y-118324285D01*
X164742857Y-118276666D01*
X164885714Y-118276666D01*
X164980952Y-118324285D01*
X165028571Y-118371904D01*
X165076190Y-118467142D01*
X165076190Y-118848095D01*
X164552381Y-117943333D02*
X164552381Y-117324285D01*
X164933333Y-117657619D01*
X164933333Y-117514761D01*
X164980952Y-117419523D01*
X165028571Y-117371904D01*
X165123810Y-117324285D01*
X165361905Y-117324285D01*
X165457143Y-117371904D01*
X165504762Y-117419523D01*
X165552381Y-117514761D01*
X165552381Y-117800476D01*
X165504762Y-117895714D01*
X165457143Y-117943333D01*
X166822381Y-116165238D02*
X166822381Y-116736667D01*
X166822381Y-116450953D02*
X165822381Y-116450953D01*
X165965238Y-116546191D01*
X166060476Y-116641429D01*
X166108095Y-116736667D01*
X165822381Y-115546191D02*
X165822381Y-115450952D01*
X165870000Y-115355714D01*
X165917619Y-115308095D01*
X166012857Y-115260476D01*
X166203333Y-115212857D01*
X166441429Y-115212857D01*
X166631905Y-115260476D01*
X166727143Y-115308095D01*
X166774762Y-115355714D01*
X166822381Y-115450952D01*
X166822381Y-115546191D01*
X166774762Y-115641429D01*
X166727143Y-115689048D01*
X166631905Y-115736667D01*
X166441429Y-115784286D01*
X166203333Y-115784286D01*
X166012857Y-115736667D01*
X165917619Y-115689048D01*
X165870000Y-115641429D01*
X165822381Y-115546191D01*
X166822381Y-114784286D02*
X165822381Y-114784286D01*
X166441429Y-114689048D02*
X166822381Y-114403333D01*
X166155714Y-114403333D02*
X166536667Y-114784286D01*
X157932381Y-118276666D02*
X157456190Y-118610000D01*
X157932381Y-118848095D02*
X156932381Y-118848095D01*
X156932381Y-118467142D01*
X156980000Y-118371904D01*
X157027619Y-118324285D01*
X157122857Y-118276666D01*
X157265714Y-118276666D01*
X157360952Y-118324285D01*
X157408571Y-118371904D01*
X157456190Y-118467142D01*
X157456190Y-118848095D01*
X157265714Y-117419523D02*
X157932381Y-117419523D01*
X156884762Y-117657619D02*
X157599048Y-117895714D01*
X157599048Y-117276666D01*
X158297619Y-116736667D02*
X158250000Y-116689048D01*
X158202381Y-116593810D01*
X158202381Y-116355714D01*
X158250000Y-116260476D01*
X158297619Y-116212857D01*
X158392857Y-116165238D01*
X158488095Y-116165238D01*
X158630952Y-116212857D01*
X159202381Y-116784286D01*
X159202381Y-116165238D01*
X158202381Y-115546191D02*
X158202381Y-115450952D01*
X158250000Y-115355714D01*
X158297619Y-115308095D01*
X158392857Y-115260476D01*
X158583333Y-115212857D01*
X158821429Y-115212857D01*
X159011905Y-115260476D01*
X159107143Y-115308095D01*
X159154762Y-115355714D01*
X159202381Y-115450952D01*
X159202381Y-115546191D01*
X159154762Y-115641429D01*
X159107143Y-115689048D01*
X159011905Y-115736667D01*
X158821429Y-115784286D01*
X158583333Y-115784286D01*
X158392857Y-115736667D01*
X158297619Y-115689048D01*
X158250000Y-115641429D01*
X158202381Y-115546191D01*
X159202381Y-114784286D02*
X158202381Y-114784286D01*
X158821429Y-114689048D02*
X159202381Y-114403333D01*
X158535714Y-114403333D02*
X158916667Y-114784286D01*
X161742381Y-118276666D02*
X161266190Y-118610000D01*
X161742381Y-118848095D02*
X160742381Y-118848095D01*
X160742381Y-118467142D01*
X160790000Y-118371904D01*
X160837619Y-118324285D01*
X160932857Y-118276666D01*
X161075714Y-118276666D01*
X161170952Y-118324285D01*
X161218571Y-118371904D01*
X161266190Y-118467142D01*
X161266190Y-118848095D01*
X160742381Y-117371904D02*
X160742381Y-117848095D01*
X161218571Y-117895714D01*
X161170952Y-117848095D01*
X161123333Y-117752857D01*
X161123333Y-117514761D01*
X161170952Y-117419523D01*
X161218571Y-117371904D01*
X161313810Y-117324285D01*
X161551905Y-117324285D01*
X161647143Y-117371904D01*
X161694762Y-117419523D01*
X161742381Y-117514761D01*
X161742381Y-117752857D01*
X161694762Y-117848095D01*
X161647143Y-117895714D01*
X163012381Y-115855714D02*
X163012381Y-116427143D01*
X163012381Y-116141429D02*
X162012381Y-116141429D01*
X162155238Y-116236667D01*
X162250476Y-116331905D01*
X162298095Y-116427143D01*
X163012381Y-115427143D02*
X162012381Y-115427143D01*
X162726667Y-115093809D01*
X162012381Y-114760476D01*
X163012381Y-114760476D01*
X150312381Y-118276666D02*
X149836190Y-118610000D01*
X150312381Y-118848095D02*
X149312381Y-118848095D01*
X149312381Y-118467142D01*
X149360000Y-118371904D01*
X149407619Y-118324285D01*
X149502857Y-118276666D01*
X149645714Y-118276666D01*
X149740952Y-118324285D01*
X149788571Y-118371904D01*
X149836190Y-118467142D01*
X149836190Y-118848095D01*
X149312381Y-117419523D02*
X149312381Y-117610000D01*
X149360000Y-117705238D01*
X149407619Y-117752857D01*
X149550476Y-117848095D01*
X149740952Y-117895714D01*
X150121905Y-117895714D01*
X150217143Y-117848095D01*
X150264762Y-117800476D01*
X150312381Y-117705238D01*
X150312381Y-117514761D01*
X150264762Y-117419523D01*
X150217143Y-117371904D01*
X150121905Y-117324285D01*
X149883810Y-117324285D01*
X149788571Y-117371904D01*
X149740952Y-117419523D01*
X149693333Y-117514761D01*
X149693333Y-117705238D01*
X149740952Y-117800476D01*
X149788571Y-117848095D01*
X149883810Y-117895714D01*
X151582381Y-115689047D02*
X151582381Y-116260476D01*
X151582381Y-115974762D02*
X150582381Y-115974762D01*
X150725238Y-116070000D01*
X150820476Y-116165238D01*
X150868095Y-116260476D01*
X151582381Y-115260476D02*
X150582381Y-115260476D01*
X151201429Y-115165238D02*
X151582381Y-114879523D01*
X150915714Y-114879523D02*
X151296667Y-115260476D01*
X154122381Y-118276666D02*
X153646190Y-118610000D01*
X154122381Y-118848095D02*
X153122381Y-118848095D01*
X153122381Y-118467142D01*
X153170000Y-118371904D01*
X153217619Y-118324285D01*
X153312857Y-118276666D01*
X153455714Y-118276666D01*
X153550952Y-118324285D01*
X153598571Y-118371904D01*
X153646190Y-118467142D01*
X153646190Y-118848095D01*
X153122381Y-117943333D02*
X153122381Y-117276666D01*
X154122381Y-117705238D01*
X155392381Y-115689047D02*
X155392381Y-116260476D01*
X155392381Y-115974762D02*
X154392381Y-115974762D01*
X154535238Y-116070000D01*
X154630476Y-116165238D01*
X154678095Y-116260476D01*
X155392381Y-115260476D02*
X154392381Y-115260476D01*
X155011429Y-115165238D02*
X155392381Y-114879523D01*
X154725714Y-114879523D02*
X155106667Y-115260476D01*
X169362381Y-118276666D02*
X168886190Y-118610000D01*
X169362381Y-118848095D02*
X168362381Y-118848095D01*
X168362381Y-118467142D01*
X168410000Y-118371904D01*
X168457619Y-118324285D01*
X168552857Y-118276666D01*
X168695714Y-118276666D01*
X168790952Y-118324285D01*
X168838571Y-118371904D01*
X168886190Y-118467142D01*
X168886190Y-118848095D01*
X168790952Y-117705238D02*
X168743333Y-117800476D01*
X168695714Y-117848095D01*
X168600476Y-117895714D01*
X168552857Y-117895714D01*
X168457619Y-117848095D01*
X168410000Y-117800476D01*
X168362381Y-117705238D01*
X168362381Y-117514761D01*
X168410000Y-117419523D01*
X168457619Y-117371904D01*
X168552857Y-117324285D01*
X168600476Y-117324285D01*
X168695714Y-117371904D01*
X168743333Y-117419523D01*
X168790952Y-117514761D01*
X168790952Y-117705238D01*
X168838571Y-117800476D01*
X168886190Y-117848095D01*
X168981429Y-117895714D01*
X169171905Y-117895714D01*
X169267143Y-117848095D01*
X169314762Y-117800476D01*
X169362381Y-117705238D01*
X169362381Y-117514761D01*
X169314762Y-117419523D01*
X169267143Y-117371904D01*
X169171905Y-117324285D01*
X168981429Y-117324285D01*
X168886190Y-117371904D01*
X168838571Y-117419523D01*
X168790952Y-117514761D01*
X169965714Y-116260476D02*
X170632381Y-116260476D01*
X169584762Y-116498572D02*
X170299048Y-116736667D01*
X170299048Y-116117619D01*
X170632381Y-115736667D02*
X169632381Y-115736667D01*
X170251429Y-115641429D02*
X170632381Y-115355714D01*
X169965714Y-115355714D02*
X170346667Y-115736667D01*
X169632381Y-115022381D02*
X169632381Y-114355714D01*
X170632381Y-114784286D01*
X145232381Y-100496666D02*
X144756190Y-100830000D01*
X145232381Y-101068095D02*
X144232381Y-101068095D01*
X144232381Y-100687142D01*
X144280000Y-100591904D01*
X144327619Y-100544285D01*
X144422857Y-100496666D01*
X144565714Y-100496666D01*
X144660952Y-100544285D01*
X144708571Y-100591904D01*
X144756190Y-100687142D01*
X144756190Y-101068095D01*
X145232381Y-100020476D02*
X145232381Y-99830000D01*
X145184762Y-99734761D01*
X145137143Y-99687142D01*
X144994286Y-99591904D01*
X144803810Y-99544285D01*
X144422857Y-99544285D01*
X144327619Y-99591904D01*
X144280000Y-99639523D01*
X144232381Y-99734761D01*
X144232381Y-99925238D01*
X144280000Y-100020476D01*
X144327619Y-100068095D01*
X144422857Y-100115714D01*
X144660952Y-100115714D01*
X144756190Y-100068095D01*
X144803810Y-100020476D01*
X144851429Y-99925238D01*
X144851429Y-99734761D01*
X144803810Y-99639523D01*
X144756190Y-99591904D01*
X144660952Y-99544285D01*
X146502381Y-99655238D02*
X146502381Y-100226667D01*
X146502381Y-99940953D02*
X145502381Y-99940953D01*
X145645238Y-100036191D01*
X145740476Y-100131429D01*
X145788095Y-100226667D01*
X145502381Y-99036191D02*
X145502381Y-98940952D01*
X145550000Y-98845714D01*
X145597619Y-98798095D01*
X145692857Y-98750476D01*
X145883333Y-98702857D01*
X146121429Y-98702857D01*
X146311905Y-98750476D01*
X146407143Y-98798095D01*
X146454762Y-98845714D01*
X146502381Y-98940952D01*
X146502381Y-99036191D01*
X146454762Y-99131429D01*
X146407143Y-99179048D01*
X146311905Y-99226667D01*
X146121429Y-99274286D01*
X145883333Y-99274286D01*
X145692857Y-99226667D01*
X145597619Y-99179048D01*
X145550000Y-99131429D01*
X145502381Y-99036191D01*
X146502381Y-98274286D02*
X145502381Y-98274286D01*
X146121429Y-98179048D02*
X146502381Y-97893333D01*
X145835714Y-97893333D02*
X146216667Y-98274286D01*
X188412381Y-88272857D02*
X187936190Y-88606191D01*
X188412381Y-88844286D02*
X187412381Y-88844286D01*
X187412381Y-88463333D01*
X187460000Y-88368095D01*
X187507619Y-88320476D01*
X187602857Y-88272857D01*
X187745714Y-88272857D01*
X187840952Y-88320476D01*
X187888571Y-88368095D01*
X187936190Y-88463333D01*
X187936190Y-88844286D01*
X188412381Y-87320476D02*
X188412381Y-87891905D01*
X188412381Y-87606191D02*
X187412381Y-87606191D01*
X187555238Y-87701429D01*
X187650476Y-87796667D01*
X187698095Y-87891905D01*
X187412381Y-86701429D02*
X187412381Y-86606190D01*
X187460000Y-86510952D01*
X187507619Y-86463333D01*
X187602857Y-86415714D01*
X187793333Y-86368095D01*
X188031429Y-86368095D01*
X188221905Y-86415714D01*
X188317143Y-86463333D01*
X188364762Y-86510952D01*
X188412381Y-86606190D01*
X188412381Y-86701429D01*
X188364762Y-86796667D01*
X188317143Y-86844286D01*
X188221905Y-86891905D01*
X188031429Y-86939524D01*
X187793333Y-86939524D01*
X187602857Y-86891905D01*
X187507619Y-86844286D01*
X187460000Y-86796667D01*
X187412381Y-86701429D01*
X189682381Y-85685238D02*
X189682381Y-86256667D01*
X189682381Y-85970953D02*
X188682381Y-85970953D01*
X188825238Y-86066191D01*
X188920476Y-86161429D01*
X188968095Y-86256667D01*
X188682381Y-85066191D02*
X188682381Y-84970952D01*
X188730000Y-84875714D01*
X188777619Y-84828095D01*
X188872857Y-84780476D01*
X189063333Y-84732857D01*
X189301429Y-84732857D01*
X189491905Y-84780476D01*
X189587143Y-84828095D01*
X189634762Y-84875714D01*
X189682381Y-84970952D01*
X189682381Y-85066191D01*
X189634762Y-85161429D01*
X189587143Y-85209048D01*
X189491905Y-85256667D01*
X189301429Y-85304286D01*
X189063333Y-85304286D01*
X188872857Y-85256667D01*
X188777619Y-85209048D01*
X188730000Y-85161429D01*
X188682381Y-85066191D01*
X189682381Y-84304286D02*
X188682381Y-84304286D01*
X189301429Y-84209048D02*
X189682381Y-83923333D01*
X189015714Y-83923333D02*
X189396667Y-84304286D01*
X156662381Y-88272857D02*
X156186190Y-88606191D01*
X156662381Y-88844286D02*
X155662381Y-88844286D01*
X155662381Y-88463333D01*
X155710000Y-88368095D01*
X155757619Y-88320476D01*
X155852857Y-88272857D01*
X155995714Y-88272857D01*
X156090952Y-88320476D01*
X156138571Y-88368095D01*
X156186190Y-88463333D01*
X156186190Y-88844286D01*
X156662381Y-87320476D02*
X156662381Y-87891905D01*
X156662381Y-87606191D02*
X155662381Y-87606191D01*
X155805238Y-87701429D01*
X155900476Y-87796667D01*
X155948095Y-87891905D01*
X156662381Y-86368095D02*
X156662381Y-86939524D01*
X156662381Y-86653810D02*
X155662381Y-86653810D01*
X155805238Y-86749048D01*
X155900476Y-86844286D01*
X155948095Y-86939524D01*
X157932381Y-85209047D02*
X157932381Y-85780476D01*
X157932381Y-85494762D02*
X156932381Y-85494762D01*
X157075238Y-85590000D01*
X157170476Y-85685238D01*
X157218095Y-85780476D01*
X157932381Y-84780476D02*
X156932381Y-84780476D01*
X157551429Y-84685238D02*
X157932381Y-84399523D01*
X157265714Y-84399523D02*
X157646667Y-84780476D01*
X184602381Y-88272857D02*
X184126190Y-88606191D01*
X184602381Y-88844286D02*
X183602381Y-88844286D01*
X183602381Y-88463333D01*
X183650000Y-88368095D01*
X183697619Y-88320476D01*
X183792857Y-88272857D01*
X183935714Y-88272857D01*
X184030952Y-88320476D01*
X184078571Y-88368095D01*
X184126190Y-88463333D01*
X184126190Y-88844286D01*
X184602381Y-87320476D02*
X184602381Y-87891905D01*
X184602381Y-87606191D02*
X183602381Y-87606191D01*
X183745238Y-87701429D01*
X183840476Y-87796667D01*
X183888095Y-87891905D01*
X183697619Y-86939524D02*
X183650000Y-86891905D01*
X183602381Y-86796667D01*
X183602381Y-86558571D01*
X183650000Y-86463333D01*
X183697619Y-86415714D01*
X183792857Y-86368095D01*
X183888095Y-86368095D01*
X184030952Y-86415714D01*
X184602381Y-86987143D01*
X184602381Y-86368095D01*
X184967619Y-85780476D02*
X184920000Y-85732857D01*
X184872381Y-85637619D01*
X184872381Y-85399523D01*
X184920000Y-85304285D01*
X184967619Y-85256666D01*
X185062857Y-85209047D01*
X185158095Y-85209047D01*
X185300952Y-85256666D01*
X185872381Y-85828095D01*
X185872381Y-85209047D01*
X185872381Y-84780476D02*
X184872381Y-84780476D01*
X185491429Y-84685238D02*
X185872381Y-84399523D01*
X185205714Y-84399523D02*
X185586667Y-84780476D01*
X151757143Y-94432381D02*
X151423809Y-93956190D01*
X151185714Y-94432381D02*
X151185714Y-93432381D01*
X151566667Y-93432381D01*
X151661905Y-93480000D01*
X151709524Y-93527619D01*
X151757143Y-93622857D01*
X151757143Y-93765714D01*
X151709524Y-93860952D01*
X151661905Y-93908571D01*
X151566667Y-93956190D01*
X151185714Y-93956190D01*
X152709524Y-94432381D02*
X152138095Y-94432381D01*
X152423809Y-94432381D02*
X152423809Y-93432381D01*
X152328571Y-93575238D01*
X152233333Y-93670476D01*
X152138095Y-93718095D01*
X153042857Y-93432381D02*
X153661905Y-93432381D01*
X153328571Y-93813333D01*
X153471429Y-93813333D01*
X153566667Y-93860952D01*
X153614286Y-93908571D01*
X153661905Y-94003810D01*
X153661905Y-94241905D01*
X153614286Y-94337143D01*
X153566667Y-94384762D01*
X153471429Y-94432381D01*
X153185714Y-94432381D01*
X153090476Y-94384762D01*
X153042857Y-94337143D01*
X153074762Y-95702381D02*
X152503333Y-95702381D01*
X152789047Y-95702381D02*
X152789047Y-94702381D01*
X152693809Y-94845238D01*
X152598571Y-94940476D01*
X152503333Y-94988095D01*
X153693809Y-94702381D02*
X153789048Y-94702381D01*
X153884286Y-94750000D01*
X153931905Y-94797619D01*
X153979524Y-94892857D01*
X154027143Y-95083333D01*
X154027143Y-95321429D01*
X153979524Y-95511905D01*
X153931905Y-95607143D01*
X153884286Y-95654762D01*
X153789048Y-95702381D01*
X153693809Y-95702381D01*
X153598571Y-95654762D01*
X153550952Y-95607143D01*
X153503333Y-95511905D01*
X153455714Y-95321429D01*
X153455714Y-95083333D01*
X153503333Y-94892857D01*
X153550952Y-94797619D01*
X153598571Y-94750000D01*
X153693809Y-94702381D01*
X154455714Y-95702381D02*
X154455714Y-94702381D01*
X154550952Y-95321429D02*
X154836667Y-95702381D01*
X154836667Y-95035714D02*
X154455714Y-95416667D01*
X151757143Y-98242381D02*
X151423809Y-97766190D01*
X151185714Y-98242381D02*
X151185714Y-97242381D01*
X151566667Y-97242381D01*
X151661905Y-97290000D01*
X151709524Y-97337619D01*
X151757143Y-97432857D01*
X151757143Y-97575714D01*
X151709524Y-97670952D01*
X151661905Y-97718571D01*
X151566667Y-97766190D01*
X151185714Y-97766190D01*
X152709524Y-98242381D02*
X152138095Y-98242381D01*
X152423809Y-98242381D02*
X152423809Y-97242381D01*
X152328571Y-97385238D01*
X152233333Y-97480476D01*
X152138095Y-97528095D01*
X153566667Y-97575714D02*
X153566667Y-98242381D01*
X153328571Y-97194762D02*
X153090476Y-97909048D01*
X153709524Y-97909048D01*
X153074762Y-99512381D02*
X152503333Y-99512381D01*
X152789047Y-99512381D02*
X152789047Y-98512381D01*
X152693809Y-98655238D01*
X152598571Y-98750476D01*
X152503333Y-98798095D01*
X153693809Y-98512381D02*
X153789048Y-98512381D01*
X153884286Y-98560000D01*
X153931905Y-98607619D01*
X153979524Y-98702857D01*
X154027143Y-98893333D01*
X154027143Y-99131429D01*
X153979524Y-99321905D01*
X153931905Y-99417143D01*
X153884286Y-99464762D01*
X153789048Y-99512381D01*
X153693809Y-99512381D01*
X153598571Y-99464762D01*
X153550952Y-99417143D01*
X153503333Y-99321905D01*
X153455714Y-99131429D01*
X153455714Y-98893333D01*
X153503333Y-98702857D01*
X153550952Y-98607619D01*
X153598571Y-98560000D01*
X153693809Y-98512381D01*
X154455714Y-99512381D02*
X154455714Y-98512381D01*
X154550952Y-99131429D02*
X154836667Y-99512381D01*
X154836667Y-98845714D02*
X154455714Y-99226667D01*
X173601143Y-91130381D02*
X173267809Y-90654190D01*
X173029714Y-91130381D02*
X173029714Y-90130381D01*
X173410667Y-90130381D01*
X173505905Y-90178000D01*
X173553524Y-90225619D01*
X173601143Y-90320857D01*
X173601143Y-90463714D01*
X173553524Y-90558952D01*
X173505905Y-90606571D01*
X173410667Y-90654190D01*
X173029714Y-90654190D01*
X174553524Y-91130381D02*
X173982095Y-91130381D01*
X174267809Y-91130381D02*
X174267809Y-90130381D01*
X174172571Y-90273238D01*
X174077333Y-90368476D01*
X173982095Y-90416095D01*
X175458286Y-90130381D02*
X174982095Y-90130381D01*
X174934476Y-90606571D01*
X174982095Y-90558952D01*
X175077333Y-90511333D01*
X175315429Y-90511333D01*
X175410667Y-90558952D01*
X175458286Y-90606571D01*
X175505905Y-90701810D01*
X175505905Y-90939905D01*
X175458286Y-91035143D01*
X175410667Y-91082762D01*
X175315429Y-91130381D01*
X175077333Y-91130381D01*
X174982095Y-91082762D01*
X174934476Y-91035143D01*
X176093524Y-91400381D02*
X175903047Y-91400381D01*
X175807809Y-91448000D01*
X175760190Y-91495619D01*
X175664952Y-91638476D01*
X175617333Y-91828952D01*
X175617333Y-92209905D01*
X175664952Y-92305143D01*
X175712571Y-92352762D01*
X175807809Y-92400381D01*
X175998286Y-92400381D01*
X176093524Y-92352762D01*
X176141143Y-92305143D01*
X176188762Y-92209905D01*
X176188762Y-91971810D01*
X176141143Y-91876571D01*
X176093524Y-91828952D01*
X175998286Y-91781333D01*
X175807809Y-91781333D01*
X175712571Y-91828952D01*
X175664952Y-91876571D01*
X175617333Y-91971810D01*
X176760190Y-91828952D02*
X176664952Y-91781333D01*
X176617333Y-91733714D01*
X176569714Y-91638476D01*
X176569714Y-91590857D01*
X176617333Y-91495619D01*
X176664952Y-91448000D01*
X176760190Y-91400381D01*
X176950667Y-91400381D01*
X177045905Y-91448000D01*
X177093524Y-91495619D01*
X177141143Y-91590857D01*
X177141143Y-91638476D01*
X177093524Y-91733714D01*
X177045905Y-91781333D01*
X176950667Y-91828952D01*
X176760190Y-91828952D01*
X176664952Y-91876571D01*
X176617333Y-91924190D01*
X176569714Y-92019429D01*
X176569714Y-92209905D01*
X176617333Y-92305143D01*
X176664952Y-92352762D01*
X176760190Y-92400381D01*
X176950667Y-92400381D01*
X177045905Y-92352762D01*
X177093524Y-92305143D01*
X177141143Y-92209905D01*
X177141143Y-92019429D01*
X177093524Y-91924190D01*
X177045905Y-91876571D01*
X176950667Y-91828952D01*
X177569714Y-92400381D02*
X177569714Y-91400381D01*
X177664952Y-92019429D02*
X177950667Y-92400381D01*
X177950667Y-91733714D02*
X177569714Y-92114667D01*
X192222381Y-88272857D02*
X191746190Y-88606191D01*
X192222381Y-88844286D02*
X191222381Y-88844286D01*
X191222381Y-88463333D01*
X191270000Y-88368095D01*
X191317619Y-88320476D01*
X191412857Y-88272857D01*
X191555714Y-88272857D01*
X191650952Y-88320476D01*
X191698571Y-88368095D01*
X191746190Y-88463333D01*
X191746190Y-88844286D01*
X192222381Y-87320476D02*
X192222381Y-87891905D01*
X192222381Y-87606191D02*
X191222381Y-87606191D01*
X191365238Y-87701429D01*
X191460476Y-87796667D01*
X191508095Y-87891905D01*
X191222381Y-86463333D02*
X191222381Y-86653810D01*
X191270000Y-86749048D01*
X191317619Y-86796667D01*
X191460476Y-86891905D01*
X191650952Y-86939524D01*
X192031905Y-86939524D01*
X192127143Y-86891905D01*
X192174762Y-86844286D01*
X192222381Y-86749048D01*
X192222381Y-86558571D01*
X192174762Y-86463333D01*
X192127143Y-86415714D01*
X192031905Y-86368095D01*
X191793810Y-86368095D01*
X191698571Y-86415714D01*
X191650952Y-86463333D01*
X191603333Y-86558571D01*
X191603333Y-86749048D01*
X191650952Y-86844286D01*
X191698571Y-86891905D01*
X191793810Y-86939524D01*
X192825714Y-85780476D02*
X193492381Y-85780476D01*
X192444762Y-86018572D02*
X193159048Y-86256667D01*
X193159048Y-85637619D01*
X193492381Y-85256667D02*
X192492381Y-85256667D01*
X193111429Y-85161429D02*
X193492381Y-84875714D01*
X192825714Y-84875714D02*
X193206667Y-85256667D01*
X192492381Y-84542381D02*
X192492381Y-83875714D01*
X193492381Y-84304286D01*
X151757143Y-102052381D02*
X151423809Y-101576190D01*
X151185714Y-102052381D02*
X151185714Y-101052381D01*
X151566667Y-101052381D01*
X151661905Y-101100000D01*
X151709524Y-101147619D01*
X151757143Y-101242857D01*
X151757143Y-101385714D01*
X151709524Y-101480952D01*
X151661905Y-101528571D01*
X151566667Y-101576190D01*
X151185714Y-101576190D01*
X152709524Y-102052381D02*
X152138095Y-102052381D01*
X152423809Y-102052381D02*
X152423809Y-101052381D01*
X152328571Y-101195238D01*
X152233333Y-101290476D01*
X152138095Y-101338095D01*
X153042857Y-101052381D02*
X153709524Y-101052381D01*
X153280952Y-102052381D01*
X152979524Y-102322381D02*
X152789047Y-102322381D01*
X152693809Y-102370000D01*
X152646190Y-102417619D01*
X152550952Y-102560476D01*
X152503333Y-102750952D01*
X152503333Y-103131905D01*
X152550952Y-103227143D01*
X152598571Y-103274762D01*
X152693809Y-103322381D01*
X152884286Y-103322381D01*
X152979524Y-103274762D01*
X153027143Y-103227143D01*
X153074762Y-103131905D01*
X153074762Y-102893810D01*
X153027143Y-102798571D01*
X152979524Y-102750952D01*
X152884286Y-102703333D01*
X152693809Y-102703333D01*
X152598571Y-102750952D01*
X152550952Y-102798571D01*
X152503333Y-102893810D01*
X153646190Y-102750952D02*
X153550952Y-102703333D01*
X153503333Y-102655714D01*
X153455714Y-102560476D01*
X153455714Y-102512857D01*
X153503333Y-102417619D01*
X153550952Y-102370000D01*
X153646190Y-102322381D01*
X153836667Y-102322381D01*
X153931905Y-102370000D01*
X153979524Y-102417619D01*
X154027143Y-102512857D01*
X154027143Y-102560476D01*
X153979524Y-102655714D01*
X153931905Y-102703333D01*
X153836667Y-102750952D01*
X153646190Y-102750952D01*
X153550952Y-102798571D01*
X153503333Y-102846190D01*
X153455714Y-102941429D01*
X153455714Y-103131905D01*
X153503333Y-103227143D01*
X153550952Y-103274762D01*
X153646190Y-103322381D01*
X153836667Y-103322381D01*
X153931905Y-103274762D01*
X153979524Y-103227143D01*
X154027143Y-103131905D01*
X154027143Y-102941429D01*
X153979524Y-102846190D01*
X153931905Y-102798571D01*
X153836667Y-102750952D01*
X154455714Y-103322381D02*
X154455714Y-102322381D01*
X154550952Y-102941429D02*
X154836667Y-103322381D01*
X154836667Y-102655714D02*
X154455714Y-103036667D01*
X151757143Y-105862381D02*
X151423809Y-105386190D01*
X151185714Y-105862381D02*
X151185714Y-104862381D01*
X151566667Y-104862381D01*
X151661905Y-104910000D01*
X151709524Y-104957619D01*
X151757143Y-105052857D01*
X151757143Y-105195714D01*
X151709524Y-105290952D01*
X151661905Y-105338571D01*
X151566667Y-105386190D01*
X151185714Y-105386190D01*
X152709524Y-105862381D02*
X152138095Y-105862381D01*
X152423809Y-105862381D02*
X152423809Y-104862381D01*
X152328571Y-105005238D01*
X152233333Y-105100476D01*
X152138095Y-105148095D01*
X153280952Y-105290952D02*
X153185714Y-105243333D01*
X153138095Y-105195714D01*
X153090476Y-105100476D01*
X153090476Y-105052857D01*
X153138095Y-104957619D01*
X153185714Y-104910000D01*
X153280952Y-104862381D01*
X153471429Y-104862381D01*
X153566667Y-104910000D01*
X153614286Y-104957619D01*
X153661905Y-105052857D01*
X153661905Y-105100476D01*
X153614286Y-105195714D01*
X153566667Y-105243333D01*
X153471429Y-105290952D01*
X153280952Y-105290952D01*
X153185714Y-105338571D01*
X153138095Y-105386190D01*
X153090476Y-105481429D01*
X153090476Y-105671905D01*
X153138095Y-105767143D01*
X153185714Y-105814762D01*
X153280952Y-105862381D01*
X153471429Y-105862381D01*
X153566667Y-105814762D01*
X153614286Y-105767143D01*
X153661905Y-105671905D01*
X153661905Y-105481429D01*
X153614286Y-105386190D01*
X153566667Y-105338571D01*
X153471429Y-105290952D01*
X152979524Y-106465714D02*
X152979524Y-107132381D01*
X152741428Y-106084762D02*
X152503333Y-106799048D01*
X153122381Y-106799048D01*
X153408095Y-106132381D02*
X154074762Y-106132381D01*
X153646190Y-107132381D01*
X154455714Y-107132381D02*
X154455714Y-106132381D01*
X154550952Y-106751429D02*
X154836667Y-107132381D01*
X154836667Y-106465714D02*
X154455714Y-106846667D01*
X173172381Y-117530476D02*
X172696190Y-117863810D01*
X173172381Y-118101905D02*
X172172381Y-118101905D01*
X172172381Y-117720952D01*
X172220000Y-117625714D01*
X172267619Y-117578095D01*
X172362857Y-117530476D01*
X172505714Y-117530476D01*
X172600952Y-117578095D01*
X172648571Y-117625714D01*
X172696190Y-117720952D01*
X172696190Y-118101905D01*
X173172381Y-117101905D02*
X172172381Y-117101905D01*
X173172381Y-116530476D01*
X172172381Y-116530476D01*
X173172381Y-115530476D02*
X173172381Y-116101905D01*
X173172381Y-115816191D02*
X172172381Y-115816191D01*
X172315238Y-115911429D01*
X172410476Y-116006667D01*
X172458095Y-116101905D01*
X172312381Y-113791904D02*
X172312381Y-113982381D01*
X172360000Y-114077619D01*
X172407619Y-114125238D01*
X172550476Y-114220476D01*
X172740952Y-114268095D01*
X173121905Y-114268095D01*
X173217143Y-114220476D01*
X173264762Y-114172857D01*
X173312381Y-114077619D01*
X173312381Y-113887142D01*
X173264762Y-113791904D01*
X173217143Y-113744285D01*
X173121905Y-113696666D01*
X172883810Y-113696666D01*
X172788571Y-113744285D01*
X172740952Y-113791904D01*
X172693333Y-113887142D01*
X172693333Y-114077619D01*
X172740952Y-114172857D01*
X172788571Y-114220476D01*
X172883810Y-114268095D01*
X172740952Y-113125238D02*
X172693333Y-113220476D01*
X172645714Y-113268095D01*
X172550476Y-113315714D01*
X172502857Y-113315714D01*
X172407619Y-113268095D01*
X172360000Y-113220476D01*
X172312381Y-113125238D01*
X172312381Y-112934761D01*
X172360000Y-112839523D01*
X172407619Y-112791904D01*
X172502857Y-112744285D01*
X172550476Y-112744285D01*
X172645714Y-112791904D01*
X172693333Y-112839523D01*
X172740952Y-112934761D01*
X172740952Y-113125238D01*
X172788571Y-113220476D01*
X172836190Y-113268095D01*
X172931429Y-113315714D01*
X173121905Y-113315714D01*
X173217143Y-113268095D01*
X173264762Y-113220476D01*
X173312381Y-113125238D01*
X173312381Y-112934761D01*
X173264762Y-112839523D01*
X173217143Y-112791904D01*
X173121905Y-112744285D01*
X172931429Y-112744285D01*
X172836190Y-112791904D01*
X172788571Y-112839523D01*
X172740952Y-112934761D01*
X172312381Y-112125238D02*
X172312381Y-112029999D01*
X172360000Y-111934761D01*
X172407619Y-111887142D01*
X172502857Y-111839523D01*
X172693333Y-111791904D01*
X172931429Y-111791904D01*
X173121905Y-111839523D01*
X173217143Y-111887142D01*
X173264762Y-111934761D01*
X173312381Y-112029999D01*
X173312381Y-112125238D01*
X173264762Y-112220476D01*
X173217143Y-112268095D01*
X173121905Y-112315714D01*
X172931429Y-112363333D01*
X172693333Y-112363333D01*
X172502857Y-112315714D01*
X172407619Y-112268095D01*
X172360000Y-112220476D01*
X172312381Y-112125238D01*
X178252381Y-117530476D02*
X177776190Y-117863810D01*
X178252381Y-118101905D02*
X177252381Y-118101905D01*
X177252381Y-117720952D01*
X177300000Y-117625714D01*
X177347619Y-117578095D01*
X177442857Y-117530476D01*
X177585714Y-117530476D01*
X177680952Y-117578095D01*
X177728571Y-117625714D01*
X177776190Y-117720952D01*
X177776190Y-118101905D01*
X178252381Y-117101905D02*
X177252381Y-117101905D01*
X178252381Y-116530476D01*
X177252381Y-116530476D01*
X177347619Y-116101905D02*
X177300000Y-116054286D01*
X177252381Y-115959048D01*
X177252381Y-115720952D01*
X177300000Y-115625714D01*
X177347619Y-115578095D01*
X177442857Y-115530476D01*
X177538095Y-115530476D01*
X177680952Y-115578095D01*
X178252381Y-116149524D01*
X178252381Y-115530476D01*
X177392381Y-113791904D02*
X177392381Y-113982381D01*
X177440000Y-114077619D01*
X177487619Y-114125238D01*
X177630476Y-114220476D01*
X177820952Y-114268095D01*
X178201905Y-114268095D01*
X178297143Y-114220476D01*
X178344762Y-114172857D01*
X178392381Y-114077619D01*
X178392381Y-113887142D01*
X178344762Y-113791904D01*
X178297143Y-113744285D01*
X178201905Y-113696666D01*
X177963810Y-113696666D01*
X177868571Y-113744285D01*
X177820952Y-113791904D01*
X177773333Y-113887142D01*
X177773333Y-114077619D01*
X177820952Y-114172857D01*
X177868571Y-114220476D01*
X177963810Y-114268095D01*
X177820952Y-113125238D02*
X177773333Y-113220476D01*
X177725714Y-113268095D01*
X177630476Y-113315714D01*
X177582857Y-113315714D01*
X177487619Y-113268095D01*
X177440000Y-113220476D01*
X177392381Y-113125238D01*
X177392381Y-112934761D01*
X177440000Y-112839523D01*
X177487619Y-112791904D01*
X177582857Y-112744285D01*
X177630476Y-112744285D01*
X177725714Y-112791904D01*
X177773333Y-112839523D01*
X177820952Y-112934761D01*
X177820952Y-113125238D01*
X177868571Y-113220476D01*
X177916190Y-113268095D01*
X178011429Y-113315714D01*
X178201905Y-113315714D01*
X178297143Y-113268095D01*
X178344762Y-113220476D01*
X178392381Y-113125238D01*
X178392381Y-112934761D01*
X178344762Y-112839523D01*
X178297143Y-112791904D01*
X178201905Y-112744285D01*
X178011429Y-112744285D01*
X177916190Y-112791904D01*
X177868571Y-112839523D01*
X177820952Y-112934761D01*
X177392381Y-112125238D02*
X177392381Y-112029999D01*
X177440000Y-111934761D01*
X177487619Y-111887142D01*
X177582857Y-111839523D01*
X177773333Y-111791904D01*
X178011429Y-111791904D01*
X178201905Y-111839523D01*
X178297143Y-111887142D01*
X178344762Y-111934761D01*
X178392381Y-112029999D01*
X178392381Y-112125238D01*
X178344762Y-112220476D01*
X178297143Y-112268095D01*
X178201905Y-112315714D01*
X178011429Y-112363333D01*
X177773333Y-112363333D01*
X177582857Y-112315714D01*
X177487619Y-112268095D01*
X177440000Y-112220476D01*
X177392381Y-112125238D01*
X188468095Y-93432381D02*
X188468095Y-94241905D01*
X188515714Y-94337143D01*
X188563333Y-94384762D01*
X188658571Y-94432381D01*
X188849048Y-94432381D01*
X188944286Y-94384762D01*
X188991905Y-94337143D01*
X189039524Y-94241905D01*
X189039524Y-93432381D01*
X190039524Y-94432381D02*
X189468095Y-94432381D01*
X189753809Y-94432381D02*
X189753809Y-93432381D01*
X189658571Y-93575238D01*
X189563333Y-93670476D01*
X189468095Y-93718095D01*
X189682381Y-116910952D02*
X189682381Y-117387143D01*
X188682381Y-117387143D01*
X189158571Y-116577619D02*
X189158571Y-116244285D01*
X189682381Y-116101428D02*
X189682381Y-116577619D01*
X188682381Y-116577619D01*
X188682381Y-116101428D01*
X189682381Y-115672857D02*
X188682381Y-115672857D01*
X188682381Y-115434762D01*
X188730000Y-115291904D01*
X188825238Y-115196666D01*
X188920476Y-115149047D01*
X189110952Y-115101428D01*
X189253810Y-115101428D01*
X189444286Y-115149047D01*
X189539524Y-115196666D01*
X189634762Y-115291904D01*
X189682381Y-115434762D01*
X189682381Y-115672857D01*
X189682381Y-114149047D02*
X189682381Y-114720476D01*
X189682381Y-114434762D02*
X188682381Y-114434762D01*
X188825238Y-114530000D01*
X188920476Y-114625238D01*
X188968095Y-114720476D01*
X188682381Y-113530000D02*
X188682381Y-113434761D01*
X188730000Y-113339523D01*
X188777619Y-113291904D01*
X188872857Y-113244285D01*
X189063333Y-113196666D01*
X189301429Y-113196666D01*
X189491905Y-113244285D01*
X189587143Y-113291904D01*
X189634762Y-113339523D01*
X189682381Y-113434761D01*
X189682381Y-113530000D01*
X189634762Y-113625238D01*
X189587143Y-113672857D01*
X189491905Y-113720476D01*
X189301429Y-113768095D01*
X189063333Y-113768095D01*
X188872857Y-113720476D01*
X188777619Y-113672857D01*
X188730000Y-113625238D01*
X188682381Y-113530000D01*
X189396667Y-112815714D02*
X189396667Y-112339523D01*
X189682381Y-112910952D02*
X188682381Y-112577619D01*
X189682381Y-112244285D01*
X189682381Y-111339523D02*
X189206190Y-111672857D01*
X189682381Y-111910952D02*
X188682381Y-111910952D01*
X188682381Y-111529999D01*
X188730000Y-111434761D01*
X188777619Y-111387142D01*
X188872857Y-111339523D01*
X189015714Y-111339523D01*
X189110952Y-111387142D01*
X189158571Y-111434761D01*
X189206190Y-111529999D01*
X189206190Y-111910952D01*
X189682381Y-110339523D02*
X189206190Y-110672857D01*
X189682381Y-110910952D02*
X188682381Y-110910952D01*
X188682381Y-110529999D01*
X188730000Y-110434761D01*
X188777619Y-110387142D01*
X188872857Y-110339523D01*
X189015714Y-110339523D01*
X189110952Y-110387142D01*
X189158571Y-110434761D01*
X189206190Y-110529999D01*
X189206190Y-110910952D01*
X189396667Y-109958571D02*
X189396667Y-109482380D01*
X189682381Y-110053809D02*
X188682381Y-109720476D01*
X189682381Y-109387142D01*
X189206190Y-108863333D02*
X189682381Y-108863333D01*
X188682381Y-109196666D02*
X189206190Y-108863333D01*
X188682381Y-108529999D01*
X159472381Y-102361905D02*
X160281905Y-102361905D01*
X160377143Y-102314286D01*
X160424762Y-102266667D01*
X160472381Y-102171429D01*
X160472381Y-101980952D01*
X160424762Y-101885714D01*
X160377143Y-101838095D01*
X160281905Y-101790476D01*
X159472381Y-101790476D01*
X159567619Y-101361905D02*
X159520000Y-101314286D01*
X159472381Y-101219048D01*
X159472381Y-100980952D01*
X159520000Y-100885714D01*
X159567619Y-100838095D01*
X159662857Y-100790476D01*
X159758095Y-100790476D01*
X159900952Y-100838095D01*
X160472381Y-101409524D01*
X160472381Y-100790476D01*
X164679524Y-102052381D02*
X164203333Y-102052381D01*
X164203333Y-101052381D01*
X165012857Y-102052381D02*
X165012857Y-101052381D01*
X165346191Y-101766667D01*
X165679524Y-101052381D01*
X165679524Y-102052381D01*
X166060476Y-101052381D02*
X166679524Y-101052381D01*
X166346190Y-101433333D01*
X166489048Y-101433333D01*
X166584286Y-101480952D01*
X166631905Y-101528571D01*
X166679524Y-101623810D01*
X166679524Y-101861905D01*
X166631905Y-101957143D01*
X166584286Y-102004762D01*
X166489048Y-102052381D01*
X166203333Y-102052381D01*
X166108095Y-102004762D01*
X166060476Y-101957143D01*
X167155714Y-102052381D02*
X167346190Y-102052381D01*
X167441429Y-102004762D01*
X167489048Y-101957143D01*
X167584286Y-101814286D01*
X167631905Y-101623810D01*
X167631905Y-101242857D01*
X167584286Y-101147619D01*
X167536667Y-101100000D01*
X167441429Y-101052381D01*
X167250952Y-101052381D01*
X167155714Y-101100000D01*
X167108095Y-101147619D01*
X167060476Y-101242857D01*
X167060476Y-101480952D01*
X167108095Y-101576190D01*
X167155714Y-101623810D01*
X167250952Y-101671429D01*
X167441429Y-101671429D01*
X167536667Y-101623810D01*
X167584286Y-101576190D01*
X167631905Y-101480952D01*
X167965238Y-101052381D02*
X168584286Y-101052381D01*
X168250952Y-101433333D01*
X168393810Y-101433333D01*
X168489048Y-101480952D01*
X168536667Y-101528571D01*
X168584286Y-101623810D01*
X168584286Y-101861905D01*
X168536667Y-101957143D01*
X168489048Y-102004762D01*
X168393810Y-102052381D01*
X168108095Y-102052381D01*
X168012857Y-102004762D01*
X167965238Y-101957143D01*
X164552381Y-85851905D02*
X165361905Y-85851905D01*
X165457143Y-85804286D01*
X165504762Y-85756667D01*
X165552381Y-85661429D01*
X165552381Y-85470952D01*
X165504762Y-85375714D01*
X165457143Y-85328095D01*
X165361905Y-85280476D01*
X164552381Y-85280476D01*
X164552381Y-84899524D02*
X164552381Y-84280476D01*
X164933333Y-84613810D01*
X164933333Y-84470952D01*
X164980952Y-84375714D01*
X165028571Y-84328095D01*
X165123810Y-84280476D01*
X165361905Y-84280476D01*
X165457143Y-84328095D01*
X165504762Y-84375714D01*
X165552381Y-84470952D01*
X165552381Y-84756667D01*
X165504762Y-84851905D01*
X165457143Y-84899524D01*
X169553333Y-84542381D02*
X170220000Y-84542381D01*
X169791428Y-85542381D01*
X171029524Y-84875714D02*
X171029524Y-85542381D01*
X170791428Y-84494762D02*
X170553333Y-85209048D01*
X171172381Y-85209048D01*
X172029524Y-85542381D02*
X171553333Y-85542381D01*
X171553333Y-84542381D01*
X172315238Y-85494762D02*
X172458095Y-85542381D01*
X172696191Y-85542381D01*
X172791429Y-85494762D01*
X172839048Y-85447143D01*
X172886667Y-85351905D01*
X172886667Y-85256667D01*
X172839048Y-85161429D01*
X172791429Y-85113810D01*
X172696191Y-85066190D01*
X172505714Y-85018571D01*
X172410476Y-84970952D01*
X172362857Y-84923333D01*
X172315238Y-84828095D01*
X172315238Y-84732857D01*
X172362857Y-84637619D01*
X172410476Y-84590000D01*
X172505714Y-84542381D01*
X172743810Y-84542381D01*
X172886667Y-84590000D01*
X173505714Y-84542381D02*
X173600953Y-84542381D01*
X173696191Y-84590000D01*
X173743810Y-84637619D01*
X173791429Y-84732857D01*
X173839048Y-84923333D01*
X173839048Y-85161429D01*
X173791429Y-85351905D01*
X173743810Y-85447143D01*
X173696191Y-85494762D01*
X173600953Y-85542381D01*
X173505714Y-85542381D01*
X173410476Y-85494762D01*
X173362857Y-85447143D01*
X173315238Y-85351905D01*
X173267619Y-85161429D01*
X173267619Y-84923333D01*
X173315238Y-84732857D01*
X173362857Y-84637619D01*
X173410476Y-84590000D01*
X173505714Y-84542381D01*
X174696191Y-84542381D02*
X174505714Y-84542381D01*
X174410476Y-84590000D01*
X174362857Y-84637619D01*
X174267619Y-84780476D01*
X174220000Y-84970952D01*
X174220000Y-85351905D01*
X174267619Y-85447143D01*
X174315238Y-85494762D01*
X174410476Y-85542381D01*
X174600953Y-85542381D01*
X174696191Y-85494762D01*
X174743810Y-85447143D01*
X174791429Y-85351905D01*
X174791429Y-85113810D01*
X174743810Y-85018571D01*
X174696191Y-84970952D01*
X174600953Y-84923333D01*
X174410476Y-84923333D01*
X174315238Y-84970952D01*
X174267619Y-85018571D01*
X174220000Y-85113810D01*
X175220000Y-85542381D02*
X175220000Y-84542381D01*
X175791429Y-85542381D01*
X175791429Y-84542381D01*
X146558095Y-78192381D02*
X146558095Y-79001905D01*
X146605714Y-79097143D01*
X146653333Y-79144762D01*
X146748571Y-79192381D01*
X146939048Y-79192381D01*
X147034286Y-79144762D01*
X147081905Y-79097143D01*
X147129524Y-79001905D01*
X147129524Y-78192381D01*
X148034286Y-78525714D02*
X148034286Y-79192381D01*
X147796190Y-78144762D02*
X147558095Y-78859048D01*
X148177143Y-78859048D01*
X144962858Y-87558571D02*
X145105715Y-87606190D01*
X145153334Y-87653810D01*
X145200953Y-87749048D01*
X145200953Y-87891905D01*
X145153334Y-87987143D01*
X145105715Y-88034762D01*
X145010477Y-88082381D01*
X144629524Y-88082381D01*
X144629524Y-87082381D01*
X144962858Y-87082381D01*
X145058096Y-87130000D01*
X145105715Y-87177619D01*
X145153334Y-87272857D01*
X145153334Y-87368095D01*
X145105715Y-87463333D01*
X145058096Y-87510952D01*
X144962858Y-87558571D01*
X144629524Y-87558571D01*
X145629524Y-87082381D02*
X145629524Y-87891905D01*
X145677143Y-87987143D01*
X145724762Y-88034762D01*
X145820000Y-88082381D01*
X146010477Y-88082381D01*
X146105715Y-88034762D01*
X146153334Y-87987143D01*
X146200953Y-87891905D01*
X146200953Y-87082381D01*
X146581905Y-87082381D02*
X147248572Y-87082381D01*
X146581905Y-88082381D01*
X147248572Y-88082381D01*
X147534286Y-87082381D02*
X148200953Y-87082381D01*
X147534286Y-88082381D01*
X148200953Y-88082381D01*
X148581905Y-87558571D02*
X148915239Y-87558571D01*
X149058096Y-88082381D02*
X148581905Y-88082381D01*
X148581905Y-87082381D01*
X149058096Y-87082381D01*
X150058096Y-88082381D02*
X149724762Y-87606190D01*
X149486667Y-88082381D02*
X149486667Y-87082381D01*
X149867620Y-87082381D01*
X149962858Y-87130000D01*
X150010477Y-87177619D01*
X150058096Y-87272857D01*
X150058096Y-87415714D01*
X150010477Y-87510952D01*
X149962858Y-87558571D01*
X149867620Y-87606190D01*
X149486667Y-87606190D01*
X143119048Y-81351429D02*
X143880953Y-81351429D01*
X143500001Y-81732381D02*
X143500001Y-80970476D01*
M02*
